<?xml version="1.0" encoding="utf-8"?><svg xmlns="http://www.w3.org/2000/svg" xmlns:xlink="http://www.w3.org/1999/xlink"><symbol viewBox="0 0 18 9" id="arrow-down" xmlns="http://www.w3.org/2000/svg"><g clip-path="url(#aclip0)"><path d="M1.188 8.794L9.272.834l8.084 7.96c.15.143.391.14.537-.01a.37.37 0 000-.519L9.54.041a.384.384 0 00-.537 0L.65 8.265a.37.37 0 00-.009.529.384.384 0 00.546 0h.001z"/><path d="M9.272-.069c.1 0 .197.04.269.11l8.353 8.224a.37.37 0 01-.01.528.384.384 0 01-.527 0L9.272.833l-8.084 7.96a.384.384 0 01-.537.01.37.37 0 010-.538L9.004.041a.383.383 0 01.268-.11z"/></g><defs><clipPath id="aclip0"><path transform="rotate(180 9 4.5)" d="M0 0h17.466v9H0z"/></clipPath></defs></symbol><symbol viewBox="0 0 196 90" id="logo" xmlns="http://www.w3.org/2000/svg"><g clip-path="url(#bclip0)"><path d="M154.758 88.645l-.116-.112c0 .037-.058.112-.058.149 0 .037.058.037.058.074l.116-.111zm-6.29-2.286v.297l-.524-.26.233-.186.291.149zm-20.177-59.216l-3.283 15.438h4.351c.246 0 .413.04.501.118.087.07.131.176.131.317a.61.61 0 01-.224.474c-.14.132-.356.198-.646.198h-9.808c-.246 0-.413-.04-.501-.119a.42.42 0 01-.132-.33.61.61 0 01.211-.46c.149-.132.369-.198.659-.198h4.351l3.045-14.318h-3.204c-.246 0-.413-.04-.501-.118a.423.423 0 01-.131-.33c0-.176.07-.33.21-.461.15-.141.37-.211.66-.211h4.311zm11.984 16.98c-1.451 0-2.642-.457-3.573-1.37-.932-.924-1.398-2.093-1.398-3.508 0-1.151.352-2.32 1.055-3.507a7.612 7.612 0 012.887-2.82c1.231-.695 2.474-1.042 3.731-1.042 1.442 0 2.628.457 3.56 1.37.931.915 1.397 2.053 1.397 3.415 0 1.196-.343 2.382-1.028 3.56-.677 1.178-1.635 2.122-2.874 2.834-1.231.712-2.483 1.068-3.757 1.068zm.25-1.107c1.037 0 2.061-.29 3.072-.87 1.019-.59 1.806-1.367 2.36-2.334.562-.967.843-1.938.843-2.913 0-1.108-.382-2.035-1.146-2.782-.765-.747-1.741-1.12-2.927-1.12a5.59 5.59 0 00-2.386.513 7.23 7.23 0 00-1.952 1.306 6.596 6.596 0 00-1.397 1.911 5.072 5.072 0 00-.554 2.294c0 1.151.382 2.105 1.147 2.861.765.756 1.745 1.134 2.94 1.134zm15.965 1.107c-1.45 0-2.641-.457-3.572-1.37-.932-.924-1.398-2.093-1.398-3.508 0-1.151.352-2.32 1.055-3.507a7.605 7.605 0 012.887-2.82c1.231-.695 2.474-1.042 3.731-1.042 1.441 0 2.628.457 3.56 1.37.931.915 1.397 2.053 1.397 3.415 0 1.196-.343 2.382-1.028 3.56-.677 1.178-1.635 2.122-2.874 2.834-1.231.712-2.483 1.068-3.758 1.068zm.251-1.107c1.037 0 2.061-.29 3.072-.87 1.019-.59 1.806-1.367 2.36-2.334.562-.967.843-1.938.843-2.913 0-1.108-.382-2.035-1.147-2.782-.764-.747-1.74-1.12-2.926-1.12a5.6 5.6 0 00-2.387.513 7.225 7.225 0 00-1.951 1.306 6.596 6.596 0 00-1.397 1.911 5.072 5.072 0 00-.554 2.294c0 1.151.382 2.105 1.147 2.861.765.756 1.745 1.134 2.94 1.134zm14.12-4.258l-1.055 4.93h-2.597c-.246 0-.413-.04-.501-.119a.42.42 0 01-.132-.33.61.61 0 01.211-.46c.149-.132.369-.198.659-.198h1.49l3.032-14.318h-1.477c-.246 0-.413-.04-.501-.118a.423.423 0 01-.131-.33c0-.176.07-.33.211-.461.149-.141.369-.211.659-.211h2.597l-2.175 10.204 5.55-3.955h-.567c-.246 0-.413-.04-.501-.119a.42.42 0 01-.132-.33c0-.175.07-.33.211-.46.15-.141.369-.212.659-.212h3.547c.246 0 .408.035.487.106a.424.424 0 01.159.342.64.64 0 01-.224.475c-.15.132-.37.198-.66.198h-1.278l-5.089 3.612 4.284 5.577h1.279c.246 0 .413.04.501.118.088.07.132.176.132.317a.613.613 0 01-.224.474c-.141.132-.356.198-.646.198h-3.586c-.246 0-.413-.04-.501-.119a.42.42 0 01-.132-.33.61.61 0 01.211-.46c.149-.132.369-.198.659-.198h.765l-3.705-4.891-1.489 1.068zm-39.854 13.459c.105-.5.206-.8.303-.896a.692.692 0 01.501-.224.39.39 0 01.303.132.36.36 0 01.132.276c0 .08-.013.194-.04.343l-.54 2.505c-.062.273-.158.466-.29.58a.603.603 0 01-.422.172.475.475 0 01-.33-.119.38.38 0 01-.118-.277c0-.053.008-.14.026-.264.009-.07.013-.14.013-.21 0-.598-.281-1.112-.844-1.543-.738-.58-1.718-.87-2.94-.87a6.148 6.148 0 00-3.032.79c-.949.52-1.718 1.297-2.307 2.334-.589 1.038-.883 2.062-.883 3.072 0 1.152.365 2.079 1.094 2.782.729.694 1.74 1.042 3.032 1.042.844 0 1.745-.154 2.703-.462.958-.316 1.881-.83 2.768-1.542.22-.176.405-.264.554-.264a.41.41 0 01.303.119c.079.07.119.166.119.29 0 .175-.088.356-.264.54-.624.65-1.56 1.217-2.808 1.7a10.26 10.26 0 01-3.757.726c-1.485 0-2.672-.426-3.56-1.279-.887-.861-1.331-1.977-1.331-3.349 0-1.045.22-2.043.659-2.992.448-.95 1.011-1.754 1.687-2.413a8.467 8.467 0 012.347-1.595c.888-.413 1.877-.62 2.966-.62.853 0 1.609.128 2.268.383a4.283 4.283 0 011.688 1.133zm12.603 10.297l.33-1.595c-1.89 1.353-3.753 2.03-5.59 2.03-1.178 0-2.066-.264-2.663-.791-.598-.528-.897-1.187-.897-1.978 0-1.204.528-2.236 1.582-3.098 1.31-1.08 3.019-1.621 5.129-1.621 1.01 0 2.184.136 3.52.408l.382-1.793a2.04 2.04 0 00.04-.395c0-.51-.203-.919-.607-1.226-.545-.422-1.323-.633-2.333-.633-.853 0-2.162.264-3.929.79a1.73 1.73 0 01-.435.093.395.395 0 01-.29-.118.428.428 0 01-.119-.317.64.64 0 01.185-.448c.132-.132.628-.308 1.489-.527 1.521-.396 2.65-.594 3.389-.594 1.256 0 2.201.277 2.834.83.642.555.963 1.179.963 1.873 0 .228-.027.453-.08.672l-1.555 7.33h1.49c.246 0 .413.04.5.12.088.07.132.175.132.316a.61.61 0 01-.224.474c-.14.132-.356.198-.646.198h-2.597zm1.173-5.51c-.993-.291-2.127-.436-3.401-.436-1.767 0-3.182.409-4.245 1.226-.8.615-1.2 1.319-1.2 2.11 0 .57.207 1.037.62 1.397.422.36 1.068.54 1.938.54.958 0 1.889-.184 2.795-.553.905-.378 1.894-.993 2.966-1.846l.527-2.439zm12.947-5.907l-.594 2.795c1.749-1.319 3.015-2.158 3.797-2.518.791-.37 1.486-.554 2.083-.554.598 0 1.134.202 1.609.606.483.405.725.721.725.95a.672.672 0 01-.211.487.685.685 0 01-.501.211.475.475 0 01-.211-.04c-.053-.034-.145-.135-.277-.302-.237-.308-.461-.519-.672-.633a1.246 1.246 0 00-.62-.172c-.492 0-1.121.194-1.885.58-.756.387-2.136 1.332-4.14 2.835l-1.292 6.064h4.904c.255 0 .427.04.515.12.088.07.131.175.131.316a.61.61 0 01-.224.474c-.149.132-.369.198-.659.198h-8.688c-.246 0-.413-.035-.501-.106a.405.405 0 01-.132-.316c0-.176.071-.325.211-.448.141-.132.356-.198.646-.198h2.677l1.964-9.229h-2.044c-.246 0-.413-.04-.5-.118a.405.405 0 01-.132-.317c0-.184.07-.342.211-.474.149-.14.369-.211.659-.211h3.151zm22.28 5.972h-11.285c-.027.273-.04.479-.04.62 0 1.204.409 2.197 1.226 2.98.818.781 1.925 1.173 3.323 1.173.817 0 1.705-.132 2.663-.396.958-.273 1.779-.637 2.465-1.094.202-.132.365-.198.488-.198.114 0 .211.044.29.132a.426.426 0 01.118.316c0 .158-.07.308-.21.448-.405.431-1.213.857-2.426 1.28a11.412 11.412 0 01-3.692.619c-1.617 0-2.918-.48-3.902-1.437-.976-.958-1.463-2.175-1.463-3.652 0-.976.211-1.894.632-2.755a7.303 7.303 0 011.662-2.242 9.002 9.002 0 012.386-1.555 7.16 7.16 0 012.953-.607c1.512 0 2.725.444 3.639 1.332.922.888 1.384 2.021 1.384 3.401 0 .457-.07 1.002-.211 1.635zm-.897-1.12c.044-1.213-.316-2.207-1.081-2.98-.773-.765-1.81-1.147-3.111-1.147-1.266 0-2.448.373-3.546 1.12a6.508 6.508 0 00-2.413 3.006h10.151zM16.017 86.984c3.903-.406 7.63.074 11.242 1.107 5.126 1.475 10.484 1.88 15.901 1.696 6.524-.184 13.105.148 19.512.959 6.349.775 12.698.738 19.105.406 4.834-.258 9.727-.59 14.561-1.07 2.214-.221 4.31-.848 6.407-1.328.291-.073.583-.11.816-.147l.116.258c-.291.148-.641.258-.932.369a53.152 53.152 0 01-12.057 2.065c-5.3.406-10.659.701-16.017.96-5.126.257-10.193-.407-15.26-.96a155.33 155.33 0 00-17.59-.774c-5.36.037-10.718-.701-15.552-2.176-3.029-.922-6.174-1.439-9.494-1.07-.233 0-.466 0-.7-.037l-.058-.258zm93.892-11.765l-6.523-4.536-1.223-.664c-1.049-.738-2.097-1.476-3.145-2.176l.466-.553c2.621 1.622 5.358 3.171 7.863 4.868 2.329 1.586 4.485 3.32 6.756 4.979 1.281.959 2.796 1.77 4.019 2.766.932.737 1.631 1.549 2.097 2.434.757 1.586 1.398 3.172 1.864 4.795.64 2.323 2.563 3.688 5.475 4.278 3.844.774 7.572 1.696 11.066 3.245 3.204 1.402 6.64 1.439 10.135.701 1.922-.406 3.844-.7 5.825-.885-.233.11-.466.221-.757.295-2.738.516-5.476 1.143-8.213 1.512-2.563.369-5.009-.074-7.281-1.032-3.378-1.365-7.047-2.36-10.892-2.988-3.611-.627-5.882-2.36-6.756-5.126a70.502 70.502 0 01-1.107-3.578c-.582-2.065-2.504-3.356-4.543-4.61l-.874-.443-4.252-3.282zM45.606 58.18l-4.543 5.643c-1.223 1.586-2.563 3.172-3.611 4.831-1.631 2.619-1.573 5.2.757 7.635.583.627 1.107 1.29 1.69 1.917l-.35.48c-2.155-1.992-4.485-3.983-4.194-6.786a8.108 8.108 0 011.049-3.615c1.397-2.212 3.145-4.278 4.776-6.417 1.63-2.139 3.203-4.389 5.125-6.454 2.155-2.36 3.67-4.942 4.485-7.635 1.049-3.208.64-6.417-.291-9.552-.699-2.213-1.631-4.425-2.446-6.638h.582c2.854 5.569 4.893 11.212 3.145 17.297-.932 1.77-1.805 3.614-2.912 5.31-.932 1.365-2.155 2.656-3.262 3.984zm57.372-20.58l1.049-1.991.233-.59c1.223-2.73 2.679-5.975 3.378-9.184.99-2.176.699-2.36 1.281-4.61.699-2.619.408-4.204.466-6.602.117-3.208-4.019-6.011-7.048-6.38-2.446-.295-4.892-.59-7.338-.922-1.049-.148-2.097-.406-3.204-.59v-.332c2.796.295 5.592.627 8.387.885 3.553.258 6.757 1.512 8.737 3.393 1.165 1.07 1.573 2.397 1.631 3.762.233 3.651-.349 7.34-1.747 10.88-1.456 3.762-2.505 6.933-4.252 10.695l-.583 1.033c-.815 1.365-2.504 4.684-3.378 6.27-.175.11-.64.848-.874.221 1.049-1.254 2.214-4.057 3.262-5.938z"/><path d="M57.255 80.124c.525-1.66 2.097-3.135 4.31-4.13a72.999 72.999 0 015.243-2.14c1.864-.737 3.32-1.807 4.135-3.098a240.265 240.265 0 013.96-5.827c.234-.332.467-.627.7-.959h.058l.058-.037a.491.491 0 010 .406c-1.048 1.77-2.097 3.504-3.087 5.274-1.456 2.582-3.844 4.426-7.339 5.495-2.854.812-5.184 2.213-6.64 3.947a5.514 5.514 0 00-.932 1.991c-.524 2.176 0 4.352.583 6.454.175.59.932 1.107 1.165 1.402-2.913-2.25-2.68-5.348-2.272-8.446l.058-.332zm-46.421 3.283c-.059-.037-.175-.295-.35-.332-1.281-.332-2.155-1.107-2.213-1.955-.117-.885.64-1.475 1.63-1.955 2.796-1.327 5.767-1.143 8.738-.737 3.553.48 7.047 1.18 10.542 1.733 1.98.332 4.135.221 6-.369.116-.037.29 0 .465 0l.117.222c-.99.22-1.922.663-2.913.663a47.112 47.112 0 01-6.057-.258c-3.495-.405-6.99-1.032-10.543-1.401-1.514-.11-3.086 0-4.543.332-.873.147-1.689.664-2.388 1.143-.524.332-.407.811.117 1.254.524.553.99 1.106 1.398 1.66zm68.613-8.815l4.194-5.458 1.456-1.844c.35-.664.699-1.328 1.107-1.992l.757-1.106a16.428 16.428 0 01-1.224 3.135c-1.28 2.139-2.62 4.315-4.193 6.343-.7.922-2.039 1.549-3.087 2.287l-.233.516-.7.037c.06-.11.176-.258.234-.369 0-.037.058-.074.058-.11l-.058.073-.7.553c-4.542 1.881-7.163 4.684-7.047 8.815l-.524-.147c.058-.627.175-1.255.233-1.882.058-1.401.64-2.802 1.69-4.056.29-.295.582-.59.873-.849l.815-.516c.524-.332.99-.7 1.515-.996 1.048-.627 2.155-1.217 3.203-1.807l1.631-.627zM64.303 15.877c2.097 1.586 2.97 3.725 4.194 5.68 1.048 1.623 2.33 3.135 4.194 4.315.174.11.349.258.465.406.059.074.059.147 0 .332-.815-.443-1.63-.922-2.33-1.439a15.117 15.117 0 01-2.504-2.581c-.466-.701-1.223-1.291-2.213-1.734a34.859 34.859 0 01-3.495-1.955l-1.747-1.253c-.816-.517-1.631-1.033-2.388-1.55l-.525-.147.059-.221c.582.11 1.281.073 1.689.295 1.165.664 2.213 1.401 3.32 2.139l3.32 2.213.407.074-.058-.296a83.357 83.357 0 00-2.388-3.393l-.582-.922.582.037zm3.67 16.818c-2.214-.59-4.485-1.033-6.64-1.77-3.379-1.143-6.757-2.36-10.019-3.688-1.165-.443-2.038-1.254-3.028-1.918l.174-.184c.117.036.291.036.35.073 5.591 3.061 11.94 4.98 18.23 6.97.35.148.641.296.933.517zM89.116 63.27c-1.98-.96-4.02-1.918-6-2.877a5.076 5.076 0 01-.99-.664l.291-.221c4.718 2.028 9.436 4.057 14.096 6.122a30.614 30.614 0 012.912 1.623l-.466.553c-2.68-1.29-5.358-2.582-8.038-3.836-.407-.147-.757-.295-1.223-.405l-.466-.259-.116-.036zM43.8 16.836c1.224-.516 2.564-.885 3.67-1.549 1.806-1.18 3.96-2.139 6.349-2.766 1.689-.443 3.262-1.29 4.776-1.955-.64.812-1.573 1.66-2.854 2.029-3.553.959-6.698 2.36-9.843 3.835-.583.259-1.457.185-2.214.259l.117.147zm10.135 34.558l-.64.147c.466-.737.932-1.327 1.34-1.954 1.223-1.402 2.387-2.803 3.61-4.205a251.79 251.79 0 014.777-5.348l.582.222c-2.213 2.508-4.485 4.979-6.698 7.487-1.048 1.143-1.98 2.397-2.97 3.65z"/><path d="M78.224 76.436l.233-.516c1.34-.148 2.62-.332 3.96-.517 3.67-.553 7.165-.073 10.543 1.218-2.446-.259-4.834-.701-7.28-.701-2.447 0-4.952.332-7.456.516zm-20.969 3.688l-.058.332c-3.32.221-6.64.516-9.96.59-2.912.037-5.475-.737-7.572-2.36l.35-.48c4.368 3.098 9.61 2.582 14.852 2.176.758-.037 1.573-.147 2.388-.258zm35.589-56.17l-.408.443-.7.885-.29-.074c.058-.405.174-.811.349-1.217.291-.442.64-.922.99-1.364l2.155-4.684c-.174 2.028-.407 4.02-1.922 5.79l-.174.221zM82.418 59.508l-.292.221c-1.689-.811-2.679-2.029-3.495-3.356-.349-.553-.815-1.107-1.106-1.697-.233-.516-.35-.995-.524-1.512 1.864 2.066 2.504 4.758 5.416 6.344zm56.731 22.128l.291-.258c.641.295 1.281.59 1.864.922 1.339.812 2.563 1.697 3.844 2.545l-.233.184-5.766-3.393zM52.072 7.395l.349.258-6.349 3.651-.175-.184 6.175-3.725zm27.084 51.596l.058.37c-.932 1.364-1.922 2.728-2.854 4.093-.175.184-.35.369-.582.516l-.059.037h-.058c.35-.516.64-1.07 1.048-1.586.758-1.18 1.631-2.286 2.447-3.43zM64.303 15.877l-.64.037c-.758-1.032-1.573-2.065-2.33-3.135l.35-.147 2.62 3.245zm84.165 70.553c1.514.554 3.087 1.107 4.601 1.697.175.074.292.222.466.37-1.165-.37-2.271-.701-3.436-1.07-.583-.185-1.107-.443-1.689-.664l.058-.332zM46.014 28.27l-1.98-3.099.29-.258 1.981 3.098-.291.258zm51.198 18.698l1.922-2.619.408.222-2.097 2.582-.233-.185zM44.267 24.913l-.292.258-1.398-3.208c.408.627.758 1.254 1.165 1.88.233.332.35.701.525 1.07zM91.853 6.325v.332l-3.67-1.217.117-.221 3.553 1.106zm53.295 78.557l3.029 1.438-.233.185-2.971-1.402.175-.221zm-39.432 2.84l1.689-.701.233.295-1.806.738-.116-.332zm-59.352-59.6l.116.147.466.295.35.554h-.758l-.524-.812.35-.184zm.174 1.032h.757v.038c0 .223-.058.41-.058.633l-.699-.67zm-30.521 57.83v.298l-.698-.149.058-.149h.64zM99.6 44.576l-.408-.224.292-.26.349-.038-.233.522z"/><path d="M105.716 87.722l.058.335-.641.074.583-.41zm49.042.96l-.116-.112c0 .037-.058.112-.058.149 0 .037.058.037.058.074l.116-.111zm-6.29-2.25v.298l-.524-.26.233-.187.291.15zm-44.208 1.881l.815-.112-.408.335-.407-.223z"/><path d="M103.794 88.796l.524-.521.408.223-.466.224-.466.074zm-57.78-60.524l.291-.26c.059 0 .117.074.117.11l-.408.15z"/><path d="M104.201 88.718l-.407.074.407-.075zM77.7 76.068l.057-.075c0 .038 0 .075-.057.075zm18.056-31.313c-.117-.221-.175-.442-.233-.7l-.291-.185-1.049-1.033c-.932-1.18-1.806-2.323-2.737-3.503-1.049-1.291-2.039-2.619-3.087-3.91-.7-.774-1.282-1.66-2.214-2.286a42.616 42.616 0 00-4.601-2.434c-3.262-.923-6.407-.849-9.087 1.069a58.2 58.2 0 00-4.193 3.172c-1.864 1.623-3.611 3.356-5.359 5.053l.583.22c1.223-1.106 2.446-2.249 3.727-3.319 1.98-1.622 4.02-3.245 6.174-4.757 1.806-1.254 4.078-1.475 6.407-.922 2.971.7 5.417 2.102 6.699 3.946 1.106 1.438 2.096 2.914 3.261 4.315 2.272 2.766 4.66 5.495 6.932 8.225l.64-.664c-.407-.775-.99-1.55-1.572-2.287zM137.46 80.05l-2.68-1.77-.174-.147-3.204-1.992-4.893-3.32-3.902-3.097c-1.107-.627-2.097-1.328-3.087-2.029-2.738-2.323-5.417-4.72-8.096-7.081-.816-.7-1.631-1.365-2.388-2.065-2.621-2.324-5.417-4.5-7.747-6.97-1.398-1.476-2.563-3.025-3.728-4.611l-.64.664c.058.11.174.184.233.295 1.747 2.139 3.436 4.352 5.125 6.528.117.037.35 0 .408.074a556.51 556.51 0 015.067 4.61c.583.442 1.223.811 1.806 1.29 3.436 2.84 6.815 5.68 10.193 8.52l3.378 2.25.99.738 1.515 1.143c.815.553 1.631 1.106 2.504 1.623l11.009 6.86.291-.259-1.98-1.254zM63.72 4.776c-2.97-.848-5.766-.848-8.328.775-1.049.663-2.156 1.254-3.262 1.88l.35.259c1.106-.59 2.213-1.107 3.261-1.734 1.806-1.032 3.786-1.364 5.941-.959.524.111.99.222 1.456.37l1.223-.37c-.174-.073-.407-.184-.64-.22zm29.065 23.095l-.35-.664-.058-.184-.29-.443-.234-.331-3.61-3.357a815.654 815.654 0 00-7.398-5.274c-1.281-.922-2.505-1.88-3.786-2.803-2.33-1.88-4.776-3.725-6.931-5.716-1.748-1.55-3.262-3.172-5.708-4.057l-1.224.369c1.515.48 2.796 1.217 3.786 2.102 1.69 1.512 3.204 3.135 5.01 4.536 4.251 3.246 8.62 6.418 12.93 9.626 1.223.885 2.388 1.844 3.553 2.73.99.884 1.922 1.807 2.912 2.729 1.748 2.36.7 4.24-2.679 4.61l-1.34.221-.058.148 1.165.147c.466-.074.874-.184 1.34-.258 1.864-.295 2.912-1.18 3.028-2.582.059-.516-.058-1.032-.058-1.549z"/></g><defs><clipPath id="bclip0"><path transform="translate(0 .952)" d="M0 0h195.205v88.364H0z"/></clipPath></defs></symbol><symbol viewBox="0 0 20 18" id="phone" xmlns="http://www.w3.org/2000/svg"><g clip-path="url(#cclip0)"><path d="M8.548 10.546C6.783 8.828 6.384 7.11 6.295 6.422a.607.607 0 01.182-.516l1.428-1.39a.608.608 0 00.09-.768L5.721.31a.648.648 0 00-.826-.226L1.243 1.758a.614.614 0 00-.35.616c.191 1.77.983 6.118 5.374 10.392 4.39 4.274 8.857 5.044 10.676 5.23a.638.638 0 00.633-.34l1.72-3.555a.611.611 0 00-.231-.802l-3.532-2.213a.65.65 0 00-.789.086l-1.428 1.39a.644.644 0 01-.53.178c-.707-.088-2.473-.476-4.238-2.194z"/><path d="M15.557 9.62A.63.63 0 0114.92 9c-.003-2.57-2.143-4.652-4.783-4.655a.63.63 0 01-.638-.62.63.63 0 01.638-.622c3.344.004 6.054 2.642 6.058 5.897a.63.63 0 01-.638.62z"/><path d="M18.746 9.62a.63.63 0 01-.638-.62c-.005-4.283-3.57-7.754-7.971-7.759a.63.63 0 01-.638-.62.63.63 0 01.638-.621c5.104.005 9.24 4.032 9.247 9a.612.612 0 01-.187.439.647.647 0 01-.451.182z"/></g><defs><clipPath id="cclip0"><path transform="translate(.89)" d="M0 0h18.493v18H0z"/></clipPath></defs></symbol></svg>