<?xml version="1.0" encoding="utf-8"?><svg xmlns="http://www.w3.org/2000/svg" xmlns:xlink="http://www.w3.org/1999/xlink"><symbol viewBox="0 0 25 25" id="about" xmlns="http://www.w3.org/2000/svg"><path d="M12.5.5C5.611.5 0 5.44 0 11.594c0 3.023 1.387 5.738 3.61 7.75-.337 1.037-1.087 1.855-1.844 2.484-.409.338-.8.627-1.11.906-.154.139-.295.28-.406.453-.111.174-.21.422-.14.688l.062.203.172.11c.644.37 1.447.435 2.312.375.865-.061 1.809-.26 2.735-.516 1.796-.496 3.484-1.203 4.375-1.594.879.184 1.761.297 2.687.297 6.889 0 12.5-4.94 12.5-11.094C24.953 5.504 19.391.5 12.5.5zm0 1c6.41 0 11.453 4.607 11.453 10.156 0 5.545-5.088 10.094-11.5 10.094-.914 0-1.775-.09-2.64-.281l-.172-.047-.141.078c-.836.37-2.604 1.09-4.375 1.578-.887.244-1.77.432-2.531.485-.51.035-.824-.086-1.172-.172.248-.213.588-.467.984-.797.871-.723 1.916-1.729 2.281-3.219l.079-.313-.25-.187C2.312 17.008 1 14.437 1 11.594 1 6.049 6.088 1.5 12.5 1.5zm-.594 4.906c-.15 0-.203.088-.203.188v1.312c0 .15.104.188.203.188h1.188c.15 0 .203-.088.203-.188V6.594c0-.15-.104-.188-.203-.188h-1.188zm.047 3.64c-.15 0-.203.104-.203.204v6.703c0 .15.104.203.203.203v.047h1.14c.151 0 .204-.103.204-.203v-6.75c0-.15-.104-.203-.203-.203h-1.14z"/></symbol><symbol viewBox="0 0 18 9" id="arrow-down" xmlns="http://www.w3.org/2000/svg"><g clip-path="url(#bclip0)"><path d="M17.346.206l-8.084 7.96L1.178.206a.384.384 0 00-.536.01.37.37 0 000 .519l8.352 8.224a.384.384 0 00.537 0L17.884.735a.37.37 0 00.01-.529.384.384 0 00-.547 0z"/><path d="M9.263 9.069a.388.388 0 01-.27-.11L.642.735A.37.37 0 01.65.207c.146-.14.38-.14.527 0l8.084 7.96 8.084-7.96a.384.384 0 01.537-.01.37.37 0 010 .538L9.531 8.959a.383.383 0 01-.268.11z"/></g><defs><clipPath id="bclip0"><path transform="translate(.534)" d="M0 0h17.466v9H0z"/></clipPath></defs></symbol><symbol viewBox="0 0 40 50" id="arrow-down-double" xmlns="http://www.w3.org/2000/svg"><g clip-path="url(#cclip0)"><path d="M19.992 27.107a.694.694 0 01-.462-.17L5.183 14.144a.538.538 0 01.016-.822.71.71 0 01.906 0l13.887 12.381 13.885-12.382a.71.71 0 01.922-.015.538.538 0 01.017.823l-.017.014-14.347 12.793a.694.694 0 01-.46.17z" fill-opacity=".75"/></g><g clip-path="url(#cclip1)"><path d="M19.995 9.069a.473.473 0 01-.308-.11L10.122.736a.338.338 0 01.01-.528.487.487 0 01.605 0l9.258 7.96 9.257-7.96a.486.486 0 01.614-.01.338.338 0 010 .538L20.302 8.96a.473.473 0 01-.307.11z" fill-opacity=".5"/></g><g clip-path="url(#cclip2)"><path d="M38.503 31.435L19.99 48.24 1.475 31.435a.933.933 0 00-1.23.02.738.738 0 000 1.096l19.13 17.362c.34.308.89.308 1.23 0l19.13-17.362a.739.739 0 00.02-1.116.933.933 0 00-1.25 0h-.002z"/><path d="M19.99 50.145a.916.916 0 01-.616-.23L.244 32.552a.739.739 0 01.021-1.116.934.934 0 011.208 0L19.99 48.24l18.514-16.805a.933.933 0 011.23-.02.739.739 0 010 1.136l-19.13 17.362a.916.916 0 01-.614.232z"/></g><defs><clipPath id="cclip0"><path transform="translate(5 13)" d="M0 0h30v14H0z"/></clipPath><clipPath id="cclip1"><path transform="translate(10)" d="M0 0h20v9H0z"/></clipPath><clipPath id="cclip2"><path transform="translate(0 31)" d="M0 0h40v19H0z"/></clipPath></defs></symbol><symbol viewBox="0 0 25 25" id="hospital" xmlns="http://www.w3.org/2000/svg"><path d="M23.828 10.547a.39.39 0 00.39-.39V8.593a.39.39 0 00-.39-.39h-4.297V5.077h.39a.39.39 0 00.392-.39V3.125a.39.39 0 00-.391-.39h-4.527a3.121 3.121 0 00-5.79 0H5.078a.39.39 0 00-.39.39v1.563a.39.39 0 00.39.39h.39v3.125H1.173a.39.39 0 00-.39.39v1.563a.39.39 0 00.39.39h.39V22.98l-.644.551a.39.39 0 00.254.688h22.656a.39.39 0 00.254-.688l-.645-.55V10.546h.391zm-8.23-7.031h3.933v.78h-3.933a3.18 3.18 0 00.027-.39 3.23 3.23 0 00-.027-.39zm3.933 7.03h3.125V22.31l-.43-.368a3.516 3.516 0 00-2.288-.847h-.407V10.547zM12.5 1.564a2.344 2.344 0 110 4.687 2.344 2.344 0 010-4.688zm0 5.468a3.125 3.125 0 002.895-1.953h3.355v16.016h-1.563v-6.64a.39.39 0 00-.39-.392H8.203a.39.39 0 00-.39.391v6.64H6.25V5.079h3.355A3.125 3.125 0 0012.5 7.031zm3.906 7.813v6.25h-3.515v-6.25h3.515zm-4.297 0v6.25H8.594v-6.25h3.515zM5.47 3.516h3.933c-.017.13-.026.26-.027.39.001.13.01.261.027.39H5.47v-.78zM1.563 8.984h3.906v.782H1.563v-.782zm3.906 1.563v10.547h-.406c-.84 0-1.652.3-2.29.847l-.43.368V10.547H5.47zm-3.242 12.89l1.054-.902a2.737 2.737 0 011.782-.66h14.875c.653 0 1.285.235 1.78.66l1.055.902H2.227zM19.53 9.767v-.782h3.907v.782H19.53z"/><path d="M3.125 12.11h1.563v.78H3.125v-.78zm0 2.343h1.563v.781H3.125v-.78zm0 2.344h1.563v.781H3.125v-.781zm0 1.953h1.563v.781H3.125v-.781zm17.188-6.64h1.562v.78h-1.563v-.78zm0 2.343h1.562v.781h-1.563v-.78zm0 2.344h1.562v.781h-1.563v-.781zm0 1.953h1.562v.781h-1.563v-.781zm-6.641-1.172h.781v.781h-.781v-.78zm-3.125 0h.781v.781h-.781v-.78zm3.516-14.062v.78H12.89V5.47h-.782V4.297h-1.171v-.781h1.171V2.344h.782v1.172h1.171zm3.125 4.297H7.813a.39.39 0 00-.391.39v1.563a.39.39 0 00.39.39h9.375a.39.39 0 00.391-.39V8.203a.39.39 0 00-.39-.39zm-.391 1.562H8.203v-.781h8.594v.781zm.391 1.563H7.813a.39.39 0 00-.391.39v1.563a.39.39 0 00.39.39h9.375a.39.39 0 00.391-.39v-1.563a.39.39 0 00-.39-.39zm-.391 1.562H8.203v-.781h8.594v.781z"/></symbol><symbol viewBox="0 0 196 90" id="logo" xmlns="http://www.w3.org/2000/svg"><g clip-path="url(#eclip0)"><path d="M154.758 88.645l-.116-.112c0 .037-.058.112-.058.149 0 .037.058.037.058.074l.116-.111zm-6.29-2.286v.297l-.524-.26.233-.186.291.149zm-20.177-59.216l-3.283 15.438h4.351c.246 0 .413.04.501.118.087.07.131.176.131.317a.61.61 0 01-.224.474c-.14.132-.356.198-.646.198h-9.808c-.246 0-.413-.04-.501-.119a.42.42 0 01-.132-.33.61.61 0 01.211-.46c.149-.132.369-.198.659-.198h4.351l3.045-14.318h-3.204c-.246 0-.413-.04-.501-.118a.423.423 0 01-.131-.33c0-.176.07-.33.21-.461.15-.141.37-.211.66-.211h4.311zm11.984 16.98c-1.451 0-2.642-.457-3.573-1.37-.932-.924-1.398-2.093-1.398-3.508 0-1.151.352-2.32 1.055-3.507a7.612 7.612 0 012.887-2.82c1.231-.695 2.474-1.042 3.731-1.042 1.442 0 2.628.457 3.56 1.37.931.915 1.397 2.053 1.397 3.415 0 1.196-.343 2.382-1.028 3.56-.677 1.178-1.635 2.122-2.874 2.834-1.231.712-2.483 1.068-3.757 1.068zm.25-1.107c1.037 0 2.061-.29 3.072-.87 1.019-.59 1.806-1.367 2.36-2.334.562-.967.843-1.938.843-2.913 0-1.108-.382-2.035-1.146-2.782-.765-.747-1.741-1.12-2.927-1.12a5.59 5.59 0 00-2.386.513 7.23 7.23 0 00-1.952 1.306 6.596 6.596 0 00-1.397 1.911 5.072 5.072 0 00-.554 2.294c0 1.151.382 2.105 1.147 2.861.765.756 1.745 1.134 2.94 1.134zm15.965 1.107c-1.45 0-2.641-.457-3.572-1.37-.932-.924-1.398-2.093-1.398-3.508 0-1.151.352-2.32 1.055-3.507a7.605 7.605 0 012.887-2.82c1.231-.695 2.474-1.042 3.731-1.042 1.441 0 2.628.457 3.56 1.37.931.915 1.397 2.053 1.397 3.415 0 1.196-.343 2.382-1.028 3.56-.677 1.178-1.635 2.122-2.874 2.834-1.231.712-2.483 1.068-3.758 1.068zm.251-1.107c1.037 0 2.061-.29 3.072-.87 1.019-.59 1.806-1.367 2.36-2.334.562-.967.843-1.938.843-2.913 0-1.108-.382-2.035-1.147-2.782-.764-.747-1.74-1.12-2.926-1.12a5.6 5.6 0 00-2.387.513 7.225 7.225 0 00-1.951 1.306 6.596 6.596 0 00-1.397 1.911 5.072 5.072 0 00-.554 2.294c0 1.151.382 2.105 1.147 2.861.765.756 1.745 1.134 2.94 1.134zm14.12-4.258l-1.055 4.93h-2.597c-.246 0-.413-.04-.501-.119a.42.42 0 01-.132-.33.61.61 0 01.211-.46c.149-.132.369-.198.659-.198h1.49l3.032-14.318h-1.477c-.246 0-.413-.04-.501-.118a.423.423 0 01-.131-.33c0-.176.07-.33.211-.461.149-.141.369-.211.659-.211h2.597l-2.175 10.204 5.55-3.955h-.567c-.246 0-.413-.04-.501-.119a.42.42 0 01-.132-.33c0-.175.07-.33.211-.46.15-.141.369-.212.659-.212h3.547c.246 0 .408.035.487.106a.424.424 0 01.159.342.64.64 0 01-.224.475c-.15.132-.37.198-.66.198h-1.278l-5.089 3.612 4.284 5.577h1.279c.246 0 .413.04.501.118.088.07.132.176.132.317a.613.613 0 01-.224.474c-.141.132-.356.198-.646.198h-3.586c-.246 0-.413-.04-.501-.119a.42.42 0 01-.132-.33.61.61 0 01.211-.46c.149-.132.369-.198.659-.198h.765l-3.705-4.891-1.489 1.068zm-39.854 13.459c.105-.5.206-.8.303-.896a.692.692 0 01.501-.224.39.39 0 01.303.132.36.36 0 01.132.276c0 .08-.013.194-.04.343l-.54 2.505c-.062.273-.158.466-.29.58a.603.603 0 01-.422.172.475.475 0 01-.33-.119.38.38 0 01-.118-.277c0-.053.008-.14.026-.264.009-.07.013-.14.013-.21 0-.598-.281-1.112-.844-1.543-.738-.58-1.718-.87-2.94-.87a6.148 6.148 0 00-3.032.79c-.949.52-1.718 1.297-2.307 2.334-.589 1.038-.883 2.062-.883 3.072 0 1.152.365 2.079 1.094 2.782.729.694 1.74 1.042 3.032 1.042.844 0 1.745-.154 2.703-.462.958-.316 1.881-.83 2.768-1.542.22-.176.405-.264.554-.264a.41.41 0 01.303.119c.079.07.119.166.119.29 0 .175-.088.356-.264.54-.624.65-1.56 1.217-2.808 1.7a10.26 10.26 0 01-3.757.726c-1.485 0-2.672-.426-3.56-1.279-.887-.861-1.331-1.977-1.331-3.349 0-1.045.22-2.043.659-2.992.448-.95 1.011-1.754 1.687-2.413a8.467 8.467 0 012.347-1.595c.888-.413 1.877-.62 2.966-.62.853 0 1.609.128 2.268.383a4.283 4.283 0 011.688 1.133zm12.603 10.297l.33-1.595c-1.89 1.353-3.753 2.03-5.59 2.03-1.178 0-2.066-.264-2.663-.791-.598-.528-.897-1.187-.897-1.978 0-1.204.528-2.236 1.582-3.098 1.31-1.08 3.019-1.621 5.129-1.621 1.01 0 2.184.136 3.52.408l.382-1.793a2.04 2.04 0 00.04-.395c0-.51-.203-.919-.607-1.226-.545-.422-1.323-.633-2.333-.633-.853 0-2.162.264-3.929.79a1.73 1.73 0 01-.435.093.395.395 0 01-.29-.118.428.428 0 01-.119-.317.64.64 0 01.185-.448c.132-.132.628-.308 1.489-.527 1.521-.396 2.65-.594 3.389-.594 1.256 0 2.201.277 2.834.83.642.555.963 1.179.963 1.873 0 .228-.027.453-.08.672l-1.555 7.33h1.49c.246 0 .413.04.5.12.088.07.132.175.132.316a.61.61 0 01-.224.474c-.14.132-.356.198-.646.198h-2.597zm1.173-5.51c-.993-.291-2.127-.436-3.401-.436-1.767 0-3.182.409-4.245 1.226-.8.615-1.2 1.319-1.2 2.11 0 .57.207 1.037.62 1.397.422.36 1.068.54 1.938.54.958 0 1.889-.184 2.795-.553.905-.378 1.894-.993 2.966-1.846l.527-2.439zm12.947-5.907l-.594 2.795c1.749-1.319 3.015-2.158 3.797-2.518.791-.37 1.486-.554 2.083-.554.598 0 1.134.202 1.609.606.483.405.725.721.725.95a.672.672 0 01-.211.487.685.685 0 01-.501.211.475.475 0 01-.211-.04c-.053-.034-.145-.135-.277-.302-.237-.308-.461-.519-.672-.633a1.246 1.246 0 00-.62-.172c-.492 0-1.121.194-1.885.58-.756.387-2.136 1.332-4.14 2.835l-1.292 6.064h4.904c.255 0 .427.04.515.12.088.07.131.175.131.316a.61.61 0 01-.224.474c-.149.132-.369.198-.659.198h-8.688c-.246 0-.413-.035-.501-.106a.405.405 0 01-.132-.316c0-.176.071-.325.211-.448.141-.132.356-.198.646-.198h2.677l1.964-9.229h-2.044c-.246 0-.413-.04-.5-.118a.405.405 0 01-.132-.317c0-.184.07-.342.211-.474.149-.14.369-.211.659-.211h3.151zm22.28 5.972h-11.285c-.027.273-.04.479-.04.62 0 1.204.409 2.197 1.226 2.98.818.781 1.925 1.173 3.323 1.173.817 0 1.705-.132 2.663-.396.958-.273 1.779-.637 2.465-1.094.202-.132.365-.198.488-.198.114 0 .211.044.29.132a.426.426 0 01.118.316c0 .158-.07.308-.21.448-.405.431-1.213.857-2.426 1.28a11.412 11.412 0 01-3.692.619c-1.617 0-2.918-.48-3.902-1.437-.976-.958-1.463-2.175-1.463-3.652 0-.976.211-1.894.632-2.755a7.303 7.303 0 011.662-2.242 9.002 9.002 0 012.386-1.555 7.16 7.16 0 012.953-.607c1.512 0 2.725.444 3.639 1.332.922.888 1.384 2.021 1.384 3.401 0 .457-.07 1.002-.211 1.635zm-.897-1.12c.044-1.213-.316-2.207-1.081-2.98-.773-.765-1.81-1.147-3.111-1.147-1.266 0-2.448.373-3.546 1.12a6.508 6.508 0 00-2.413 3.006h10.151zM16.017 86.984c3.903-.406 7.63.074 11.242 1.107 5.126 1.475 10.484 1.88 15.901 1.696 6.524-.184 13.105.148 19.512.959 6.349.775 12.698.738 19.105.406 4.834-.258 9.727-.59 14.561-1.07 2.214-.221 4.31-.848 6.407-1.328.291-.073.583-.11.816-.147l.116.258c-.291.148-.641.258-.932.369a53.152 53.152 0 01-12.057 2.065c-5.3.406-10.659.701-16.017.96-5.126.257-10.193-.407-15.26-.96a155.33 155.33 0 00-17.59-.774c-5.36.037-10.718-.701-15.552-2.176-3.029-.922-6.174-1.439-9.494-1.07-.233 0-.466 0-.7-.037l-.058-.258zm93.892-11.765l-6.523-4.536-1.223-.664c-1.049-.738-2.097-1.476-3.145-2.176l.466-.553c2.621 1.622 5.358 3.171 7.863 4.868 2.329 1.586 4.485 3.32 6.756 4.979 1.281.959 2.796 1.77 4.019 2.766.932.737 1.631 1.549 2.097 2.434.757 1.586 1.398 3.172 1.864 4.795.64 2.323 2.563 3.688 5.475 4.278 3.844.774 7.572 1.696 11.066 3.245 3.204 1.402 6.64 1.439 10.135.701 1.922-.406 3.844-.7 5.825-.885-.233.11-.466.221-.757.295-2.738.516-5.476 1.143-8.213 1.512-2.563.369-5.009-.074-7.281-1.032-3.378-1.365-7.047-2.36-10.892-2.988-3.611-.627-5.882-2.36-6.756-5.126a70.502 70.502 0 01-1.107-3.578c-.582-2.065-2.504-3.356-4.543-4.61l-.874-.443-4.252-3.282zM45.606 58.18l-4.543 5.643c-1.223 1.586-2.563 3.172-3.611 4.831-1.631 2.619-1.573 5.2.757 7.635.583.627 1.107 1.29 1.69 1.917l-.35.48c-2.155-1.992-4.485-3.983-4.194-6.786a8.108 8.108 0 011.049-3.615c1.397-2.212 3.145-4.278 4.776-6.417 1.63-2.139 3.203-4.389 5.125-6.454 2.155-2.36 3.67-4.942 4.485-7.635 1.049-3.208.64-6.417-.291-9.552-.699-2.213-1.631-4.425-2.446-6.638h.582c2.854 5.569 4.893 11.212 3.145 17.297-.932 1.77-1.805 3.614-2.912 5.31-.932 1.365-2.155 2.656-3.262 3.984zm57.372-20.58l1.049-1.991.233-.59c1.223-2.73 2.679-5.975 3.378-9.184.99-2.176.699-2.36 1.281-4.61.699-2.619.408-4.204.466-6.602.117-3.208-4.019-6.011-7.048-6.38-2.446-.295-4.892-.59-7.338-.922-1.049-.148-2.097-.406-3.204-.59v-.332c2.796.295 5.592.627 8.387.885 3.553.258 6.757 1.512 8.737 3.393 1.165 1.07 1.573 2.397 1.631 3.762.233 3.651-.349 7.34-1.747 10.88-1.456 3.762-2.505 6.933-4.252 10.695l-.583 1.033c-.815 1.365-2.504 4.684-3.378 6.27-.175.11-.64.848-.874.221 1.049-1.254 2.214-4.057 3.262-5.938z"/><path d="M57.255 80.124c.525-1.66 2.097-3.135 4.31-4.13a72.999 72.999 0 015.243-2.14c1.864-.737 3.32-1.807 4.135-3.098a240.265 240.265 0 013.96-5.827c.234-.332.467-.627.7-.959h.058l.058-.037a.491.491 0 010 .406c-1.048 1.77-2.097 3.504-3.087 5.274-1.456 2.582-3.844 4.426-7.339 5.495-2.854.812-5.184 2.213-6.64 3.947a5.514 5.514 0 00-.932 1.991c-.524 2.176 0 4.352.583 6.454.175.59.932 1.107 1.165 1.402-2.913-2.25-2.68-5.348-2.272-8.446l.058-.332zm-46.421 3.283c-.059-.037-.175-.295-.35-.332-1.281-.332-2.155-1.107-2.213-1.955-.117-.885.64-1.475 1.63-1.955 2.796-1.327 5.767-1.143 8.738-.737 3.553.48 7.047 1.18 10.542 1.733 1.98.332 4.135.221 6-.369.116-.037.29 0 .465 0l.117.222c-.99.22-1.922.663-2.913.663a47.112 47.112 0 01-6.057-.258c-3.495-.405-6.99-1.032-10.543-1.401-1.514-.11-3.086 0-4.543.332-.873.147-1.689.664-2.388 1.143-.524.332-.407.811.117 1.254.524.553.99 1.106 1.398 1.66zm68.613-8.815l4.194-5.458 1.456-1.844c.35-.664.699-1.328 1.107-1.992l.757-1.106a16.428 16.428 0 01-1.224 3.135c-1.28 2.139-2.62 4.315-4.193 6.343-.7.922-2.039 1.549-3.087 2.287l-.233.516-.7.037c.06-.11.176-.258.234-.369 0-.037.058-.074.058-.11l-.058.073-.7.553c-4.542 1.881-7.163 4.684-7.047 8.815l-.524-.147c.058-.627.175-1.255.233-1.882.058-1.401.64-2.802 1.69-4.056.29-.295.582-.59.873-.849l.815-.516c.524-.332.99-.7 1.515-.996 1.048-.627 2.155-1.217 3.203-1.807l1.631-.627zM64.303 15.877c2.097 1.586 2.97 3.725 4.194 5.68 1.048 1.623 2.33 3.135 4.194 4.315.174.11.349.258.465.406.059.074.059.147 0 .332-.815-.443-1.63-.922-2.33-1.439a15.117 15.117 0 01-2.504-2.581c-.466-.701-1.223-1.291-2.213-1.734a34.859 34.859 0 01-3.495-1.955l-1.747-1.253c-.816-.517-1.631-1.033-2.388-1.55l-.525-.147.059-.221c.582.11 1.281.073 1.689.295 1.165.664 2.213 1.401 3.32 2.139l3.32 2.213.407.074-.058-.296a83.357 83.357 0 00-2.388-3.393l-.582-.922.582.037zm3.67 16.818c-2.214-.59-4.485-1.033-6.64-1.77-3.379-1.143-6.757-2.36-10.019-3.688-1.165-.443-2.038-1.254-3.028-1.918l.174-.184c.117.036.291.036.35.073 5.591 3.061 11.94 4.98 18.23 6.97.35.148.641.296.933.517zM89.116 63.27c-1.98-.96-4.02-1.918-6-2.877a5.076 5.076 0 01-.99-.664l.291-.221c4.718 2.028 9.436 4.057 14.096 6.122a30.614 30.614 0 012.912 1.623l-.466.553c-2.68-1.29-5.358-2.582-8.038-3.836-.407-.147-.757-.295-1.223-.405l-.466-.259-.116-.036zM43.8 16.836c1.224-.516 2.564-.885 3.67-1.549 1.806-1.18 3.96-2.139 6.349-2.766 1.689-.443 3.262-1.29 4.776-1.955-.64.812-1.573 1.66-2.854 2.029-3.553.959-6.698 2.36-9.843 3.835-.583.259-1.457.185-2.214.259l.117.147zm10.135 34.558l-.64.147c.466-.737.932-1.327 1.34-1.954 1.223-1.402 2.387-2.803 3.61-4.205a251.79 251.79 0 014.777-5.348l.582.222c-2.213 2.508-4.485 4.979-6.698 7.487-1.048 1.143-1.98 2.397-2.97 3.65z"/><path d="M78.224 76.436l.233-.516c1.34-.148 2.62-.332 3.96-.517 3.67-.553 7.165-.073 10.543 1.218-2.446-.259-4.834-.701-7.28-.701-2.447 0-4.952.332-7.456.516zm-20.969 3.688l-.058.332c-3.32.221-6.64.516-9.96.59-2.912.037-5.475-.737-7.572-2.36l.35-.48c4.368 3.098 9.61 2.582 14.852 2.176.758-.037 1.573-.147 2.388-.258zm35.589-56.17l-.408.443-.7.885-.29-.074c.058-.405.174-.811.349-1.217.291-.442.64-.922.99-1.364l2.155-4.684c-.174 2.028-.407 4.02-1.922 5.79l-.174.221zM82.418 59.508l-.292.221c-1.689-.811-2.679-2.029-3.495-3.356-.349-.553-.815-1.107-1.106-1.697-.233-.516-.35-.995-.524-1.512 1.864 2.066 2.504 4.758 5.416 6.344zm56.731 22.128l.291-.258c.641.295 1.281.59 1.864.922 1.339.812 2.563 1.697 3.844 2.545l-.233.184-5.766-3.393zM52.072 7.395l.349.258-6.349 3.651-.175-.184 6.175-3.725zm27.084 51.596l.058.37c-.932 1.364-1.922 2.728-2.854 4.093-.175.184-.35.369-.582.516l-.059.037h-.058c.35-.516.64-1.07 1.048-1.586.758-1.18 1.631-2.286 2.447-3.43zM64.303 15.877l-.64.037c-.758-1.032-1.573-2.065-2.33-3.135l.35-.147 2.62 3.245zm84.165 70.553c1.514.554 3.087 1.107 4.601 1.697.175.074.292.222.466.37-1.165-.37-2.271-.701-3.436-1.07-.583-.185-1.107-.443-1.689-.664l.058-.332zM46.014 28.27l-1.98-3.099.29-.258 1.981 3.098-.291.258zm51.198 18.698l1.922-2.619.408.222-2.097 2.582-.233-.185zM44.267 24.913l-.292.258-1.398-3.208c.408.627.758 1.254 1.165 1.88.233.332.35.701.525 1.07zM91.853 6.325v.332l-3.67-1.217.117-.221 3.553 1.106zm53.295 78.557l3.029 1.438-.233.185-2.971-1.402.175-.221zm-39.432 2.84l1.689-.701.233.295-1.806.738-.116-.332zm-59.352-59.6l.116.147.466.295.35.554h-.758l-.524-.812.35-.184zm.174 1.032h.757v.038c0 .223-.058.41-.058.633l-.699-.67zm-30.521 57.83v.298l-.698-.149.058-.149h.64zM99.6 44.576l-.408-.224.292-.26.349-.038-.233.522z"/><path d="M105.716 87.722l.058.335-.641.074.583-.41zm49.042.96l-.116-.112c0 .037-.058.112-.058.149 0 .037.058.037.058.074l.116-.111zm-6.29-2.25v.298l-.524-.26.233-.187.291.15zm-44.208 1.881l.815-.112-.408.335-.407-.223z"/><path d="M103.794 88.796l.524-.521.408.223-.466.224-.466.074zm-57.78-60.524l.291-.26c.059 0 .117.074.117.11l-.408.15z"/><path d="M104.201 88.718l-.407.074.407-.075zM77.7 76.068l.057-.075c0 .038 0 .075-.057.075zm18.056-31.313c-.117-.221-.175-.442-.233-.7l-.291-.185-1.049-1.033c-.932-1.18-1.806-2.323-2.737-3.503-1.049-1.291-2.039-2.619-3.087-3.91-.7-.774-1.282-1.66-2.214-2.286a42.616 42.616 0 00-4.601-2.434c-3.262-.923-6.407-.849-9.087 1.069a58.2 58.2 0 00-4.193 3.172c-1.864 1.623-3.611 3.356-5.359 5.053l.583.22c1.223-1.106 2.446-2.249 3.727-3.319 1.98-1.622 4.02-3.245 6.174-4.757 1.806-1.254 4.078-1.475 6.407-.922 2.971.7 5.417 2.102 6.699 3.946 1.106 1.438 2.096 2.914 3.261 4.315 2.272 2.766 4.66 5.495 6.932 8.225l.64-.664c-.407-.775-.99-1.55-1.572-2.287zM137.46 80.05l-2.68-1.77-.174-.147-3.204-1.992-4.893-3.32-3.902-3.097c-1.107-.627-2.097-1.328-3.087-2.029-2.738-2.323-5.417-4.72-8.096-7.081-.816-.7-1.631-1.365-2.388-2.065-2.621-2.324-5.417-4.5-7.747-6.97-1.398-1.476-2.563-3.025-3.728-4.611l-.64.664c.058.11.174.184.233.295 1.747 2.139 3.436 4.352 5.125 6.528.117.037.35 0 .408.074a556.51 556.51 0 015.067 4.61c.583.442 1.223.811 1.806 1.29 3.436 2.84 6.815 5.68 10.193 8.52l3.378 2.25.99.738 1.515 1.143c.815.553 1.631 1.106 2.504 1.623l11.009 6.86.291-.259-1.98-1.254zM63.72 4.776c-2.97-.848-5.766-.848-8.328.775-1.049.663-2.156 1.254-3.262 1.88l.35.259c1.106-.59 2.213-1.107 3.261-1.734 1.806-1.032 3.786-1.364 5.941-.959.524.111.99.222 1.456.37l1.223-.37c-.174-.073-.407-.184-.64-.22zm29.065 23.095l-.35-.664-.058-.184-.29-.443-.234-.331-3.61-3.357a815.654 815.654 0 00-7.398-5.274c-1.281-.922-2.505-1.88-3.786-2.803-2.33-1.88-4.776-3.725-6.931-5.716-1.748-1.55-3.262-3.172-5.708-4.057l-1.224.369c1.515.48 2.796 1.217 3.786 2.102 1.69 1.512 3.204 3.135 5.01 4.536 4.251 3.246 8.62 6.418 12.93 9.626 1.223.885 2.388 1.844 3.553 2.73.99.884 1.922 1.807 2.912 2.729 1.748 2.36.7 4.24-2.679 4.61l-1.34.221-.058.148 1.165.147c.466-.074.874-.184 1.34-.258 1.864-.295 2.912-1.18 3.028-2.582.059-.516-.058-1.032-.058-1.549z"/></g><defs><clipPath id="eclip0"><path transform="translate(0 .952)" d="M0 0h195.205v88.364H0z"/></clipPath></defs></symbol><symbol viewBox="0 0 75 44" id="logo-menu" xmlns="http://www.w3.org/2000/svg"><g clip-path="url(#fclip0)"><path d="M74.924 43.666l-.06-.056c0 .019-.029.056-.029.074 0 .019.03.019.03.037l.059-.055zm-3.228-1.138v.148l-.27-.13.12-.093.15.075zm-67.999.311c2.004-.202 3.917.037 5.771.55 2.632.735 5.383.938 8.164.846a67.4 67.4 0 0110.017.477c3.26.386 6.519.367 9.808.202 2.482-.128 4.994-.294 7.476-.532 1.136-.11 2.212-.423 3.289-.662.15-.036.299-.055.419-.073l.06.129c-.15.073-.33.128-.48.183a28.06 28.06 0 01-6.189 1.029c-2.721.202-5.472.349-8.223.477-2.631.129-5.233-.202-7.834-.477a82.218 82.218 0 00-9.031-.386c-2.751.018-5.502-.349-7.984-1.084-1.555-.459-3.17-.716-4.874-.532-.12 0-.24 0-.359-.018l-.03-.13zM51.9 36.98l-3.349-2.258-.628-.33a82.495 82.495 0 00-1.614-1.084l.239-.276c1.345.808 2.75 1.58 4.037 2.424 1.196.79 2.302 1.653 3.468 2.48.658.477 1.436.881 2.064 1.377.478.367.837.771 1.076 1.212.389.79.718 1.58.957 2.387.329 1.157 1.316 1.837 2.81 2.13 1.974.386 3.888.846 5.682 1.617 1.645.698 3.41.716 5.203.349a26.857 26.857 0 012.99-.441c-.12.055-.239.11-.388.147-1.406.257-2.811.57-4.216.753-1.316.184-2.572-.037-3.738-.514-1.735-.68-3.618-1.176-5.592-1.488-1.854-.312-3.02-1.175-3.469-2.553a34.201 34.201 0 01-.568-1.78c-.299-1.03-1.286-1.672-2.332-2.296l-.449-.22L51.9 36.98zm-33.012-8.484l-2.333 2.81c-.627.79-1.315 1.58-1.854 2.406-.837 1.304-.807 2.59.39 3.801.298.312.567.643.866.955l-.179.239c-1.106-.992-2.303-1.983-2.153-3.38.03-.624.21-1.23.538-1.799.718-1.102 1.615-2.13 2.452-3.195.838-1.066 1.645-2.186 2.632-3.214 1.106-1.175 1.884-2.461 2.302-3.802.538-1.597.33-3.195-.15-4.756-.358-1.102-.837-2.204-1.255-3.306h.299c1.465 2.773 2.512 5.583 1.614 8.613-.478.882-.926 1.8-1.495 2.645-.478.68-1.106 1.322-1.674 1.983zm29.454-10.247l.538-.992.12-.294c.628-1.359 1.375-2.975 1.734-4.573.508-1.083.359-1.175.658-2.295.359-1.304.21-2.094.24-3.288.059-1.597-2.064-2.993-3.62-3.177-1.255-.147-2.51-.293-3.767-.459-.538-.073-1.076-.202-1.644-.294v-.165c1.435.147 2.87.312 4.306.44 1.824.13 3.468.754 4.485 1.69.598.533.807 1.194.837 1.874.12 1.818-.18 3.654-.897 5.417-.748 1.873-1.286 3.453-2.183 5.326l-.299.514c-.418.68-1.286 2.332-1.734 3.122-.09.055-.33.423-.449.11.539-.624 1.137-2.02 1.675-2.956z"/><path d="M24.868 39.423c.27-.826 1.077-1.56 2.213-2.057a38.117 38.117 0 012.691-1.065c.957-.367 1.705-.9 2.123-1.542.658-.974 1.346-1.947 2.034-2.902.12-.165.239-.312.358-.478h.03l.03-.018c.03.073.03.147 0 .202-.538.882-1.076 1.745-1.585 2.626-.747 1.286-1.973 2.204-3.767 2.737-1.466.404-2.662 1.102-3.41 1.965a2.71 2.71 0 00-.478.991c-.269 1.084 0 2.167.3 3.214.09.294.478.551.598.698-1.496-1.12-1.376-2.663-1.167-4.205l.03-.166zM1.036 41.058c-.03-.019-.09-.147-.18-.166-.658-.165-1.106-.55-1.136-.973-.06-.44.329-.735.837-.973 1.436-.661 2.96-.57 4.486-.368 1.824.24 3.618.588 5.412.863 1.017.166 2.123.11 3.08-.183.06-.019.15 0 .24 0l.059.11c-.508.11-.987.33-1.495.33a24.936 24.936 0 01-3.11-.128c-1.794-.202-3.588-.514-5.412-.698a8.256 8.256 0 00-2.333.165c-.448.074-.867.331-1.226.57-.269.165-.21.404.06.624.27.276.508.551.718.827zm35.224-4.389l2.154-2.718.747-.919c.18-.33.36-.66.568-.991l.39-.551a8.03 8.03 0 01-.629 1.56c-.658 1.066-1.345 2.15-2.153 3.16-.359.459-1.046.77-1.585 1.138l-.12.257-.358.018c.03-.055.09-.128.12-.183 0-.019.03-.037.03-.055l-.03.036-.36.276c-2.332.936-3.677 2.332-3.617 4.39l-.27-.074c.03-.313.09-.625.12-.937.03-.698.329-1.396.867-2.02.15-.147.3-.294.449-.422l.418-.258c.27-.165.509-.348.778-.495.538-.313 1.106-.606 1.644-.9l.838-.313zM28.487 7.432c1.076.79 1.525 1.855 2.153 2.828.538.808 1.196 1.561 2.153 2.149.09.055.18.128.24.202.029.036.029.073 0 .165-.42-.22-.838-.46-1.197-.716a7.639 7.639 0 01-1.286-1.286c-.239-.349-.628-.642-1.136-.863a18.064 18.064 0 01-1.794-.973l-.897-.625a43.771 43.771 0 01-1.226-.771l-.27-.073.03-.11c.3.054.658.036.868.146.598.33 1.136.698 1.704 1.065l1.704 1.102.21.037-.03-.147a41.521 41.521 0 00-1.226-1.69l-.3-.459.3.019zm1.883 8.374c-1.136-.294-2.302-.514-3.408-.881a93.312 93.312 0 01-5.143-1.837c-.598-.22-1.047-.624-1.555-.955l.09-.092c.06.019.149.019.179.037 2.87 1.524 6.13 2.48 9.36 3.471.179.074.328.147.478.257zM41.225 31.03c-1.017-.477-2.063-.954-3.08-1.432a2.606 2.606 0 01-.508-.33l.15-.11c2.421 1.01 4.843 2.02 7.236 3.048a15.85 15.85 0 011.495.808l-.24.275c-1.375-.642-2.75-1.285-4.126-1.91-.21-.073-.389-.147-.628-.202l-.24-.128-.059-.019zM17.961 7.91c.628-.258 1.316-.441 1.884-.772.927-.588 2.033-1.065 3.26-1.377.867-.22 1.674-.643 2.451-.974-.329.404-.807.827-1.465 1.01-1.824.478-3.439 1.176-5.053 1.91-.3.129-.748.092-1.137.129l.06.073zm5.203 17.207l-.329.073c.24-.367.478-.66.688-.973.628-.698 1.226-1.396 1.854-2.093.807-.9 1.614-1.782 2.452-2.663l.299.11c-1.137 1.249-2.303 2.48-3.44 3.728-.537.57-1.016 1.194-1.524 1.818z"/><path d="M35.633 37.587l.12-.257c.687-.074 1.345-.166 2.033-.258 1.884-.275 3.678-.036 5.412.607-1.256-.129-2.482-.35-3.738-.35-1.256 0-2.541.166-3.827.258zm-10.765 1.836l-.03.165c-1.704.11-3.408.258-5.113.294-1.495.019-2.81-.367-3.887-1.175l.18-.239c2.242 1.543 4.933 1.286 7.624 1.084.39-.019.808-.074 1.226-.129zm18.271-27.969l-.21.22-.359.44-.15-.036c.03-.202.09-.404.18-.606.15-.22.33-.459.509-.68l1.106-2.332c-.09 1.01-.21 2.002-.987 2.884l-.09.11zm-5.353 17.703l-.15.11c-.867-.404-1.375-1.01-1.794-1.67-.18-.276-.419-.552-.568-.846-.12-.257-.18-.495-.27-.753.958 1.029 1.287 2.37 2.782 3.16zm29.125 11.019l.15-.129c.329.147.657.294.956.46.688.404 1.316.844 1.974 1.267l-.12.092-2.96-1.69zM22.207 3.208l.18.128-3.26 1.819-.09-.092 3.17-1.855zM36.111 28.9l.03.184c-.478.68-.986 1.359-1.465 2.038-.09.092-.18.184-.299.257l-.03.019h-.03c.18-.257.33-.533.539-.79.388-.588.837-1.139 1.255-1.708zM28.487 7.432l-.329.018c-.389-.514-.807-1.028-1.196-1.56l.18-.074 1.345 1.616zm43.208 35.132c.777.275 1.585.55 2.362.844.09.037.15.11.24.184-.599-.184-1.167-.349-1.765-.533-.299-.091-.568-.22-.867-.33l.03-.165zM19.097 13.602L18.08 12.06l.15-.129 1.016 1.543-.15.128zm26.283 9.311l.988-1.304.209.11-1.076 1.286-.12-.092zM18.2 11.931l-.15.129-.717-1.598c.21.312.389.624.598.937.12.165.18.349.27.532zm24.43-9.256v.166l-1.884-.606.06-.11 1.824.55zm27.361 39.117l1.555.716-.12.092-1.525-.698.09-.11zm-20.244 1.414l.867-.349.12.147-.927.367-.06-.165zm-30.47-29.677l.06.073.24.147.178.276h-.388l-.27-.404.18-.092zm.089.514h.389v.019c0 .111-.03.204-.03.315l-.359-.334zM3.697 42.839v.148l-.36-.074.03-.074h.33zm42.911-21.117l-.21-.111.15-.13.18-.019-.12.26z"/><path d="M49.747 43.206l.03.167-.329.037.3-.204zm25.177.478l-.06-.055c0 .018-.029.055-.029.074 0 .018.03.018.03.037l.059-.056zm-3.228-1.12v.148l-.27-.13.12-.092.15.074zm-22.697.936l.419-.055-.21.167L49 43.5z"/><path d="M48.76 43.741l.269-.26.21.112-.24.111-.24.037zM19.098 13.604l.15-.13c.03 0 .059.037.059.055l-.21.075zM48.97 43.702l-.21.037.21-.037zm-13.606-6.3l.029-.036c0 .018 0 .036-.029.036zm9.269-15.591a1.32 1.32 0 01-.12-.349l-.149-.091-.538-.514c-.478-.588-.927-1.157-1.405-1.745-.538-.643-1.047-1.304-1.585-1.947-.359-.386-.658-.826-1.136-1.138a22.113 22.113 0 00-2.363-1.213c-1.674-.459-3.289-.422-4.665.533a29.794 29.794 0 00-2.152 1.58c-.957.808-1.854 1.67-2.751 2.515l.299.11c.627-.55 1.255-1.12 1.913-1.652 1.017-.808 2.064-1.616 3.17-2.37.927-.624 2.093-.734 3.29-.458 1.524.349 2.78 1.046 3.438 1.965.568.716 1.077 1.45 1.675 2.148 1.166 1.378 2.392 2.737 3.558 4.096l.329-.33c-.21-.387-.509-.772-.808-1.14zm21.411 17.575l-1.375-.881-.09-.074-1.644-.991-2.512-1.653-2.004-1.543c-.568-.312-1.076-.66-1.584-1.01-1.406-1.157-2.781-2.35-4.157-3.526-.418-.349-.837-.68-1.226-1.028-1.346-1.157-2.78-2.24-3.977-3.471-.718-.735-1.316-1.506-1.914-2.296l-.329.33c.03.056.09.093.12.148.897 1.065 1.764 2.167 2.631 3.25.06.019.18 0 .21.037.867.753 1.734 1.524 2.601 2.296.3.22.628.404.927.642 1.765 1.415 3.499 2.829 5.233 4.243l1.734 1.12.509.367.777.57c.419.275.838.55 1.286.808l5.652 3.415.15-.128-1.017-.625zM28.188 1.904c-1.525-.422-2.96-.422-4.276.386-.538.33-1.107.624-1.675.936l.18.129c.568-.294 1.136-.551 1.674-.863.927-.515 1.944-.68 3.05-.478.27.055.509.11.748.184l.628-.184c-.09-.037-.21-.092-.33-.11zm14.92 11.5l-.179-.33-.03-.092-.15-.22-.12-.166-1.853-1.671a418.049 418.049 0 00-3.798-2.626c-.657-.46-1.285-.937-1.943-1.396-1.196-.937-2.452-1.855-3.559-2.847-.897-.77-1.674-1.579-2.93-2.02l-.628.184c.777.239 1.435.606 1.944 1.047.867.753 1.644 1.56 2.571 2.259 2.183 1.616 4.426 3.195 6.639 4.793.627.44 1.226.918 1.824 1.359.508.44.986.9 1.495 1.359.897 1.175.359 2.112-1.376 2.295l-.688.11-.03.074.599.073c.239-.036.448-.091.687-.128.957-.147 1.495-.588 1.555-1.286.03-.257-.03-.514-.03-.77z"/></g><defs><clipPath id="fclip0"><path d="M0 0h75v44H0z"/></clipPath></defs></symbol><symbol viewBox="0 0 25 20" id="mail" xmlns="http://www.w3.org/2000/svg"><g clip-path="url(#gclip0)"><path d="M16.572 10.239L25 16.4V3.818l-8.428 6.421zM0 3.818V16.4l8.428-6.161L0 3.818zM23.438.153H1.563C.782.153.163.826.046 1.691L12.5 11.179 24.953 1.69C24.836.826 24.217.153 23.438.153zM15.14 11.33l-2.21 1.684a.707.707 0 01-.43.148.707.707 0 01-.43-.148l-2.21-1.686-9.81 7.175c.12.858.736 1.525 1.512 1.525h21.875c.777 0 1.392-.666 1.513-1.525l-9.81-7.173z"/></g><defs><clipPath id="gclip0"><path d="M0 0h25v20H0z"/></clipPath></defs></symbol><symbol viewBox="0 0 25 25" id="news" xmlns="http://www.w3.org/2000/svg"><path d="M19.208 13.17h-8.385a.366.366 0 000 .732h8.385a.366.366 0 100-.732zm0 1.578h-8.385a.366.366 0 000 .732h8.385a.366.366 0 000-.732zm0 1.578h-8.385a.366.366 0 100 .733h8.385a.366.366 0 000-.733zm0 1.579h-8.385a.366.366 0 000 .732h8.385a.366.366 0 100-.732zm0 1.578h-8.385a.366.366 0 000 .732h8.385a.366.366 0 100-.732zm0 1.578h-8.385a.366.366 0 100 .733h8.385a.366.366 0 000-.733zM1.944 23.372h17.264a.366.366 0 100-.732H1.944a.366.366 0 000 .732zm-.366-1.944c0 .202.164.366.366.366H8.85a.366.366 0 00.366-.366v-7.892a.366.366 0 00-.366-.366H1.944a.366.366 0 00-.366.366v7.892zm.733-7.526h6.173v7.16H2.31v-7.16zm17.263-8.949a.366.366 0 00-.366-.366H1.944a.366.366 0 00-.366.366v6.61c0 .202.164.366.366.366h17.264a.366.366 0 00.366-.366v-6.61zm-.732 6.244H2.31V5.32h16.53v5.877z"/><path d="M3.39 10.35a.366.366 0 00.366-.366V7.713l1.663 2.408c.11.159.293.227.465.173.177-.055.291-.223.291-.43l-.032-3.336a.366.366 0 00-.366-.362h-.004a.366.366 0 00-.362.37l.022 2.317L3.691 6.33a.366.366 0 00-.668.208v3.446c0 .203.164.367.367.367zm3.967 0h1.455a.366.366 0 000-.732H7.724v-.994h.981a.366.366 0 000-.732h-.981v-.994h1.088a.366.366 0 000-.732H7.357a.366.366 0 00-.366.366v3.452c0 .203.164.367.366.367zm9.367 0c.696 0 1.28-.441 1.388-1.05.082-.455-.128-1.05-.962-1.358-.434-.16-.838-.335-.95-.385a.303.303 0 01-.116-.29c.01-.074.062-.253.32-.33.522-.157.999.222 1.01.231a.366.366 0 00.47-.562c-.031-.026-.782-.645-1.691-.37-.452.136-.772.49-.835.927-.058.407.118.799.461 1.022.016.01.033.02.05.027.02.01.494.22 1.028.417.352.13.533.328.494.543-.039.22-.3.446-.667.446-.362 0-.71-.146-.932-.391a.366.366 0 00-.543.492c.359.395.91.632 1.475.632zm-6.02-.346a.444.444 0 00.433.347h.003a.444.444 0 00.417-.302l.003-.01.701-2.263.698 2.264a.445.445 0 00.423.31h.003a.444.444 0 00.43-.347l.675-3.393a.366.366 0 10-.718-.143l-.45 2.263-.711-2.306h-.002a.365.365 0 00-.698.006l-.712 2.3-.45-2.27a.366.366 0 00-.718.143l.673 3.4z"/><path d="M23.72 0h-6.797a.366.366 0 000 .732h5.562a1.32 1.32 0 00-.141.596v8.316a.366.366 0 10.732 0V1.328a.605.605 0 01.607-.596c.309.004.584.286.585.62v21.431c0 .819-.7 1.485-1.558 1.485-.859 0-1.557-.666-1.557-1.485v-2.765h.57c.746 0 1.353-.607 1.353-1.352v-7.314a.366.366 0 00-.732 0v7.314a.62.62 0 01-.62.62h-.571V4.41c0-.746-.607-1.353-1.353-1.353H2.755v-1.73c0-.328.267-.596.595-.596h11.864a.366.366 0 000-.732H3.35a1.33 1.33 0 00-1.328 1.328v1.73h-.67A1.357 1.357 0 000 4.411v10.797a.366.366 0 00.732 0V4.412a.62.62 0 01.62-.62H19.8a.62.62 0 01.62.62v18.372c0 .57.224 1.091.59 1.485H2.29c-.859 0-1.558-.666-1.558-1.485v-5.866a.366.366 0 10-.732 0v5.866C0 24.006 1.027 25 2.29 25h20.42c1.263 0 2.29-.994 2.29-2.217V1.351c0-.732-.562-1.325-1.28-1.35z"/></symbol><symbol viewBox="0 0 20 18" id="phone" xmlns="http://www.w3.org/2000/svg"><g clip-path="url(#iclip0)"><path d="M8.548 10.546C6.783 8.828 6.384 7.11 6.295 6.422a.607.607 0 01.182-.516l1.428-1.39a.608.608 0 00.09-.768L5.721.31a.648.648 0 00-.826-.226L1.243 1.758a.614.614 0 00-.35.616c.191 1.77.983 6.118 5.374 10.392 4.39 4.274 8.857 5.044 10.676 5.23a.638.638 0 00.633-.34l1.72-3.555a.611.611 0 00-.231-.802l-3.532-2.213a.65.65 0 00-.789.086l-1.428 1.39a.644.644 0 01-.53.178c-.707-.088-2.473-.476-4.238-2.194z"/><path d="M15.557 9.62A.63.63 0 0114.92 9c-.003-2.57-2.143-4.652-4.783-4.655a.63.63 0 01-.638-.62.63.63 0 01.638-.622c3.344.004 6.054 2.642 6.058 5.897a.63.63 0 01-.638.62z"/><path d="M18.746 9.62a.63.63 0 01-.638-.62c-.005-4.283-3.57-7.754-7.971-7.759a.63.63 0 01-.638-.62.63.63 0 01.638-.621c5.104.005 9.24 4.032 9.247 9a.612.612 0 01-.187.439.647.647 0 01-.451.182z"/></g><defs><clipPath id="iclip0"><path transform="translate(.89)" d="M0 0h18.493v18H0z"/></clipPath></defs></symbol><symbol viewBox="0 0 25 25" id="support" xmlns="http://www.w3.org/2000/svg"><path d="M23.797 10.938h-1.922V8.594h1.922a.39.39 0 00.34-.196.408.408 0 000-.39 3.509 3.509 0 00-4.82-1.274l.976-1.629a.396.396 0 00-.059-.476l-2.207-2.207a.396.396 0 00-.476-.059L15.395 3.66a.238.238 0 01-.22 0 .207.207 0 01-.124-.137l-.61-2.445a.39.39 0 00-.379-.297h-3.124a.39.39 0 00-.38.297L9.95 3.523a.207.207 0 01-.125.137.19.19 0 00-.027.012.215.215 0 01-.188-.012L7.45 2.363a.396.396 0 00-.476.059L4.766 4.629a.396.396 0 00-.059.476l.98 1.63A3.515 3.515 0 00.864 8.007a.408.408 0 000 .39.39.39 0 00.34.196h1.922v2.344H1.203a.39.39 0 00-.34.195.408.408 0 000 .39 3.51 3.51 0 004.282 1.532 3.203 3.203 0 00-.067.613c0 .032.004.063.012.094l.785 3.14a7.632 7.632 0 001.938 3.035v3.11a1.175 1.175 0 001.171 1.172h7.032a1.175 1.175 0 001.172-1.172v-2.98a7.285 7.285 0 002.296-3.489.226.226 0 00.012-.055l.57-3.398c.333.104.68.156 1.028.156a3.519 3.519 0 003.043-1.758.407.407 0 000-.39.39.39 0 00-.34-.195zM5.535 4.965L7.31 3.19l1.906 1.141a.98.98 0 00.89.055c.008 0 .012-.004.02-.008a.979.979 0 00.582-.668l.535-2.148h2.516l.535 2.148a.979.979 0 00.582.668c.008.004.012.008.02.008a.99.99 0 00.895-.055l1.901-1.14 1.774 1.773-1.059 1.762a1.15 1.15 0 00-.437-.086h-.782c-.289 0-.567.109-.78.304a1.162 1.162 0 00-.782-.304h-.031a4.682 4.682 0 00-7.356 1.562H7.055a4.067 4.067 0 00-.305-.5.995.995 0 00-.074-.836l-1.14-1.902zM18.36 7.813v3.906a.39.39 0 01-.39.39h-.782a.39.39 0 01-.39-.39V7.813a.39.39 0 01.39-.391h.782a.39.39 0 01.39.39zm-2.343 0v3.906a.39.39 0 01-.391.39h-.781a.391.391 0 01-.39-.39V7.813a.39.39 0 01.39-.391h.781a.39.39 0 01.39.39zM13.28 6.64h-.78c-.29 0-.568.109-.781.304a1.162 1.162 0 00-.781-.304h-.153a3.929 3.929 0 013.598.093 1.2 1.2 0 00-.32.211 1.162 1.162 0 00-.782-.304zm.39 1.171v2.801a1.279 1.279 0 00-.39-.066h-1.17V7.812a.39.39 0 01.391-.39h.781a.39.39 0 01.39.39zm-2.343 0v2.735H9.766V7.812a.39.39 0 01.39-.39h.781a.39.39 0 01.391.39zM3.906 12.5a2.747 2.747 0 01-1.914-.781h1.524a.39.39 0 00.39-.39V8.202a.39.39 0 00-.39-.39H1.992a2.75 2.75 0 011.914-.782 2.718 2.718 0 012.532 1.707.39.39 0 00.363.246h2.183v1.563H6.801a.382.382 0 00-.36.242c-.066.164-.149.32-.246.469-.214.18-.403.39-.562.62a2.72 2.72 0 01-1.727.622zm14.824 3.867a6.668 6.668 0 01-2.19 3.23.382.382 0 00-.134.294v3.156a.39.39 0 01-.39.39H8.984a.39.39 0 01-.39-.39v-3.27a.4.4 0 00-.117-.28c-.438-.427-1.493-1.548-1.848-2.794l-.77-3.082a2.36 2.36 0 011.98-2.293h5.442a.376.376 0 01.39.39 1.953 1.953 0 01-1.952 1.954H8.984v.781h1.246l.122.074c.808.493 1.507.918 1.77 1.973.14.581.14 1.188 0 1.77l.757.18a4.491 4.491 0 000-2.137 3.277 3.277 0 00-1.234-1.86h.074a2.726 2.726 0 002.535-1.726c.177.106.38.163.586.164h.785c.29-.001.568-.11.781-.305.214.195.492.304.782.305h.78a1.168 1.168 0 001.13-.875c.101.144.199.293.285.441l-.652 3.91zm2.364-3.867c-.313 0-.624-.054-.918-.16a.386.386 0 00-.043-.145 3.856 3.856 0 00-.992-1.258V7.86a2.727 2.727 0 013.867-.046h-1.524a.39.39 0 00-.39.39v3.125a.39.39 0 00.39.39h1.524a2.75 2.75 0 01-1.914.782z"/><path d="M22.266 20.703v-3.125a.39.39 0 00-.391-.39h-1.953v.78h1.562v3.126a.39.39 0 00.391.39h2.344v-.78h-1.953zm-2.344.391a.391.391 0 00-.39-.39h-1.563v.78h1.172v2.344a.39.39 0 00.39.39h4.688v-.78h-4.297v-2.344zm-16.406 0v-3.125h1.562v-.782H3.125a.39.39 0 00-.39.391v3.125H.78v.781h2.344a.39.39 0 00.39-.39zm1.562 0v2.343H.781v.782H5.47a.39.39 0 00.39-.39v-2.345h1.172v-.78H5.47a.39.39 0 00-.39.39z"/></symbol></svg>