<?xml version="1.0" encoding="utf-8"?><svg xmlns="http://www.w3.org/2000/svg" xmlns:xlink="http://www.w3.org/1999/xlink"><symbol viewBox="0 0 25 25" id="about" xmlns="http://www.w3.org/2000/svg"><path d="M12.5.5C5.611.5 0 5.44 0 11.594c0 3.023 1.387 5.738 3.61 7.75-.337 1.037-1.087 1.855-1.844 2.484-.409.338-.8.627-1.11.906-.154.139-.295.28-.406.453-.111.174-.21.422-.14.688l.062.203.172.11c.644.37 1.447.435 2.312.375.865-.061 1.809-.26 2.735-.516 1.796-.496 3.484-1.203 4.375-1.594.879.184 1.761.297 2.687.297 6.889 0 12.5-4.94 12.5-11.094C24.953 5.504 19.391.5 12.5.5zm0 1c6.41 0 11.453 4.607 11.453 10.156 0 5.545-5.088 10.094-11.5 10.094-.914 0-1.775-.09-2.64-.281l-.172-.047-.141.078c-.836.37-2.604 1.09-4.375 1.578-.887.244-1.77.432-2.531.485-.51.035-.824-.086-1.172-.172.248-.213.588-.467.984-.797.871-.723 1.916-1.729 2.281-3.219l.079-.313-.25-.187C2.312 17.008 1 14.437 1 11.594 1 6.049 6.088 1.5 12.5 1.5zm-.594 4.906c-.15 0-.203.088-.203.188v1.312c0 .15.104.188.203.188h1.188c.15 0 .203-.088.203-.188V6.594c0-.15-.104-.188-.203-.188h-1.188zm.047 3.64c-.15 0-.203.104-.203.204v6.703c0 .15.104.203.203.203v.047h1.14c.151 0 .204-.103.204-.203v-6.75c0-.15-.104-.203-.203-.203h-1.14z"/></symbol><symbol viewBox="0 0 18 9" id="arrow-down" xmlns="http://www.w3.org/2000/svg"><g clip-path="url(#abclip0)"><path d="M17.346.206l-8.084 7.96L1.178.206a.384.384 0 00-.536.01.37.37 0 000 .519l8.352 8.224a.384.384 0 00.537 0L17.884.735a.37.37 0 00.01-.529.384.384 0 00-.547 0z"/><path d="M9.263 9.069a.388.388 0 01-.27-.11L.642.735A.37.37 0 01.65.207c.146-.14.38-.14.527 0l8.084 7.96 8.084-7.96a.384.384 0 01.537-.01.37.37 0 010 .538L9.531 8.959a.383.383 0 01-.268.11z"/></g><defs><clipPath id="abclip0"><path transform="translate(.534)" d="M0 0h17.466v9H0z"/></clipPath></defs></symbol><symbol viewBox="0 0 40 50" id="arrow-down-double" xmlns="http://www.w3.org/2000/svg"><g clip-path="url(#acclip0)"><path d="M19.992 27.107a.694.694 0 01-.462-.17L5.183 14.144a.538.538 0 01.016-.822.71.71 0 01.906 0l13.887 12.381 13.885-12.382a.71.71 0 01.922-.015.538.538 0 01.017.823l-.017.014-14.347 12.793a.694.694 0 01-.46.17z" fill-opacity=".75"/></g><g clip-path="url(#acclip1)"><path d="M19.995 9.069a.473.473 0 01-.308-.11L10.122.736a.338.338 0 01.01-.528.487.487 0 01.605 0l9.258 7.96 9.257-7.96a.486.486 0 01.614-.01.338.338 0 010 .538L20.302 8.96a.473.473 0 01-.307.11z" fill-opacity=".5"/></g><g clip-path="url(#acclip2)"><path d="M38.503 31.435L19.99 48.24 1.475 31.435a.933.933 0 00-1.23.02.738.738 0 000 1.096l19.13 17.362c.34.308.89.308 1.23 0l19.13-17.362a.739.739 0 00.02-1.116.933.933 0 00-1.25 0h-.002z"/><path d="M19.99 50.145a.916.916 0 01-.616-.23L.244 32.552a.739.739 0 01.021-1.116.934.934 0 011.208 0L19.99 48.24l18.514-16.805a.933.933 0 011.23-.02.739.739 0 010 1.136l-19.13 17.362a.916.916 0 01-.614.232z"/></g><defs><clipPath id="acclip0"><path transform="translate(5 13)" d="M0 0h30v14H0z"/></clipPath><clipPath id="acclip1"><path transform="translate(10)" d="M0 0h20v9H0z"/></clipPath><clipPath id="acclip2"><path transform="translate(0 31)" d="M0 0h40v19H0z"/></clipPath></defs></symbol><symbol viewBox="0 0 70 70" id="brain" xmlns="http://www.w3.org/2000/svg"><g clip-path="url(#adclip0)"><path d="M22.603 38.812a1.367 1.367 0 00-1.68-1.057 1.367 1.367 0 00.618 2.663 1.367 1.367 0 001.062-1.606zM35 0c-.755 0-1.367.612-1.367 1.367v2.735a1.367 1.367 0 002.734 0V1.367C36.367.612 35.755 0 35 0zM20.735 7.557L19.368 5.19A1.367 1.367 0 0017 6.557l1.367 2.368a1.367 1.367 0 102.368-1.368zm-11.81 10.81L6.557 17a1.367 1.367 0 10-1.368 2.367l2.369 1.368a1.367 1.367 0 101.367-2.368zM4.102 33.633H1.367a1.367 1.367 0 000 2.734h2.735a1.367 1.367 0 000-2.734zm5.323 16.133a1.367 1.367 0 00-1.867-.5l-2.369 1.367A1.367 1.367 0 106.557 53l2.368-1.367a1.367 1.367 0 00.5-1.867zm10.809 10.809a1.367 1.367 0 00-1.867.5L17 63.443a1.367 1.367 0 102.367 1.367l1.368-2.368a1.367 1.367 0 00-.5-1.867zM35 64.531c-.755 0-1.367.612-1.367 1.367v2.735a1.367 1.367 0 002.734 0v-2.735c0-.755-.612-1.367-1.367-1.367zm18-1.088l-1.367-2.368a1.367 1.367 0 00-2.368 1.367l1.367 2.369A1.367 1.367 0 1053 63.443zm11.81-12.81l-2.367-1.368a1.367 1.367 0 00-1.368 2.368L63.443 53a1.367 1.367 0 101.367-2.368zm3.823-17h-2.735a1.367 1.367 0 000 2.734h2.735a1.367 1.367 0 000-2.734zM65.31 17.5a1.367 1.367 0 00-1.867-.5l-2.368 1.367a1.367 1.367 0 101.367 2.368l2.369-1.367a1.367 1.367 0 00.5-1.868zM52.5 4.69a1.367 1.367 0 00-1.867.5l-1.368 2.368a1.367 1.367 0 102.368 1.367L53 6.557a1.367 1.367 0 00-.5-1.868z"/><path d="M62.716 31.841c0-4.51-2.929-8.347-6.983-9.716-.817-3.31-3.573-5.817-6.959-6.406a7.25 7.25 0 00-1.897-4.225 7.675 7.675 0 00-5.657-2.47A7.637 7.637 0 0035 12.195a7.637 7.637 0 00-6.22-3.173c-2.159 0-4.22.901-5.657 2.471a7.252 7.252 0 00-1.897 4.222 8.641 8.641 0 00-5.66 3.57c-1.308 1.86-1.802 4.084-1.418 6.254C11 27.2 9.024 30.385 9.024 33.95c0 3.129 1.522 5.978 4.062 7.758-1.461 2.305-1.681 5.079-.549 7.69 1.388 3.2 4.502 5.268 7.932 5.268.266 0 .535-.012.804-.037a7.36 7.36 0 001.832 3.857 7.671 7.671 0 005.675 2.49A7.637 7.637 0 0035 57.804a7.637 7.637 0 006.22 3.172 7.672 7.672 0 005.675-2.49 7.357 7.357 0 001.832-3.857c3.317.298 6.414-1.236 8.19-4.175 1.808-2.99 1.65-6.504-.334-9.227 3.607-1.59 6.133-5.197 6.133-9.386zm-29.083 21.73c0 2.576-2.177 4.671-4.853 4.671a4.93 4.93 0 01-3.65-1.594 4.546 4.546 0 01-1.182-2.654c2.465-.98 3.101-2.65 3.58-3.908.401-1.057.603-1.587 1.747-1.894a1.367 1.367 0 10-.708-2.641c-2.496.669-3.131 2.342-3.596 3.564-.467 1.23-.776 2.043-2.737 2.569l-.006.002h-.004a6.624 6.624 0 01-1.756.246c-2.34 0-4.468-1.422-5.422-3.622-.913-2.105-.514-4.371 1.068-6.061a1.367 1.367 0 00-.41-2.168c-2.434-1.163-3.946-3.512-3.946-6.131 0-2.825 1.759-5.321 4.48-6.36a1.367 1.367 0 00.81-1.71c-.568-1.701-.293-3.532.755-5.022 1.098-1.563 2.848-2.486 4.8-2.535 2.327.005 2.84.933 3.55 2.217.645 1.17 1.53 2.77 3.91 2.77a1.367 1.367 0 000-2.734c-.705 0-.89-.223-1.517-1.359-.695-1.258-1.7-3.075-4.558-3.524a4.563 4.563 0 011.153-2.353 4.934 4.934 0 013.639-1.582c2.676 0 4.853 2.095 4.853 4.67V34.92c-3.21-.312-4.013-1.78-4.996-3.584-.962-1.766-2.159-3.963-5.757-4.343a1.367 1.367 0 10-.288 2.72c2.172.228 2.758 1.304 3.644 2.932.322.589.664 1.215 1.1 1.82-.72.732-1.807 1.49-3.04 2.101a1.367 1.367 0 001.214 2.45c1.532-.76 2.849-1.688 3.795-2.657 1.034.66 2.413 1.147 4.328 1.303v15.91zm20.945-4.531c-1.08 1.787-3.51 3.553-6.802 2.647l-.005-.002-.005-.001c-1.96-.526-2.27-1.339-2.737-2.57-.465-1.221-1.1-2.895-3.596-3.563a1.367 1.367 0 00-.708 2.641c1.145.307 1.346.837 1.747 1.894.479 1.258 1.115 2.929 3.58 3.908a4.545 4.545 0 01-1.181 2.654 4.933 4.933 0 01-3.651 1.594c-2.676 0-4.853-2.095-4.853-4.67v-9.78c0-2.463 1.296-3.688 2.51-4.013 1.504-.403 3.08.38 4.014 1.997a1.367 1.367 0 102.367-1.367c-1.546-2.679-4.395-3.993-7.09-3.272a5.703 5.703 0 00-1.8.84v-21.55c0-2.575 2.176-4.67 4.852-4.67 1.393 0 2.72.577 3.64 1.582a4.566 4.566 0 011.152 2.353c-2.857.45-3.862 2.266-4.557 3.524-.628 1.136-.813 1.359-1.517 1.359a1.367 1.367 0 000 2.734c2.379 0 3.264-1.601 3.91-2.77.709-1.284 1.223-2.212 3.55-2.217 2.283.058 4.28 1.359 5.24 3.269-.059-.001-.117-.005-.176-.005-5.654 0-10.254 4.6-10.254 10.254s4.6 10.254 10.254 10.254c.423 0 .84-.029 1.25-.079.048.082.106.16.174.233 2.149 2.295 1.766 5.013.692 6.79zm-2.116-9.68c-4.146 0-7.52-3.373-7.52-7.519s3.374-7.52 7.52-7.52c4.146 0 7.52 3.374 7.52 7.52 0 4.147-3.374 7.52-7.52 7.52z"/><path d="M56.542 28.325a1.367 1.367 0 00-1.927.163l-3.014 3.57-1.297-.995a1.367 1.367 0 10-1.664 2.17l2.332 1.79a1.365 1.365 0 001.877-.203l3.856-4.569a1.367 1.367 0 00-.163-1.926z"/></g><defs><clipPath id="adclip0"><path d="M0 0h70v70H0z"/></clipPath></defs></symbol><symbol viewBox="0 0 70 70" id="certificate" xmlns="http://www.w3.org/2000/svg"><g clip-path="url(#aeclip0)"><path d="M67.607-.178H2.393C1.073-.178 0 1.072 0 2.607v9.801c0 1.543 2.05 1.543 2.05 0V2.607c0-.22.154-.398.343-.398h65.214c.189 0 .342.178.342.398v58.2c0 .22-.153.398-.342.398h-13.14v-2.483H64.78c.567 0 1.026-.535 1.026-1.194V45.03c0-1.543-2.051-1.543-2.051 0v11.305h-9.288v-5.296l.099.01c.85.087 1.91.196 2.643-.66.733-.854.64-2.088.566-3.079-.08-1.064.006-1.355.708-2.035 1.809-1.75 1.843-3.624 0-5.407-.702-.68-.788-.97-.708-2.035.2-2.67-.871-3.978-3.21-3.739-.912.093-1.16-.007-1.741-.825-1.502-2.11-3.113-2.15-4.643 0-.582.818-.83.919-1.742.825-2.295-.234-3.414 1.02-3.209 3.74.08 1.063-.006 1.354-.708 2.034-1.81 1.75-1.843 3.625 0 5.407.702.68.788.971.708 2.035-.215 2.86.958 3.966 3.307 3.73v5.295H6.245V7.079h57.51v31.586c0 1.543 2.05 1.543 2.05 0V5.885c0-.659-.458-1.193-1.025-1.193H5.22c-.567 0-1.026.534-1.026 1.193v51.643c0 .66.46 1.194 1.026 1.194h41.317v2.483H2.393c-.189 0-.342-.178-.342-.398V18.455c0-1.543-2.051-1.543-2.051 0v42.352c0 1.536 1.073 2.785 2.393 2.785h44.144v5.403c.146.98.633 1.341 1.458 1.082l2.507-1.358 2.507 1.358c.62.335 1.458-.195 1.458-1.082v-5.403h13.14c1.32 0 2.393-1.25 2.393-2.785v-58.2c0-1.536-1.073-2.785-2.393-2.785zM46.26 48.672c-1.027.104-1.077.04-.987-1.154.138-1.832-.224-2.902-1.44-4.078-.833-.806-.832-.931 0-1.737 1.216-1.176 1.578-2.246 1.44-4.078-.09-1.194-.04-1.258.986-1.153 1.575.161 2.493-.264 3.501-1.68.69-.969.795-.969 1.484 0 1.009 1.416 1.926 1.84 3.5 1.68 1.028-.105 1.077-.041.987 1.153-.137 1.832.225 2.901 1.441 4.078.832.805.832.931 0 1.737-1.216 1.176-1.579 2.245-1.44 4.078.09 1.194.04 1.258-.987 1.153-.644-.066-1.375-.14-2.018.17-.622.301-1.06.916-1.483 1.51-.2.28-.563.792-.742.884-.179-.092-.543-.603-.742-.883-.423-.595-.86-1.21-1.483-1.51a3.887 3.887 0 00-2.017-.17zm4.675 17.65a.895.895 0 00-.865 0l-1.482.801V52.428c.487.622 1.087 1.2 1.914 1.2s1.428-.578 1.914-1.2v14.695l-1.481-.802z"/><path d="M13.298 17.07h35.348c1.326 0 1.326-2.388 0-2.388H13.298c-1.326 0-1.326 2.387 0 2.387zm44.43 6.065c0-.66-.46-1.194-1.026-1.194H13.298c-1.326 0-1.326 2.387 0 2.387h43.404c.567 0 1.026-.534 1.026-1.193zm-18.744 7.259c0-.659-.46-1.193-1.026-1.193h-24.66c-1.326 0-1.326 2.387 0 2.387h24.66c.567 0 1.026-.535 1.026-1.194zM25.519 47.03l-1.678.002c-1.075.001-1.667-.332-1.887-1.66-.2-1.212-1.702-1.057-1.977 0-.122.469-.738 1.81-1.275 1.7-.285-.059-.41-.57-.514-.835a11.334 11.334 0 01-.482-1.609c-.54-2.313-.648-4.727-.986-7.084-.195-1.366-1.985-.98-2.014.318-.092 4.132-.672 8.209-1.936 12.082-.47 1.438 1.512 2.06 1.977.635a38.003 38.003 0 001.175-4.575c.16.565.353 1.12.587 1.66.6 1.377 1.82 2.192 3.127 1.58.467-.22.892-.602 1.254-1.067.97 1.303 2.414 1.243 3.76 1.242 2.03-.003 4.06-.01 6.09-.016 1.32-.004 1.322-2.39 0-2.387-1.74.006-3.48.01-5.221.014zm24.983.203c2.209 0 4.005-2.091 4.005-4.661 0-2.57-1.796-4.662-4.005-4.662-2.208 0-4.005 2.091-4.005 4.662 0 2.57 1.797 4.661 4.005 4.661zm0-6.936c1.078 0 1.955 1.02 1.955 2.275 0 1.254-.877 2.274-1.955 2.274-1.077 0-1.954-1.02-1.954-2.274 0-1.255.877-2.275 1.954-2.275z"/></g><defs><clipPath id="aeclip0"><path d="M0 0h70v70H0z"/></clipPath></defs></symbol><symbol viewBox="0 0 16 15" id="clock" xmlns="http://www.w3.org/2000/svg"><path d="M8 0c4.418 0 8 3.358 8 7.5 0 4.142-3.582 7.5-8 7.5s-8-3.358-8-7.5C0 3.358 3.582 0 8 0zM4.542 8.926h3.391c.012 0 .022-.002.034-.003L8 8.926c.306 0 .553-.232.553-.518V3.113c0-.287-.247-.52-.553-.52-.305 0-.553.233-.553.52v4.776H4.542c-.306 0-.554.232-.554.519 0 .286.248.518.554.518z"/></symbol><symbol viewBox="0 0 16 15" id="close" xmlns="http://www.w3.org/2000/svg"><g clip-path="url(#agclip0)"><path d="M8.442 7.5L14.888 1a.59.59 0 000-.828.578.578 0 00-.822 0l-6.446 6.5-6.446-6.5a.578.578 0 00-.822 0 .59.59 0 000 .828l6.446 6.5L.352 14a.59.59 0 000 .828.577.577 0 00.822 0l6.446-6.5 6.446 6.5a.577.577 0 00.822 0 .59.59 0 000-.828L8.442 7.5z" fill-opacity=".5"/></g><defs><clipPath id="agclip0"><path transform="translate(.182)" d="M0 0h14.876v15H0z"/></clipPath></defs></symbol><symbol viewBox="0 0 50 50" id="doctor" xmlns="http://www.w3.org/2000/svg"><path d="M35.68 25.89l-.617-.156a3.91 3.91 0 00-3.813-3.078h-1.563v-.242a6.996 6.996 0 002.344-5.227h.782a2.351 2.351 0 002.343-2.343v-.781a2.333 2.333 0 00-.781-1.735V7.031a5.474 5.474 0 00-5.469-5.468h-3.125a3.898 3.898 0 00-3.383 1.96 2.34 2.34 0 00-1.304-.398H19.53a3.906 3.906 0 00-3.906 3.906v5.297a2.333 2.333 0 00-.781 1.735v.78a2.35 2.35 0 002.344 2.345h.78a6.997 6.997 0 002.345 5.226v.242H18.75a3.911 3.911 0 00-3.813 3.078l-.617.157a8.568 8.568 0 00-6.507 8.336v13.43a.781.781 0 00.78.78h32.813a.781.781 0 00.782-.78v-13.43a8.569 8.569 0 00-6.508-8.336zm-.524 4.579v.851a4.378 4.378 0 00-1.562 0v-.851h1.562zm-3.906-6.25a2.364 2.364 0 011.953 1.047l-.984-.243-2.532-.632v-.172h1.563zM25 26.429l-3.125-1.874v-1.078a6.954 6.954 0 006.25 0v1.078L25 26.43zm.938 3.688L25 30.43l-.938-.313.086-1.094.852-.68.852.68.085 1.094zm3.093-4.281l1.735.437-2.04 3.055-2.359-1.89 2.664-1.602zm4.563-11.773v.78a.781.781 0 01-.782.782h-.78v-2.344h.78a.781.781 0 01.782.781zm-15.625 1.562h-.782a.781.781 0 01-.78-.781v-.781a.781.781 0 01.78-.782h.782v2.344zm0-4.688v.782h-.782V7.03a2.351 2.351 0 012.344-2.343h1.563a.781.781 0 01.781.78.781.781 0 101.563 0 2.351 2.351 0 012.343-2.343h3.125a3.906 3.906 0 013.907 3.906v4.688h-.782v-.781a2.351 2.351 0 00-2.343-2.344h-9.375a2.35 2.35 0 00-2.344 2.344zm1.562 6.25v-6.25a.781.781 0 01.782-.78h9.375a.781.781 0 01.78.78v6.25a5.469 5.469 0 01-10.937 0zm1.438 8.649l2.664 1.602-2.36 1.89-2.039-3.055 1.735-.437zm-2.219-1.617h1.563v.172l-2.532.632-.984.243a2.363 2.363 0 011.953-1.047zm-3.125 10.156a1.562 1.562 0 110 3.125 1.562 1.562 0 010-3.125zm5.531 12.5h-4.75v-6.25a.78.78 0 10-1.562 0v6.25H9.375V34.227a7.014 7.014 0 015.32-6.82l.149-.04v5.555a3.124 3.124 0 101.562 0v-5.945l1.219-.305 2.82 4.226a.751.751 0 00.649.352c.176 0 .347-.06.484-.172l.899-.71-1.32 16.507zm1.563 0l1.218-15.156.82.273a.77.77 0 00.485 0l.82-.273 1.22 15.156h-4.563zm17.906 0h-5.469v-6.25a.78.78 0 10-1.562 0v6.25h-4.75l-1.32-16.508.898.711a.763.763 0 00.601.164.751.751 0 00.532-.344l2.82-4.226 1.219.305v1.93a1.567 1.567 0 00-1.563 1.562v1.414a4.688 4.688 0 00-2.343 4.055V37.5a1.568 1.568 0 001.562 1.563h.781a.781.781 0 100-1.563h-.781v-1.563a3.125 3.125 0 016.25 0V37.5h-.781a.782.782 0 000 1.563h.781a1.567 1.567 0 001.563-1.563v-1.563a4.687 4.687 0 00-2.344-4.054v-1.414a1.567 1.567 0 00-1.563-1.563v-1.539l.149.04a7.015 7.015 0 015.32 6.82v12.648z"/><path d="M23.209 18.198a.781.781 0 00-1.1 1.106 4.099 4.099 0 005.791 0 .782.782 0 00-1.11-1.1 2.535 2.535 0 01-3.58 0l-.001-.006zm-.553-3.354a.781.781 0 00.782-.781v-.782a.781.781 0 10-1.563 0v.781a.781.781 0 00.781.782zm4.688 0a.781.781 0 00.781-.781v-.782a.781.781 0 10-1.563 0v.781a.781.781 0 00.782.782zM15.625 36.719a.78.78 0 10-.555-1.336.792.792 0 000 1.11c.15.142.348.223.555.226z"/></symbol><symbol viewBox="0 0 20 20" id="facebook" xmlns="http://www.w3.org/2000/svg"><path d="M13.174 3.32H15V.14A23.573 23.573 0 0012.34 0C9.708 0 7.905 1.656 7.905 4.7v2.8H5v3.555h2.905V20h3.561v-8.944h2.787l.443-3.555h-3.23V5.05c0-1.027.277-1.73 1.708-1.73z"/></symbol><symbol viewBox="0 0 51 50" id="guaranteed" xmlns="http://www.w3.org/2000/svg"><g clip-path="url(#ajclip0)"><path d="M34.965 15.36a.684.684 0 00-.483.2L22.576 27.466l-6.851-6.852a.703.703 0 00-.967 0l-2.762 2.762a.684.684 0 000 .967L22.094 34.44a.682.682 0 00.967 0l15.15-15.151a.684.684 0 000-.967l-2.763-2.762a.684.684 0 00-.483-.2zM22.576 32.99l-9.13-9.13 1.797-1.797 6.851 6.852a.682.682 0 00.967 0L34.965 17.01l1.797 1.797L22.576 32.99z"/><path d="M25.102 6.38A18.62 18.62 0 1043.722 25a18.642 18.642 0 00-18.62-18.62zm0 35.873A17.253 17.253 0 1142.355 25a17.273 17.273 0 01-17.253 17.253z"/><path d="M49.332 27.193a3.486 3.486 0 000-4.385l-1.12-1.399a2.143 2.143 0 01-.384-1.937l.5-1.715a3.53 3.53 0 00-1.682-4.058l-1.566-.86a2.14 2.14 0 01-1.1-1.64l-.194-1.78a3.486 3.486 0 00-3.102-3.102l-1.78-.195a2.14 2.14 0 01-1.64-1.1l-.86-1.565a3.486 3.486 0 00-4.058-1.682l-1.715.5a2.145 2.145 0 01-1.938-.385L27.294.77a3.487 3.487 0 00-4.385 0l-1.398 1.12a2.148 2.148 0 01-1.937.384l-1.715-.5A3.529 3.529 0 0013.8 3.456l-.859 1.566a2.141 2.141 0 01-1.64 1.1l-1.78.195A3.486 3.486 0 006.42 9.419l-.195 1.779a2.14 2.14 0 01-1.1 1.64l-1.565.86a3.487 3.487 0 00-1.682 4.058l.5 1.715a2.145 2.145 0 01-.384 1.938l-1.12 1.398a3.486 3.486 0 000 4.385l1.12 1.399a2.141 2.141 0 01.384 1.937l-.5 1.715a3.53 3.53 0 001.681 4.059l1.565.86a2.142 2.142 0 011.1 1.64l.195 1.779a3.486 3.486 0 003.102 3.102l1.78.195a2.14 2.14 0 011.64 1.1l.86 1.565a3.486 3.486 0 004.058 1.682l1.715-.5a2.148 2.148 0 011.938.384l1.398 1.12a3.486 3.486 0 004.385 0l1.399-1.12a2.143 2.143 0 011.937-.384l1.715.5a3.486 3.486 0 004.058-1.682l.86-1.565a2.141 2.141 0 011.64-1.1l1.78-.195a3.486 3.486 0 003.101-3.102l.196-1.78a2.14 2.14 0 011.099-1.64l1.566-.86a3.488 3.488 0 001.682-4.058l-.5-1.714a2.146 2.146 0 01.384-1.938l1.121-1.398zm-2.188.544a3.513 3.513 0 00-.63 3.175l.502 1.714a2.128 2.128 0 01-1.027 2.477l-1.566.859a3.508 3.508 0 00-1.8 2.692l-.196 1.779a2.128 2.128 0 01-1.893 1.893l-1.78.195a3.51 3.51 0 00-2.691 1.801l-.86 1.566a2.13 2.13 0 01-2.475 1.027l-1.715-.5a3.51 3.51 0 00-3.175.629l-1.398 1.12a2.127 2.127 0 01-2.677 0l-1.398-1.12a3.512 3.512 0 00-3.175-.63l-1.714.5A2.13 2.13 0 0115 45.888l-.86-1.566a3.507 3.507 0 00-2.692-1.801l-1.779-.196a2.129 2.129 0 01-1.893-1.892l-.195-1.78a3.51 3.51 0 00-1.801-2.691l-1.566-.86a2.153 2.153 0 01-1.026-2.476l.5-1.714a3.511 3.511 0 00-.629-3.175l-1.121-1.399a2.128 2.128 0 010-2.676l1.12-1.399a3.512 3.512 0 00.63-3.175l-.5-1.714a2.128 2.128 0 011.026-2.476l1.566-.86a3.507 3.507 0 001.801-2.691l.196-1.78a2.129 2.129 0 011.895-1.891l1.78-.196a3.51 3.51 0 002.691-1.801l.86-1.566a2.155 2.155 0 012.473-1.027l1.715.5a3.51 3.51 0 003.174-.629l1.399-1.12a2.128 2.128 0 012.676 0l1.399 1.12a3.515 3.515 0 003.175.63l1.714-.5a2.13 2.13 0 012.476 1.026l.86 1.566a3.507 3.507 0 002.691 1.8l1.78.196a2.129 2.129 0 011.893 1.893l.195 1.78a3.51 3.51 0 001.801 2.69l1.566.86a2.153 2.153 0 011.026 2.476l-.5 1.715a3.511 3.511 0 00.63 3.174l1.12 1.399a2.128 2.128 0 010 2.676l-1.121 1.399z"/></g><defs><clipPath id="ajclip0"><path transform="translate(.102)" d="M0 0h50v50H0z"/></clipPath></defs></symbol><symbol viewBox="0 0 51 50" id="health" xmlns="http://www.w3.org/2000/svg"><path d="M19.083 3.906a2.344 2.344 0 100 4.688 2.344 2.344 0 000-4.688zm0 3.125a.781.781 0 110-1.562.781.781 0 010 1.562zM8.927 25.781h3.125v1.563H8.927V25.78zm4.688 0h11.718v1.563H13.615V25.78zm-4.688 4.688h3.125v1.562H8.927V30.47zm0 4.687h3.125v1.563H8.927v-1.563zm0 4.688h3.125v1.562H8.927v-1.562z"/><path d="M47.99 27.344h-.782c-2.534-.007-5-.828-7.03-2.344l-1.876-1.406a.773.773 0 00-.937 0l-1.094.82V8.594a2.35 2.35 0 00-2.344-2.344h-6.39a2.352 2.352 0 00-2.204-1.562h-1.828a4.688 4.688 0 00-8.843 0h-1.829A2.352 2.352 0 0010.63 6.25H4.24a2.35 2.35 0 00-2.344 2.344v37.5a2.35 2.35 0 002.344 2.343h29.687a2.355 2.355 0 001.836-.898l1.734.82a.761.761 0 00.672 0l6.86-3.257a7.001 7.001 0 003.742-6.211V28.125a.781.781 0 00-.781-.781zM27.677 7.813h6.25a.781.781 0 01.781.78V25.54c-.5.312-1.022.586-1.562.82V10.156a.781.781 0 00-.781-.781h-4.688V7.813zM12.052 7.03a.781.781 0 01.781-.781h2.422a.772.772 0 00.766-.625 3.125 3.125 0 016.125 0 .772.772 0 00.765.625h2.422a.781.781 0 01.782.781v3.125H12.052V7.031zm-.781 4.688h15.625a.781.781 0 00.781-.781h3.906v15.968a11.746 11.746 0 01-3.125.438h-.78a.781.781 0 00-.782.781v2.344H13.615v1.562h13.28v3.125h-13.28v1.563h13.28v2.172c.002.318.023.637.063.953H13.615v1.562h13.757c.337.873.845 1.67 1.493 2.344H6.583V10.937h3.907a.781.781 0 00.78.782zm22.656 35.156H4.24a.781.781 0 01-.782-.781v-37.5a.781.781 0 01.782-.781h6.25v1.562H5.802a.781.781 0 00-.781.781V44.53a.781.781 0 00.781.782h25.281l3.141 1.492a.786.786 0 01-.297.07zm13.281-7.984a5.431 5.431 0 01-2.883 4.812l-6.492 3.086-6.476-3.078a5.45 5.45 0 01-2.899-4.82v-9.985a13.36 13.36 0 007.97-2.656l1.405-1.055 1.407 1.055a13.36 13.36 0 007.968 2.656v9.985z"/><path d="M23.77 16.406h-2.343v-2.343a.781.781 0 00-.781-.782H17.52a.781.781 0 00-.781.781v2.344h-2.344a.781.781 0 00-.781.782v3.125a.781.781 0 00.78.78h2.345v2.345a.781.781 0 00.78.78h3.126a.782.782 0 00.781-.78v-2.344h2.344a.782.782 0 00.781-.782v-3.125a.781.781 0 00-.781-.78zm-.78 3.125h-2.344a.781.781 0 00-.781.782v2.343h-1.563v-2.343a.781.781 0 00-.781-.782h-2.344V17.97h2.344a.782.782 0 00.781-.782v-2.343h1.563v2.344a.781.781 0 00.78.78h2.345v1.563zm21.992 10.766a14.876 14.876 0 01-6.68-2.797.774.774 0 00-.937 0 14.876 14.876 0 01-6.68 2.797.788.788 0 00-.664.773v7.82a3.902 3.902 0 002.015 3.415l.047.023 5.414 2.57a.763.763 0 00.672 0l5.461-2.593a3.91 3.91 0 002.016-3.414v-7.82a.787.787 0 00-.664-.774zm-.899 8.594a2.311 2.311 0 01-1.172 2.023l-5.078 2.414-5.062-2.398a2.344 2.344 0 01-1.188-2.04v-7.163a16.49 16.49 0 006.25-2.641 16.492 16.492 0 006.25 2.64v7.165z"/><path d="M34.48 36.948l-1.105 1.104 2.343 2.344a.781.781 0 001.105 0l6.25-6.25-1.105-1.105-5.697 5.698-1.792-1.791z"/></symbol><symbol viewBox="0 0 25 25" id="hospital" xmlns="http://www.w3.org/2000/svg"><path d="M23.828 10.547a.39.39 0 00.39-.39V8.593a.39.39 0 00-.39-.39h-4.297V5.077h.39a.39.39 0 00.392-.39V3.125a.39.39 0 00-.391-.39h-4.527a3.121 3.121 0 00-5.79 0H5.078a.39.39 0 00-.39.39v1.563a.39.39 0 00.39.39h.39v3.125H1.173a.39.39 0 00-.39.39v1.563a.39.39 0 00.39.39h.39V22.98l-.644.551a.39.39 0 00.254.688h22.656a.39.39 0 00.254-.688l-.645-.55V10.546h.391zm-8.23-7.031h3.933v.78h-3.933a3.18 3.18 0 00.027-.39 3.23 3.23 0 00-.027-.39zm3.933 7.03h3.125V22.31l-.43-.368a3.516 3.516 0 00-2.288-.847h-.407V10.547zM12.5 1.564a2.344 2.344 0 110 4.687 2.344 2.344 0 010-4.688zm0 5.468a3.125 3.125 0 002.895-1.953h3.355v16.016h-1.563v-6.64a.39.39 0 00-.39-.392H8.203a.39.39 0 00-.39.391v6.64H6.25V5.079h3.355A3.125 3.125 0 0012.5 7.031zm3.906 7.813v6.25h-3.515v-6.25h3.515zm-4.297 0v6.25H8.594v-6.25h3.515zM5.47 3.516h3.933c-.017.13-.026.26-.027.39.001.13.01.261.027.39H5.47v-.78zM1.563 8.984h3.906v.782H1.563v-.782zm3.906 1.563v10.547h-.406c-.84 0-1.652.3-2.29.847l-.43.368V10.547H5.47zm-3.242 12.89l1.054-.902a2.737 2.737 0 011.782-.66h14.875c.653 0 1.285.235 1.78.66l1.055.902H2.227zM19.53 9.767v-.782h3.907v.782H19.53z"/><path d="M3.125 12.11h1.563v.78H3.125v-.78zm0 2.343h1.563v.781H3.125v-.78zm0 2.344h1.563v.781H3.125v-.781zm0 1.953h1.563v.781H3.125v-.781zm17.188-6.64h1.562v.78h-1.563v-.78zm0 2.343h1.562v.781h-1.563v-.78zm0 2.344h1.562v.781h-1.563v-.781zm0 1.953h1.562v.781h-1.563v-.781zm-6.641-1.172h.781v.781h-.781v-.78zm-3.125 0h.781v.781h-.781v-.78zm3.516-14.062v.78H12.89V5.47h-.782V4.297h-1.171v-.781h1.171V2.344h.782v1.172h1.171zm3.125 4.297H7.813a.39.39 0 00-.391.39v1.563a.39.39 0 00.39.39h9.375a.39.39 0 00.391-.39V8.203a.39.39 0 00-.39-.39zm-.391 1.562H8.203v-.781h8.594v.781zm.391 1.563H7.813a.39.39 0 00-.391.39v1.563a.39.39 0 00.39.39h9.375a.39.39 0 00.391-.39v-1.563a.39.39 0 00-.39-.39zm-.391 1.562H8.203v-.781h8.594v.781z"/></symbol><symbol viewBox="0 0 51 50" id="idea" xmlns="http://www.w3.org/2000/svg"><g clip-path="url(#amclip0)"><path d="M42.814 21.698a2.455 2.455 0 00-2.317-1.63 2.455 2.455 0 00-2.308 1.639H33.12v-3.279h3.28a.82.82 0 00.82-.819v-3.43a2.46 2.46 0 10-1.64 0v2.61h-2.46v-1.64a.82.82 0 00-.819-.819h-1.64v-4.25a2.46 2.46 0 10-1.64 0v4.25h-3.278V1.244a.82.82 0 00-.82-.82c-10.11 0-18.031 7.321-18.031 16.667 0 4.44 1.762 10.317 4.6 15.338.509.901 1.174 1.85 1.877 2.853 1.488 2.12 3.144 4.506 3.324 6.582a2.33 2.33 0 00-.985 1.945c.002.555.194 1.091.543 1.522a2.527 2.527 0 00-.753 1.815 2.462 2.462 0 002.46 2.459H31.89a2.475 2.475 0 002.459-2.517c0-.667-.273-1.304-.755-1.766.354-.447.546-1 .545-1.57a2.35 2.35 0 00-2.459-2.344h-5.938V25.805h1.64v2.46c0 .452.366.819.819.819h2.46v.97a2.46 2.46 0 101.639 0v-1.79a.82.82 0 00-.82-.82h-2.46v-1.639h3.28a.82.82 0 00.82-.819v-1.64h5.068a2.455 2.455 0 104.625-1.648zm-6.415-10.647a.82.82 0 110 1.64.82.82 0 010-1.64zM14.71 34.341c-.68-.97-1.322-1.886-1.793-2.719-2.665-4.717-4.387-10.42-4.387-14.531 0-8.175 6.776-14.631 15.574-15.01v5.727c-.218.016-.44.036-.677.065a.82.82 0 00-.703.644l-.25 1.188c-.206.049-.41.104-.615.166l-.817-.911a.818.818 0 00-.932-.208c-.918.396-1.783.902-2.579 1.506a.82.82 0 00-.285.91l.376 1.147a10.93 10.93 0 00-.452.45l-1.145-.375a.825.825 0 00-.91.285 12.305 12.305 0 00-1.507 2.58.82.82 0 00.207.931l.912.817c-.062.202-.116.405-.165.609l-1.274.254a.82.82 0 00-.66.804v2.795a.82.82 0 00.66.804l1.274.254c.049.204.104.407.165.61l-.912.816a.82.82 0 00-.207.932c.396.918.902 1.784 1.507 2.58a.823.823 0 00.91.285l1.145-.377c.146.155.297.306.452.452l-.376 1.144a.82.82 0 00.285.91 12.307 12.307 0 002.58 1.508.821.821 0 00.93-.207l.818-.911c.204.061.41.117.615.165l.25 1.188a.82.82 0 00.703.645c.237.029.46.049.677.065v9.08h-5.808c-.335-2.416-2.047-4.873-3.586-7.067zm2.837-14.273a7.385 7.385 0 006.557 7.328v2.819l-.136-.645a.82.82 0 00-.657-.639 8.875 8.875 0 01-1.428-.385.82.82 0 00-.888.225l-.77.86c-.427-.214-.84-.456-1.234-.725l.356-1.083a.82.82 0 00-.25-.882 8.978 8.978 0 01-1.049-1.048.824.824 0 00-.88-.248L16.085 26a10.53 10.53 0 01-.725-1.235l.86-.77a.821.821 0 00.225-.888 8.928 8.928 0 01-.385-1.428.82.82 0 00-.646-.658l-1.146-.23v-1.45l1.146-.228a.82.82 0 00.646-.658c.089-.486.218-.965.385-1.43a.82.82 0 00-.225-.887l-.86-.77c.214-.427.456-.84.725-1.234l1.083.356a.824.824 0 00.88-.248c.322-.379.673-.73 1.05-1.051a.819.819 0 00.249-.88l-.356-1.083c.395-.269.807-.51 1.234-.724l.77.86a.823.823 0 00.888.224 8.864 8.864 0 011.428-.385.819.819 0 00.657-.638l.136-.645v2.818a7.386 7.386 0 00-6.557 7.329zm6.557-5.673V25.74a5.73 5.73 0 010-11.345zm8.606 32.75a.82.82 0 01-.82.82H17.957a.835.835 0 01-.82-.877.82.82 0 01.82-.82h13.935a.835.835 0 01.82.878zm-1.029-4.098a.75.75 0 01.82.762.82.82 0 01-.82.82H18.166a.835.835 0 01-.82-.877.74.74 0 01.82-.705h13.515zm-.2-11.504a.82.82 0 110 1.64.82.82 0 010-1.64zm-1.64-24.59a.82.82 0 110 1.64.82.82 0 010-1.64zm1.64 17.213h-5.738v-8.197h5.738v8.197zm9.016-.82a.82.82 0 110-1.64.82.82 0 010 1.64z"/><path d="M32.828 37.892a13.9 13.9 0 00-.765 1.601l1.524.604c.195-.485.421-.956.677-1.412l-1.436-.793zm1.844-2.887c-.322.463-.643.933-.95 1.409l1.375.89c.298-.46.61-.914.92-1.362l-1.345-.937zm1.865-2.727c-.276.438-.585.892-.908 1.358l1.347.935c.338-.487.66-.961.948-1.42l-1.387-.873zm1.538-2.858c-.235.492-.48.978-.737 1.459l1.446.773c.268-.502.525-1.01.77-1.525l-1.479-.706zm1.28-3.007a37.97 37.97 0 01-.608 1.517l1.51.643a40.57 40.57 0 00.633-1.584l-1.535-.576zm3.601-9.486l-1.64.013.001.15c0 .458-.021.944-.064 1.443l1.634.138c.046-.545.07-1.077.07-1.58l-.002-.164zm-.418-3.489l-1.596.373c.12.513.21 1.031.273 1.554l1.628-.194a15.897 15.897 0 00-.305-1.733zm-1.178-3.312l-1.474.717c.23.473.435.96.612 1.455l1.544-.549a15.752 15.752 0 00-.682-1.623zm-1.875-2.968L38.2 8.178c.328.413.634.843.916 1.288l1.386-.875a16.544 16.544 0 00-1.018-1.433zm-2.457-2.502L35.984 5.92c.407.337.797.695 1.168 1.072l1.168-1.15c-.41-.416-.841-.812-1.292-1.185zm-2.9-1.954l-.78 1.443c.469.253.927.53 1.362.823l.915-1.361a18.414 18.414 0 00-1.497-.905zm-3.213-1.36l-.496 1.563c.51.162 1.013.347 1.493.551l.642-1.508a18.42 18.42 0 00-1.639-.606zM27.514.59l-.21 1.627c.53.068 1.058.16 1.573.274l.355-1.6A19.997 19.997 0 0027.514.59zM3.612 44.658h-1.64v1.64h1.64v-1.64zm0 3.278h-1.64v1.64h1.64v-1.64zm1.639-1.639H3.612v1.64h1.64v-1.64z"/><path d="M1.973 46.297H.333v1.64h1.64v-1.64zM48.694.395h-1.64v1.64h1.64V.395zm0 3.279h-1.64v1.64h1.64v-1.64z"/><path d="M50.333 2.035h-1.639v1.639h1.64v-1.64zm-3.278 0h-1.64v1.639h1.64v-1.64z"/></g><defs><clipPath id="amclip0"><path transform="translate(.333)" d="M0 0h50v50H0z"/></clipPath></defs></symbol><symbol viewBox="0 0 50 50" id="info" xmlns="http://www.w3.org/2000/svg"><path d="M25 1C11.223 1 0 10.879 0 23.188c0 6.046 2.773 11.476 7.219 15.5-.672 2.074-2.172 3.71-3.688 4.968-.816.676-1.597 1.254-2.219 1.813-.308.277-.59.558-.812.906-.223.348-.422.844-.281 1.375l.125.406.344.219c1.289.742 2.894.871 4.625.75 1.73-.121 3.617-.52 5.468-1.031 3.594-.992 6.969-2.407 8.75-3.188 1.758.367 3.524.594 5.375.594 13.778 0 25-9.879 25-22.188C49.906 11.008 38.781 1 25 1zm0 2c12.82 0 22.906 9.215 22.906 20.313 0 11.09-10.175 20.187-23 20.187-1.828 0-3.55-.18-5.281-.563l-.344-.093L19 43c-1.672.738-5.207 2.18-8.75 3.156-1.773.489-3.54.864-5.063.969-1.019.07-1.648-.172-2.343-.344.496-.425 1.176-.933 1.969-1.593 1.742-1.446 3.832-3.458 4.562-6.438l.156-.625-.5-.375C4.625 34.016 2 28.875 2 23.187 2 12.098 12.176 3 25 3zm-1.188 9.813c-.3 0-.406.175-.406.374v2.626c0 .3.207.374.407.374h2.375c.3 0 .406-.175.406-.375v-2.624c0-.301-.207-.376-.407-.376h-2.375zm.094 7.28c-.3 0-.406.208-.406.407v13.406c0 .301.207.407.406.407v.093h2.282c.3 0 .406-.207.406-.406V20.5c0-.3-.207-.406-.407-.406h-2.28z"/></symbol><symbol viewBox="0 0 20 20" id="instagram" xmlns="http://www.w3.org/2000/svg"><g clip-path="url(#aoclip0)"><path d="M10.003 4.865a5.131 5.131 0 100 10.263 5.131 5.131 0 100-10.263zm0 8.463a3.33 3.33 0 113.33-3.33 3.33 3.33 0 01-3.33 3.33z"/><path d="M14.123.064c-1.84-.086-6.397-.082-8.24 0C4.267.14 2.839.531 1.688 1.682-.236 3.605.01 6.197.01 9.997c0 3.89-.217 6.422 1.677 8.316 1.931 1.93 4.56 1.678 8.316 1.678 3.853 0 5.183.002 6.546-.525 1.852-.72 3.25-2.375 3.387-5.35.087-1.84.082-6.397 0-8.239-.165-3.51-2.049-5.64-5.813-5.813zm2.912 16.977c-1.26 1.26-3.01 1.148-7.056 1.148-4.167 0-5.838.062-7.057-1.16-1.404-1.398-1.15-3.643-1.15-7.045 0-4.604-.472-7.92 4.149-8.157 1.061-.037 1.374-.05 4.046-.05l.038.025c4.44 0 7.925-.465 8.134 4.155.047 1.055.058 1.371.058 4.04 0 4.118.078 5.799-1.162 7.044z"/><path d="M15.338 5.861a1.2 1.2 0 100-2.398 1.2 1.2 0 000 2.398z"/></g><defs><clipPath id="aoclip0"><path d="M0 0h20v20H0z"/></clipPath></defs></symbol><symbol viewBox="0 0 20 20" id="linkedin" xmlns="http://www.w3.org/2000/svg"><g clip-path="url(#apclip0)"><path d="M15.492 20h3.883c.345 0 .625-.28.625-.626-.292-6.547 1.535-13.457-5.282-13.457-1.31 0-2.355.448-3.107 1.04 0-1.218-1.316-.545-4.354-.725a.625.625 0 00-.624.625c.251 11.805-.562 13.142.625 13.142h3.883c1.127 0 .41-1.59.625-6.823 0-2.162.625-2.585 1.705-2.585 1.195 0 1.396.83 1.396 2.69.214 5.139-.499 6.719.625 6.719zM13.47 9.34c-3.743 0-2.955 4.116-2.955 9.41H7.883V7.481h2.478v1.081c0 .6.914.895 1.232.292.41-.778 1.475-1.688 3.125-1.688 2.94 0 4.032 1.445 4.032 5.33v6.253h-2.633c0-5.953.63-9.41-2.646-9.41zM.935 6.232c-1.183 0-.373 1.321-.625 13.143 0 .345.28.625.625.625h3.887c1.184 0 .374-1.32.625-13.143 0-1.079-1.567-.442-4.512-.625zM4.197 18.75H1.56V7.482h2.637V18.75zM2.877 0c-3.814 0-3.79 5.774 0 5.774 3.787 0 3.817-5.774 0-5.774zm0 4.524c-2.14 0-2.16-3.274 0-3.274 2.164 0 2.136 3.274 0 3.274z"/></g><defs><clipPath id="apclip0"><path d="M0 0h20v20H0z"/></clipPath></defs></symbol><symbol viewBox="0 0 196 90" id="logo" xmlns="http://www.w3.org/2000/svg"><g clip-path="url(#aqclip0)"><path d="M154.758 88.645l-.116-.112c0 .037-.058.112-.058.149 0 .037.058.037.058.074l.116-.111zm-6.29-2.286v.297l-.524-.26.233-.186.291.149zm-20.177-59.216l-3.283 15.438h4.351c.246 0 .413.04.501.118.087.07.131.176.131.317a.61.61 0 01-.224.474c-.14.132-.356.198-.646.198h-9.808c-.246 0-.413-.04-.501-.119a.42.42 0 01-.132-.33.61.61 0 01.211-.46c.149-.132.369-.198.659-.198h4.351l3.045-14.318h-3.204c-.246 0-.413-.04-.501-.118a.423.423 0 01-.131-.33c0-.176.07-.33.21-.461.15-.141.37-.211.66-.211h4.311zm11.984 16.98c-1.451 0-2.642-.457-3.573-1.37-.932-.924-1.398-2.093-1.398-3.508 0-1.151.352-2.32 1.055-3.507a7.612 7.612 0 012.887-2.82c1.231-.695 2.474-1.042 3.731-1.042 1.442 0 2.628.457 3.56 1.37.931.915 1.397 2.053 1.397 3.415 0 1.196-.343 2.382-1.028 3.56-.677 1.178-1.635 2.122-2.874 2.834-1.231.712-2.483 1.068-3.757 1.068zm.25-1.107c1.037 0 2.061-.29 3.072-.87 1.019-.59 1.806-1.367 2.36-2.334.562-.967.843-1.938.843-2.913 0-1.108-.382-2.035-1.146-2.782-.765-.747-1.741-1.12-2.927-1.12a5.59 5.59 0 00-2.386.513 7.23 7.23 0 00-1.952 1.306 6.596 6.596 0 00-1.397 1.911 5.072 5.072 0 00-.554 2.294c0 1.151.382 2.105 1.147 2.861.765.756 1.745 1.134 2.94 1.134zm15.965 1.107c-1.45 0-2.641-.457-3.572-1.37-.932-.924-1.398-2.093-1.398-3.508 0-1.151.352-2.32 1.055-3.507a7.605 7.605 0 012.887-2.82c1.231-.695 2.474-1.042 3.731-1.042 1.441 0 2.628.457 3.56 1.37.931.915 1.397 2.053 1.397 3.415 0 1.196-.343 2.382-1.028 3.56-.677 1.178-1.635 2.122-2.874 2.834-1.231.712-2.483 1.068-3.758 1.068zm.251-1.107c1.037 0 2.061-.29 3.072-.87 1.019-.59 1.806-1.367 2.36-2.334.562-.967.843-1.938.843-2.913 0-1.108-.382-2.035-1.147-2.782-.764-.747-1.74-1.12-2.926-1.12a5.6 5.6 0 00-2.387.513 7.225 7.225 0 00-1.951 1.306 6.596 6.596 0 00-1.397 1.911 5.072 5.072 0 00-.554 2.294c0 1.151.382 2.105 1.147 2.861.765.756 1.745 1.134 2.94 1.134zm14.12-4.258l-1.055 4.93h-2.597c-.246 0-.413-.04-.501-.119a.42.42 0 01-.132-.33.61.61 0 01.211-.46c.149-.132.369-.198.659-.198h1.49l3.032-14.318h-1.477c-.246 0-.413-.04-.501-.118a.423.423 0 01-.131-.33c0-.176.07-.33.211-.461.149-.141.369-.211.659-.211h2.597l-2.175 10.204 5.55-3.955h-.567c-.246 0-.413-.04-.501-.119a.42.42 0 01-.132-.33c0-.175.07-.33.211-.46.15-.141.369-.212.659-.212h3.547c.246 0 .408.035.487.106a.424.424 0 01.159.342.64.64 0 01-.224.475c-.15.132-.37.198-.66.198h-1.278l-5.089 3.612 4.284 5.577h1.279c.246 0 .413.04.501.118.088.07.132.176.132.317a.613.613 0 01-.224.474c-.141.132-.356.198-.646.198h-3.586c-.246 0-.413-.04-.501-.119a.42.42 0 01-.132-.33.61.61 0 01.211-.46c.149-.132.369-.198.659-.198h.765l-3.705-4.891-1.489 1.068zm-39.854 13.459c.105-.5.206-.8.303-.896a.692.692 0 01.501-.224.39.39 0 01.303.132.36.36 0 01.132.276c0 .08-.013.194-.04.343l-.54 2.505c-.062.273-.158.466-.29.58a.603.603 0 01-.422.172.475.475 0 01-.33-.119.38.38 0 01-.118-.277c0-.053.008-.14.026-.264.009-.07.013-.14.013-.21 0-.598-.281-1.112-.844-1.543-.738-.58-1.718-.87-2.94-.87a6.148 6.148 0 00-3.032.79c-.949.52-1.718 1.297-2.307 2.334-.589 1.038-.883 2.062-.883 3.072 0 1.152.365 2.079 1.094 2.782.729.694 1.74 1.042 3.032 1.042.844 0 1.745-.154 2.703-.462.958-.316 1.881-.83 2.768-1.542.22-.176.405-.264.554-.264a.41.41 0 01.303.119c.079.07.119.166.119.29 0 .175-.088.356-.264.54-.624.65-1.56 1.217-2.808 1.7a10.26 10.26 0 01-3.757.726c-1.485 0-2.672-.426-3.56-1.279-.887-.861-1.331-1.977-1.331-3.349 0-1.045.22-2.043.659-2.992.448-.95 1.011-1.754 1.687-2.413a8.467 8.467 0 012.347-1.595c.888-.413 1.877-.62 2.966-.62.853 0 1.609.128 2.268.383a4.283 4.283 0 011.688 1.133zm12.603 10.297l.33-1.595c-1.89 1.353-3.753 2.03-5.59 2.03-1.178 0-2.066-.264-2.663-.791-.598-.528-.897-1.187-.897-1.978 0-1.204.528-2.236 1.582-3.098 1.31-1.08 3.019-1.621 5.129-1.621 1.01 0 2.184.136 3.52.408l.382-1.793a2.04 2.04 0 00.04-.395c0-.51-.203-.919-.607-1.226-.545-.422-1.323-.633-2.333-.633-.853 0-2.162.264-3.929.79a1.73 1.73 0 01-.435.093.395.395 0 01-.29-.118.428.428 0 01-.119-.317.64.64 0 01.185-.448c.132-.132.628-.308 1.489-.527 1.521-.396 2.65-.594 3.389-.594 1.256 0 2.201.277 2.834.83.642.555.963 1.179.963 1.873 0 .228-.027.453-.08.672l-1.555 7.33h1.49c.246 0 .413.04.5.12.088.07.132.175.132.316a.61.61 0 01-.224.474c-.14.132-.356.198-.646.198h-2.597zm1.173-5.51c-.993-.291-2.127-.436-3.401-.436-1.767 0-3.182.409-4.245 1.226-.8.615-1.2 1.319-1.2 2.11 0 .57.207 1.037.62 1.397.422.36 1.068.54 1.938.54.958 0 1.889-.184 2.795-.553.905-.378 1.894-.993 2.966-1.846l.527-2.439zm12.947-5.907l-.594 2.795c1.749-1.319 3.015-2.158 3.797-2.518.791-.37 1.486-.554 2.083-.554.598 0 1.134.202 1.609.606.483.405.725.721.725.95a.672.672 0 01-.211.487.685.685 0 01-.501.211.475.475 0 01-.211-.04c-.053-.034-.145-.135-.277-.302-.237-.308-.461-.519-.672-.633a1.246 1.246 0 00-.62-.172c-.492 0-1.121.194-1.885.58-.756.387-2.136 1.332-4.14 2.835l-1.292 6.064h4.904c.255 0 .427.04.515.12.088.07.131.175.131.316a.61.61 0 01-.224.474c-.149.132-.369.198-.659.198h-8.688c-.246 0-.413-.035-.501-.106a.405.405 0 01-.132-.316c0-.176.071-.325.211-.448.141-.132.356-.198.646-.198h2.677l1.964-9.229h-2.044c-.246 0-.413-.04-.5-.118a.405.405 0 01-.132-.317c0-.184.07-.342.211-.474.149-.14.369-.211.659-.211h3.151zm22.28 5.972h-11.285c-.027.273-.04.479-.04.62 0 1.204.409 2.197 1.226 2.98.818.781 1.925 1.173 3.323 1.173.817 0 1.705-.132 2.663-.396.958-.273 1.779-.637 2.465-1.094.202-.132.365-.198.488-.198.114 0 .211.044.29.132a.426.426 0 01.118.316c0 .158-.07.308-.21.448-.405.431-1.213.857-2.426 1.28a11.412 11.412 0 01-3.692.619c-1.617 0-2.918-.48-3.902-1.437-.976-.958-1.463-2.175-1.463-3.652 0-.976.211-1.894.632-2.755a7.303 7.303 0 011.662-2.242 9.002 9.002 0 012.386-1.555 7.16 7.16 0 012.953-.607c1.512 0 2.725.444 3.639 1.332.922.888 1.384 2.021 1.384 3.401 0 .457-.07 1.002-.211 1.635zm-.897-1.12c.044-1.213-.316-2.207-1.081-2.98-.773-.765-1.81-1.147-3.111-1.147-1.266 0-2.448.373-3.546 1.12a6.508 6.508 0 00-2.413 3.006h10.151zM16.017 86.984c3.903-.406 7.63.074 11.242 1.107 5.126 1.475 10.484 1.88 15.901 1.696 6.524-.184 13.105.148 19.512.959 6.349.775 12.698.738 19.105.406 4.834-.258 9.727-.59 14.561-1.07 2.214-.221 4.31-.848 6.407-1.328.291-.073.583-.11.816-.147l.116.258c-.291.148-.641.258-.932.369a53.152 53.152 0 01-12.057 2.065c-5.3.406-10.659.701-16.017.96-5.126.257-10.193-.407-15.26-.96a155.33 155.33 0 00-17.59-.774c-5.36.037-10.718-.701-15.552-2.176-3.029-.922-6.174-1.439-9.494-1.07-.233 0-.466 0-.7-.037l-.058-.258zm93.892-11.765l-6.523-4.536-1.223-.664c-1.049-.738-2.097-1.476-3.145-2.176l.466-.553c2.621 1.622 5.358 3.171 7.863 4.868 2.329 1.586 4.485 3.32 6.756 4.979 1.281.959 2.796 1.77 4.019 2.766.932.737 1.631 1.549 2.097 2.434.757 1.586 1.398 3.172 1.864 4.795.64 2.323 2.563 3.688 5.475 4.278 3.844.774 7.572 1.696 11.066 3.245 3.204 1.402 6.64 1.439 10.135.701 1.922-.406 3.844-.7 5.825-.885-.233.11-.466.221-.757.295-2.738.516-5.476 1.143-8.213 1.512-2.563.369-5.009-.074-7.281-1.032-3.378-1.365-7.047-2.36-10.892-2.988-3.611-.627-5.882-2.36-6.756-5.126a70.502 70.502 0 01-1.107-3.578c-.582-2.065-2.504-3.356-4.543-4.61l-.874-.443-4.252-3.282zM45.606 58.18l-4.543 5.643c-1.223 1.586-2.563 3.172-3.611 4.831-1.631 2.619-1.573 5.2.757 7.635.583.627 1.107 1.29 1.69 1.917l-.35.48c-2.155-1.992-4.485-3.983-4.194-6.786a8.108 8.108 0 011.049-3.615c1.397-2.212 3.145-4.278 4.776-6.417 1.63-2.139 3.203-4.389 5.125-6.454 2.155-2.36 3.67-4.942 4.485-7.635 1.049-3.208.64-6.417-.291-9.552-.699-2.213-1.631-4.425-2.446-6.638h.582c2.854 5.569 4.893 11.212 3.145 17.297-.932 1.77-1.805 3.614-2.912 5.31-.932 1.365-2.155 2.656-3.262 3.984zm57.372-20.58l1.049-1.991.233-.59c1.223-2.73 2.679-5.975 3.378-9.184.99-2.176.699-2.36 1.281-4.61.699-2.619.408-4.204.466-6.602.117-3.208-4.019-6.011-7.048-6.38-2.446-.295-4.892-.59-7.338-.922-1.049-.148-2.097-.406-3.204-.59v-.332c2.796.295 5.592.627 8.387.885 3.553.258 6.757 1.512 8.737 3.393 1.165 1.07 1.573 2.397 1.631 3.762.233 3.651-.349 7.34-1.747 10.88-1.456 3.762-2.505 6.933-4.252 10.695l-.583 1.033c-.815 1.365-2.504 4.684-3.378 6.27-.175.11-.64.848-.874.221 1.049-1.254 2.214-4.057 3.262-5.938z"/><path d="M57.255 80.124c.525-1.66 2.097-3.135 4.31-4.13a72.999 72.999 0 015.243-2.14c1.864-.737 3.32-1.807 4.135-3.098a240.265 240.265 0 013.96-5.827c.234-.332.467-.627.7-.959h.058l.058-.037a.491.491 0 010 .406c-1.048 1.77-2.097 3.504-3.087 5.274-1.456 2.582-3.844 4.426-7.339 5.495-2.854.812-5.184 2.213-6.64 3.947a5.514 5.514 0 00-.932 1.991c-.524 2.176 0 4.352.583 6.454.175.59.932 1.107 1.165 1.402-2.913-2.25-2.68-5.348-2.272-8.446l.058-.332zm-46.421 3.283c-.059-.037-.175-.295-.35-.332-1.281-.332-2.155-1.107-2.213-1.955-.117-.885.64-1.475 1.63-1.955 2.796-1.327 5.767-1.143 8.738-.737 3.553.48 7.047 1.18 10.542 1.733 1.98.332 4.135.221 6-.369.116-.037.29 0 .465 0l.117.222c-.99.22-1.922.663-2.913.663a47.112 47.112 0 01-6.057-.258c-3.495-.405-6.99-1.032-10.543-1.401-1.514-.11-3.086 0-4.543.332-.873.147-1.689.664-2.388 1.143-.524.332-.407.811.117 1.254.524.553.99 1.106 1.398 1.66zm68.613-8.815l4.194-5.458 1.456-1.844c.35-.664.699-1.328 1.107-1.992l.757-1.106a16.428 16.428 0 01-1.224 3.135c-1.28 2.139-2.62 4.315-4.193 6.343-.7.922-2.039 1.549-3.087 2.287l-.233.516-.7.037c.06-.11.176-.258.234-.369 0-.037.058-.074.058-.11l-.058.073-.7.553c-4.542 1.881-7.163 4.684-7.047 8.815l-.524-.147c.058-.627.175-1.255.233-1.882.058-1.401.64-2.802 1.69-4.056.29-.295.582-.59.873-.849l.815-.516c.524-.332.99-.7 1.515-.996 1.048-.627 2.155-1.217 3.203-1.807l1.631-.627zM64.303 15.877c2.097 1.586 2.97 3.725 4.194 5.68 1.048 1.623 2.33 3.135 4.194 4.315.174.11.349.258.465.406.059.074.059.147 0 .332-.815-.443-1.63-.922-2.33-1.439a15.117 15.117 0 01-2.504-2.581c-.466-.701-1.223-1.291-2.213-1.734a34.859 34.859 0 01-3.495-1.955l-1.747-1.253c-.816-.517-1.631-1.033-2.388-1.55l-.525-.147.059-.221c.582.11 1.281.073 1.689.295 1.165.664 2.213 1.401 3.32 2.139l3.32 2.213.407.074-.058-.296a83.357 83.357 0 00-2.388-3.393l-.582-.922.582.037zm3.67 16.818c-2.214-.59-4.485-1.033-6.64-1.77-3.379-1.143-6.757-2.36-10.019-3.688-1.165-.443-2.038-1.254-3.028-1.918l.174-.184c.117.036.291.036.35.073 5.591 3.061 11.94 4.98 18.23 6.97.35.148.641.296.933.517zM89.116 63.27c-1.98-.96-4.02-1.918-6-2.877a5.076 5.076 0 01-.99-.664l.291-.221c4.718 2.028 9.436 4.057 14.096 6.122a30.614 30.614 0 012.912 1.623l-.466.553c-2.68-1.29-5.358-2.582-8.038-3.836-.407-.147-.757-.295-1.223-.405l-.466-.259-.116-.036zM43.8 16.836c1.224-.516 2.564-.885 3.67-1.549 1.806-1.18 3.96-2.139 6.349-2.766 1.689-.443 3.262-1.29 4.776-1.955-.64.812-1.573 1.66-2.854 2.029-3.553.959-6.698 2.36-9.843 3.835-.583.259-1.457.185-2.214.259l.117.147zm10.135 34.558l-.64.147c.466-.737.932-1.327 1.34-1.954 1.223-1.402 2.387-2.803 3.61-4.205a251.79 251.79 0 014.777-5.348l.582.222c-2.213 2.508-4.485 4.979-6.698 7.487-1.048 1.143-1.98 2.397-2.97 3.65z"/><path d="M78.224 76.436l.233-.516c1.34-.148 2.62-.332 3.96-.517 3.67-.553 7.165-.073 10.543 1.218-2.446-.259-4.834-.701-7.28-.701-2.447 0-4.952.332-7.456.516zm-20.969 3.688l-.058.332c-3.32.221-6.64.516-9.96.59-2.912.037-5.475-.737-7.572-2.36l.35-.48c4.368 3.098 9.61 2.582 14.852 2.176.758-.037 1.573-.147 2.388-.258zm35.589-56.17l-.408.443-.7.885-.29-.074c.058-.405.174-.811.349-1.217.291-.442.64-.922.99-1.364l2.155-4.684c-.174 2.028-.407 4.02-1.922 5.79l-.174.221zM82.418 59.508l-.292.221c-1.689-.811-2.679-2.029-3.495-3.356-.349-.553-.815-1.107-1.106-1.697-.233-.516-.35-.995-.524-1.512 1.864 2.066 2.504 4.758 5.416 6.344zm56.731 22.128l.291-.258c.641.295 1.281.59 1.864.922 1.339.812 2.563 1.697 3.844 2.545l-.233.184-5.766-3.393zM52.072 7.395l.349.258-6.349 3.651-.175-.184 6.175-3.725zm27.084 51.596l.058.37c-.932 1.364-1.922 2.728-2.854 4.093-.175.184-.35.369-.582.516l-.059.037h-.058c.35-.516.64-1.07 1.048-1.586.758-1.18 1.631-2.286 2.447-3.43zM64.303 15.877l-.64.037c-.758-1.032-1.573-2.065-2.33-3.135l.35-.147 2.62 3.245zm84.165 70.553c1.514.554 3.087 1.107 4.601 1.697.175.074.292.222.466.37-1.165-.37-2.271-.701-3.436-1.07-.583-.185-1.107-.443-1.689-.664l.058-.332zM46.014 28.27l-1.98-3.099.29-.258 1.981 3.098-.291.258zm51.198 18.698l1.922-2.619.408.222-2.097 2.582-.233-.185zM44.267 24.913l-.292.258-1.398-3.208c.408.627.758 1.254 1.165 1.88.233.332.35.701.525 1.07zM91.853 6.325v.332l-3.67-1.217.117-.221 3.553 1.106zm53.295 78.557l3.029 1.438-.233.185-2.971-1.402.175-.221zm-39.432 2.84l1.689-.701.233.295-1.806.738-.116-.332zm-59.352-59.6l.116.147.466.295.35.554h-.758l-.524-.812.35-.184zm.174 1.032h.757v.038c0 .223-.058.41-.058.633l-.699-.67zm-30.521 57.83v.298l-.698-.149.058-.149h.64zM99.6 44.576l-.408-.224.292-.26.349-.038-.233.522z"/><path d="M105.716 87.722l.058.335-.641.074.583-.41zm49.042.96l-.116-.112c0 .037-.058.112-.058.149 0 .037.058.037.058.074l.116-.111zm-6.29-2.25v.298l-.524-.26.233-.187.291.15zm-44.208 1.881l.815-.112-.408.335-.407-.223z"/><path d="M103.794 88.796l.524-.521.408.223-.466.224-.466.074zm-57.78-60.524l.291-.26c.059 0 .117.074.117.11l-.408.15z"/><path d="M104.201 88.718l-.407.074.407-.075zM77.7 76.068l.057-.075c0 .038 0 .075-.057.075zm18.056-31.313c-.117-.221-.175-.442-.233-.7l-.291-.185-1.049-1.033c-.932-1.18-1.806-2.323-2.737-3.503-1.049-1.291-2.039-2.619-3.087-3.91-.7-.774-1.282-1.66-2.214-2.286a42.616 42.616 0 00-4.601-2.434c-3.262-.923-6.407-.849-9.087 1.069a58.2 58.2 0 00-4.193 3.172c-1.864 1.623-3.611 3.356-5.359 5.053l.583.22c1.223-1.106 2.446-2.249 3.727-3.319 1.98-1.622 4.02-3.245 6.174-4.757 1.806-1.254 4.078-1.475 6.407-.922 2.971.7 5.417 2.102 6.699 3.946 1.106 1.438 2.096 2.914 3.261 4.315 2.272 2.766 4.66 5.495 6.932 8.225l.64-.664c-.407-.775-.99-1.55-1.572-2.287zM137.46 80.05l-2.68-1.77-.174-.147-3.204-1.992-4.893-3.32-3.902-3.097c-1.107-.627-2.097-1.328-3.087-2.029-2.738-2.323-5.417-4.72-8.096-7.081-.816-.7-1.631-1.365-2.388-2.065-2.621-2.324-5.417-4.5-7.747-6.97-1.398-1.476-2.563-3.025-3.728-4.611l-.64.664c.058.11.174.184.233.295 1.747 2.139 3.436 4.352 5.125 6.528.117.037.35 0 .408.074a556.51 556.51 0 015.067 4.61c.583.442 1.223.811 1.806 1.29 3.436 2.84 6.815 5.68 10.193 8.52l3.378 2.25.99.738 1.515 1.143c.815.553 1.631 1.106 2.504 1.623l11.009 6.86.291-.259-1.98-1.254zM63.72 4.776c-2.97-.848-5.766-.848-8.328.775-1.049.663-2.156 1.254-3.262 1.88l.35.259c1.106-.59 2.213-1.107 3.261-1.734 1.806-1.032 3.786-1.364 5.941-.959.524.111.99.222 1.456.37l1.223-.37c-.174-.073-.407-.184-.64-.22zm29.065 23.095l-.35-.664-.058-.184-.29-.443-.234-.331-3.61-3.357a815.654 815.654 0 00-7.398-5.274c-1.281-.922-2.505-1.88-3.786-2.803-2.33-1.88-4.776-3.725-6.931-5.716-1.748-1.55-3.262-3.172-5.708-4.057l-1.224.369c1.515.48 2.796 1.217 3.786 2.102 1.69 1.512 3.204 3.135 5.01 4.536 4.251 3.246 8.62 6.418 12.93 9.626 1.223.885 2.388 1.844 3.553 2.73.99.884 1.922 1.807 2.912 2.729 1.748 2.36.7 4.24-2.679 4.61l-1.34.221-.058.148 1.165.147c.466-.074.874-.184 1.34-.258 1.864-.295 2.912-1.18 3.028-2.582.059-.516-.058-1.032-.058-1.549z"/></g><defs><clipPath id="aqclip0"><path transform="translate(0 .952)" d="M0 0h195.205v88.364H0z"/></clipPath></defs></symbol><symbol viewBox="0 0 75 44" id="logo-menu" xmlns="http://www.w3.org/2000/svg"><g clip-path="url(#arclip0)"><path d="M74.924 43.666l-.06-.056c0 .019-.029.056-.029.074 0 .019.03.019.03.037l.059-.055zm-3.228-1.138v.148l-.27-.13.12-.093.15.075zm-67.999.311c2.004-.202 3.917.037 5.771.55 2.632.735 5.383.938 8.164.846a67.4 67.4 0 0110.017.477c3.26.386 6.519.367 9.808.202 2.482-.128 4.994-.294 7.476-.532 1.136-.11 2.212-.423 3.289-.662.15-.036.299-.055.419-.073l.06.129c-.15.073-.33.128-.48.183a28.06 28.06 0 01-6.189 1.029c-2.721.202-5.472.349-8.223.477-2.631.129-5.233-.202-7.834-.477a82.218 82.218 0 00-9.031-.386c-2.751.018-5.502-.349-7.984-1.084-1.555-.459-3.17-.716-4.874-.532-.12 0-.24 0-.359-.018l-.03-.13zM51.9 36.98l-3.349-2.258-.628-.33a82.495 82.495 0 00-1.614-1.084l.239-.276c1.345.808 2.75 1.58 4.037 2.424 1.196.79 2.302 1.653 3.468 2.48.658.477 1.436.881 2.064 1.377.478.367.837.771 1.076 1.212.389.79.718 1.58.957 2.387.329 1.157 1.316 1.837 2.81 2.13 1.974.386 3.888.846 5.682 1.617 1.645.698 3.41.716 5.203.349a26.857 26.857 0 012.99-.441c-.12.055-.239.11-.388.147-1.406.257-2.811.57-4.216.753-1.316.184-2.572-.037-3.738-.514-1.735-.68-3.618-1.176-5.592-1.488-1.854-.312-3.02-1.175-3.469-2.553a34.201 34.201 0 01-.568-1.78c-.299-1.03-1.286-1.672-2.332-2.296l-.449-.22L51.9 36.98zm-33.012-8.484l-2.333 2.81c-.627.79-1.315 1.58-1.854 2.406-.837 1.304-.807 2.59.39 3.801.298.312.567.643.866.955l-.179.239c-1.106-.992-2.303-1.983-2.153-3.38.03-.624.21-1.23.538-1.799.718-1.102 1.615-2.13 2.452-3.195.838-1.066 1.645-2.186 2.632-3.214 1.106-1.175 1.884-2.461 2.302-3.802.538-1.597.33-3.195-.15-4.756-.358-1.102-.837-2.204-1.255-3.306h.299c1.465 2.773 2.512 5.583 1.614 8.613-.478.882-.926 1.8-1.495 2.645-.478.68-1.106 1.322-1.674 1.983zm29.454-10.247l.538-.992.12-.294c.628-1.359 1.375-2.975 1.734-4.573.508-1.083.359-1.175.658-2.295.359-1.304.21-2.094.24-3.288.059-1.597-2.064-2.993-3.62-3.177-1.255-.147-2.51-.293-3.767-.459-.538-.073-1.076-.202-1.644-.294v-.165c1.435.147 2.87.312 4.306.44 1.824.13 3.468.754 4.485 1.69.598.533.807 1.194.837 1.874.12 1.818-.18 3.654-.897 5.417-.748 1.873-1.286 3.453-2.183 5.326l-.299.514c-.418.68-1.286 2.332-1.734 3.122-.09.055-.33.423-.449.11.539-.624 1.137-2.02 1.675-2.956z"/><path d="M24.868 39.423c.27-.826 1.077-1.56 2.213-2.057a38.117 38.117 0 012.691-1.065c.957-.367 1.705-.9 2.123-1.542.658-.974 1.346-1.947 2.034-2.902.12-.165.239-.312.358-.478h.03l.03-.018c.03.073.03.147 0 .202-.538.882-1.076 1.745-1.585 2.626-.747 1.286-1.973 2.204-3.767 2.737-1.466.404-2.662 1.102-3.41 1.965a2.71 2.71 0 00-.478.991c-.269 1.084 0 2.167.3 3.214.09.294.478.551.598.698-1.496-1.12-1.376-2.663-1.167-4.205l.03-.166zM1.036 41.058c-.03-.019-.09-.147-.18-.166-.658-.165-1.106-.55-1.136-.973-.06-.44.329-.735.837-.973 1.436-.661 2.96-.57 4.486-.368 1.824.24 3.618.588 5.412.863 1.017.166 2.123.11 3.08-.183.06-.019.15 0 .24 0l.059.11c-.508.11-.987.33-1.495.33a24.936 24.936 0 01-3.11-.128c-1.794-.202-3.588-.514-5.412-.698a8.256 8.256 0 00-2.333.165c-.448.074-.867.331-1.226.57-.269.165-.21.404.06.624.27.276.508.551.718.827zm35.224-4.389l2.154-2.718.747-.919c.18-.33.36-.66.568-.991l.39-.551a8.03 8.03 0 01-.629 1.56c-.658 1.066-1.345 2.15-2.153 3.16-.359.459-1.046.77-1.585 1.138l-.12.257-.358.018c.03-.055.09-.128.12-.183 0-.019.03-.037.03-.055l-.03.036-.36.276c-2.332.936-3.677 2.332-3.617 4.39l-.27-.074c.03-.313.09-.625.12-.937.03-.698.329-1.396.867-2.02.15-.147.3-.294.449-.422l.418-.258c.27-.165.509-.348.778-.495.538-.313 1.106-.606 1.644-.9l.838-.313zM28.487 7.432c1.076.79 1.525 1.855 2.153 2.828.538.808 1.196 1.561 2.153 2.149.09.055.18.128.24.202.029.036.029.073 0 .165-.42-.22-.838-.46-1.197-.716a7.639 7.639 0 01-1.286-1.286c-.239-.349-.628-.642-1.136-.863a18.064 18.064 0 01-1.794-.973l-.897-.625a43.771 43.771 0 01-1.226-.771l-.27-.073.03-.11c.3.054.658.036.868.146.598.33 1.136.698 1.704 1.065l1.704 1.102.21.037-.03-.147a41.521 41.521 0 00-1.226-1.69l-.3-.459.3.019zm1.883 8.374c-1.136-.294-2.302-.514-3.408-.881a93.312 93.312 0 01-5.143-1.837c-.598-.22-1.047-.624-1.555-.955l.09-.092c.06.019.149.019.179.037 2.87 1.524 6.13 2.48 9.36 3.471.179.074.328.147.478.257zM41.225 31.03c-1.017-.477-2.063-.954-3.08-1.432a2.606 2.606 0 01-.508-.33l.15-.11c2.421 1.01 4.843 2.02 7.236 3.048a15.85 15.85 0 011.495.808l-.24.275c-1.375-.642-2.75-1.285-4.126-1.91-.21-.073-.389-.147-.628-.202l-.24-.128-.059-.019zM17.961 7.91c.628-.258 1.316-.441 1.884-.772.927-.588 2.033-1.065 3.26-1.377.867-.22 1.674-.643 2.451-.974-.329.404-.807.827-1.465 1.01-1.824.478-3.439 1.176-5.053 1.91-.3.129-.748.092-1.137.129l.06.073zm5.203 17.207l-.329.073c.24-.367.478-.66.688-.973.628-.698 1.226-1.396 1.854-2.093.807-.9 1.614-1.782 2.452-2.663l.299.11c-1.137 1.249-2.303 2.48-3.44 3.728-.537.57-1.016 1.194-1.524 1.818z"/><path d="M35.633 37.587l.12-.257c.687-.074 1.345-.166 2.033-.258 1.884-.275 3.678-.036 5.412.607-1.256-.129-2.482-.35-3.738-.35-1.256 0-2.541.166-3.827.258zm-10.765 1.836l-.03.165c-1.704.11-3.408.258-5.113.294-1.495.019-2.81-.367-3.887-1.175l.18-.239c2.242 1.543 4.933 1.286 7.624 1.084.39-.019.808-.074 1.226-.129zm18.271-27.969l-.21.22-.359.44-.15-.036c.03-.202.09-.404.18-.606.15-.22.33-.459.509-.68l1.106-2.332c-.09 1.01-.21 2.002-.987 2.884l-.09.11zm-5.353 17.703l-.15.11c-.867-.404-1.375-1.01-1.794-1.67-.18-.276-.419-.552-.568-.846-.12-.257-.18-.495-.27-.753.958 1.029 1.287 2.37 2.782 3.16zm29.125 11.019l.15-.129c.329.147.657.294.956.46.688.404 1.316.844 1.974 1.267l-.12.092-2.96-1.69zM22.207 3.208l.18.128-3.26 1.819-.09-.092 3.17-1.855zM36.111 28.9l.03.184c-.478.68-.986 1.359-1.465 2.038-.09.092-.18.184-.299.257l-.03.019h-.03c.18-.257.33-.533.539-.79.388-.588.837-1.139 1.255-1.708zM28.487 7.432l-.329.018c-.389-.514-.807-1.028-1.196-1.56l.18-.074 1.345 1.616zm43.208 35.132c.777.275 1.585.55 2.362.844.09.037.15.11.24.184-.599-.184-1.167-.349-1.765-.533-.299-.091-.568-.22-.867-.33l.03-.165zM19.097 13.602L18.08 12.06l.15-.129 1.016 1.543-.15.128zm26.283 9.311l.988-1.304.209.11-1.076 1.286-.12-.092zM18.2 11.931l-.15.129-.717-1.598c.21.312.389.624.598.937.12.165.18.349.27.532zm24.43-9.256v.166l-1.884-.606.06-.11 1.824.55zm27.361 39.117l1.555.716-.12.092-1.525-.698.09-.11zm-20.244 1.414l.867-.349.12.147-.927.367-.06-.165zm-30.47-29.677l.06.073.24.147.178.276h-.388l-.27-.404.18-.092zm.089.514h.389v.019c0 .111-.03.204-.03.315l-.359-.334zM3.697 42.839v.148l-.36-.074.03-.074h.33zm42.911-21.117l-.21-.111.15-.13.18-.019-.12.26z"/><path d="M49.747 43.206l.03.167-.329.037.3-.204zm25.177.478l-.06-.055c0 .018-.029.055-.029.074 0 .018.03.018.03.037l.059-.056zm-3.228-1.12v.148l-.27-.13.12-.092.15.074zm-22.697.936l.419-.055-.21.167L49 43.5z"/><path d="M48.76 43.741l.269-.26.21.112-.24.111-.24.037zM19.098 13.604l.15-.13c.03 0 .059.037.059.055l-.21.075zM48.97 43.702l-.21.037.21-.037zm-13.606-6.3l.029-.036c0 .018 0 .036-.029.036zm9.269-15.591a1.32 1.32 0 01-.12-.349l-.149-.091-.538-.514c-.478-.588-.927-1.157-1.405-1.745-.538-.643-1.047-1.304-1.585-1.947-.359-.386-.658-.826-1.136-1.138a22.113 22.113 0 00-2.363-1.213c-1.674-.459-3.289-.422-4.665.533a29.794 29.794 0 00-2.152 1.58c-.957.808-1.854 1.67-2.751 2.515l.299.11c.627-.55 1.255-1.12 1.913-1.652 1.017-.808 2.064-1.616 3.17-2.37.927-.624 2.093-.734 3.29-.458 1.524.349 2.78 1.046 3.438 1.965.568.716 1.077 1.45 1.675 2.148 1.166 1.378 2.392 2.737 3.558 4.096l.329-.33c-.21-.387-.509-.772-.808-1.14zm21.411 17.575l-1.375-.881-.09-.074-1.644-.991-2.512-1.653-2.004-1.543c-.568-.312-1.076-.66-1.584-1.01-1.406-1.157-2.781-2.35-4.157-3.526-.418-.349-.837-.68-1.226-1.028-1.346-1.157-2.78-2.24-3.977-3.471-.718-.735-1.316-1.506-1.914-2.296l-.329.33c.03.056.09.093.12.148.897 1.065 1.764 2.167 2.631 3.25.06.019.18 0 .21.037.867.753 1.734 1.524 2.601 2.296.3.22.628.404.927.642 1.765 1.415 3.499 2.829 5.233 4.243l1.734 1.12.509.367.777.57c.419.275.838.55 1.286.808l5.652 3.415.15-.128-1.017-.625zM28.188 1.904c-1.525-.422-2.96-.422-4.276.386-.538.33-1.107.624-1.675.936l.18.129c.568-.294 1.136-.551 1.674-.863.927-.515 1.944-.68 3.05-.478.27.055.509.11.748.184l.628-.184c-.09-.037-.21-.092-.33-.11zm14.92 11.5l-.179-.33-.03-.092-.15-.22-.12-.166-1.853-1.671a418.049 418.049 0 00-3.798-2.626c-.657-.46-1.285-.937-1.943-1.396-1.196-.937-2.452-1.855-3.559-2.847-.897-.77-1.674-1.579-2.93-2.02l-.628.184c.777.239 1.435.606 1.944 1.047.867.753 1.644 1.56 2.571 2.259 2.183 1.616 4.426 3.195 6.639 4.793.627.44 1.226.918 1.824 1.359.508.44.986.9 1.495 1.359.897 1.175.359 2.112-1.376 2.295l-.688.11-.03.074.599.073c.239-.036.448-.091.687-.128.957-.147 1.495-.588 1.555-1.286.03-.257-.03-.514-.03-.77z"/></g><defs><clipPath id="arclip0"><path d="M0 0h75v44H0z"/></clipPath></defs></symbol><symbol viewBox="0 0 25 20" id="mail" xmlns="http://www.w3.org/2000/svg"><g clip-path="url(#asclip0)"><path d="M16.572 10.239L25 16.4V3.818l-8.428 6.421zM0 3.818V16.4l8.428-6.161L0 3.818zM23.438.153H1.563C.782.153.163.826.046 1.691L12.5 11.179 24.953 1.69C24.836.826 24.217.153 23.438.153zM15.14 11.33l-2.21 1.684a.707.707 0 01-.43.148.707.707 0 01-.43-.148l-2.21-1.686-9.81 7.175c.12.858.736 1.525 1.512 1.525h21.875c.777 0 1.392-.666 1.513-1.525l-9.81-7.173z"/></g><defs><clipPath id="asclip0"><path d="M0 0h25v20H0z"/></clipPath></defs></symbol><symbol viewBox="0 0 16 15" id="marker" xmlns="http://www.w3.org/2000/svg"><g clip-path="url(#atclip0)"><path d="M13.799 3.9C13.235 2.19 11.753.801 9.932.272c-1.928-.56-3.98-.248-5.545.833C2.833 2.18 1.905 3.901 1.905 5.708c0 1.248.42 2.432 1.217 3.427L8 15l4.879-5.866c1.19-1.489 1.526-3.397.919-5.235zM8 8.785c-1.81 0-3.283-1.381-3.283-3.078C4.717 4.011 6.19 2.63 8 2.63c1.81 0 3.282 1.38 3.282 3.077S9.81 8.786 8 8.786z"/><path d="M8 3.516c-1.292 0-2.344.98-2.344 2.192 0 1.212 1.052 2.198 2.345 2.198 1.292 0 2.344-.986 2.344-2.198 0-1.211-1.052-2.192-2.344-2.192z"/></g><defs><clipPath id="atclip0"><path d="M0 0h16v15H0z"/></clipPath></defs></symbol><symbol viewBox="0 0 25 25" id="news" xmlns="http://www.w3.org/2000/svg"><path d="M19.208 13.17h-8.385a.366.366 0 000 .732h8.385a.366.366 0 100-.732zm0 1.578h-8.385a.366.366 0 000 .732h8.385a.366.366 0 000-.732zm0 1.578h-8.385a.366.366 0 100 .733h8.385a.366.366 0 000-.733zm0 1.579h-8.385a.366.366 0 000 .732h8.385a.366.366 0 100-.732zm0 1.578h-8.385a.366.366 0 000 .732h8.385a.366.366 0 100-.732zm0 1.578h-8.385a.366.366 0 100 .733h8.385a.366.366 0 000-.733zM1.944 23.372h17.264a.366.366 0 100-.732H1.944a.366.366 0 000 .732zm-.366-1.944c0 .202.164.366.366.366H8.85a.366.366 0 00.366-.366v-7.892a.366.366 0 00-.366-.366H1.944a.366.366 0 00-.366.366v7.892zm.733-7.526h6.173v7.16H2.31v-7.16zm17.263-8.949a.366.366 0 00-.366-.366H1.944a.366.366 0 00-.366.366v6.61c0 .202.164.366.366.366h17.264a.366.366 0 00.366-.366v-6.61zm-.732 6.244H2.31V5.32h16.53v5.877z"/><path d="M3.39 10.35a.366.366 0 00.366-.366V7.713l1.663 2.408c.11.159.293.227.465.173.177-.055.291-.223.291-.43l-.032-3.336a.366.366 0 00-.366-.362h-.004a.366.366 0 00-.362.37l.022 2.317L3.691 6.33a.366.366 0 00-.668.208v3.446c0 .203.164.367.367.367zm3.967 0h1.455a.366.366 0 000-.732H7.724v-.994h.981a.366.366 0 000-.732h-.981v-.994h1.088a.366.366 0 000-.732H7.357a.366.366 0 00-.366.366v3.452c0 .203.164.367.366.367zm9.367 0c.696 0 1.28-.441 1.388-1.05.082-.455-.128-1.05-.962-1.358-.434-.16-.838-.335-.95-.385a.303.303 0 01-.116-.29c.01-.074.062-.253.32-.33.522-.157.999.222 1.01.231a.366.366 0 00.47-.562c-.031-.026-.782-.645-1.691-.37-.452.136-.772.49-.835.927-.058.407.118.799.461 1.022.016.01.033.02.05.027.02.01.494.22 1.028.417.352.13.533.328.494.543-.039.22-.3.446-.667.446-.362 0-.71-.146-.932-.391a.366.366 0 00-.543.492c.359.395.91.632 1.475.632zm-6.02-.346a.444.444 0 00.433.347h.003a.444.444 0 00.417-.302l.003-.01.701-2.263.698 2.264a.445.445 0 00.423.31h.003a.444.444 0 00.43-.347l.675-3.393a.366.366 0 10-.718-.143l-.45 2.263-.711-2.306h-.002a.365.365 0 00-.698.006l-.712 2.3-.45-2.27a.366.366 0 00-.718.143l.673 3.4z"/><path d="M23.72 0h-6.797a.366.366 0 000 .732h5.562a1.32 1.32 0 00-.141.596v8.316a.366.366 0 10.732 0V1.328a.605.605 0 01.607-.596c.309.004.584.286.585.62v21.431c0 .819-.7 1.485-1.558 1.485-.859 0-1.557-.666-1.557-1.485v-2.765h.57c.746 0 1.353-.607 1.353-1.352v-7.314a.366.366 0 00-.732 0v7.314a.62.62 0 01-.62.62h-.571V4.41c0-.746-.607-1.353-1.353-1.353H2.755v-1.73c0-.328.267-.596.595-.596h11.864a.366.366 0 000-.732H3.35a1.33 1.33 0 00-1.328 1.328v1.73h-.67A1.357 1.357 0 000 4.411v10.797a.366.366 0 00.732 0V4.412a.62.62 0 01.62-.62H19.8a.62.62 0 01.62.62v18.372c0 .57.224 1.091.59 1.485H2.29c-.859 0-1.558-.666-1.558-1.485v-5.866a.366.366 0 10-.732 0v5.866C0 24.006 1.027 25 2.29 25h20.42c1.263 0 2.29-.994 2.29-2.217V1.351c0-.732-.562-1.325-1.28-1.35z"/></symbol><symbol viewBox="0 0 70 70" id="patient" xmlns="http://www.w3.org/2000/svg"><path d="M53.824 48.147l-14.897-3.194-3.785-5.25a13.124 13.124 0 006.366-10.172h1.148a3.29 3.29 0 003.282-3.281v-2.188a3.273 3.273 0 00-2.866-3.237l1.269-1.269a5.46 5.46 0 001.596-3.872V14.22a12.039 12.039 0 00-12.03-12.031H22.968a12.04 12.04 0 00-12.032 12.03v1.466a5.463 5.463 0 001.597 3.872l1.27 1.269a3.272 3.272 0 00-2.867 3.238v2.187a3.291 3.291 0 003.282 3.281h1.148a13.125 13.125 0 006.366 10.172l-3.785 5.25-14.896 3.194a1.094 1.094 0 00-.865 1.072v13.125a1.103 1.103 0 00.908 1.083l25.157 4.375c.123.014.248.014.371 0l25.157-4.375a1.102 1.102 0 00.907-1.083V49.219a1.093 1.093 0 00-.863-1.072zM43.75 24.063v2.187a1.094 1.094 0 01-1.094 1.094h-1.093v-4.375h1.093a1.094 1.094 0 011.094 1.093zm-28.438 3.28H14.22a1.094 1.094 0 01-1.094-1.093v-2.188a1.093 1.093 0 011.094-1.093h1.094v4.375zm0-10.937v2.833l-1.224-1.236a3.281 3.281 0 01-.963-2.319V14.22a9.86 9.86 0 019.844-9.844h10.937a9.86 9.86 0 019.844 9.844v1.465c0 .87-.347 1.704-.962 2.32l-1.225 1.235v-2.833a1.093 1.093 0 00-.81-1.06L24.347 10.97a1.154 1.154 0 00-.831.11l-7.657 4.375a1.094 1.094 0 00-.546.951zM17.5 28.438V17.04l6.716-3.84 15.159 4.047v11.19a10.937 10.937 0 11-21.875 0zm6.234 12.239a12.927 12.927 0 009.407 0l3.38 4.692-8.084 2.701-8.082-2.701 3.38-4.692zm11.31 7.492l-6.606 8.072-6.607-8.072 6.256 2.089c.227.076.474.076.7 0l6.257-2.09zm10.894 14.394l-6.563 1.148v-5.742h6.563v4.593zm6.562-1.138l-4.375.755v-5.305a1.094 1.094 0 00-1.094-1.094h-8.75a1.094 1.094 0 00-1.093 1.094v7.208l-8.75 1.52-24.063-4.178v-11.32l13.792-2.953 9.428 11.506a1.08 1.08 0 001.685 0l9.428-11.506L52.5 50.105v11.32z"/><path d="M47.978 42.11l2.735-4.737.947.547a1.095 1.095 0 001.496-.404l1.64-2.844.948.547a1.094 1.094 0 001.494-.4l8.75-15.157a1.093 1.093 0 00-.4-1.494l-2.844-1.64 1.094-1.895 1.894 1.094 1.094-1.895-5.687-3.28-1.094 1.894 1.894 1.093-1.094 1.895-2.843-1.64a1.094 1.094 0 00-1.495.4l-8.75 15.156a1.094 1.094 0 00.4 1.494l.947.546-1.64 2.844a1.095 1.095 0 00.4 1.494l.948.547-2.734 4.736 1.9 1.098zm9.881-25.868l5.688 3.281-1.094 1.894-2.844-1.641-1.093 1.894 2.843 1.641-1.093 1.894-2.844-1.64-1.094 1.895 2.844 1.64-1.094 1.894-2.844-1.64-1.093 1.895 2.843 1.64-1.093 1.895-.945-.547-1.895-1.094-2.843-1.64 7.651-13.26zM52.9 33.584l-1.093 1.895-1.895-1.094 1.094-1.894 1.894 1.093zm1.467 6.111l-1.546 1.547 4.375 4.375c.205.205.483.32.773.32h9.843V43.75h-9.39l-4.055-4.055zm2.508 8.43h2.188v2.188h-2.188v-2.188zm4.375 0h6.563v2.188H61.25v-2.188zM56.875 52.5h10.938v2.188H56.874V52.5zM37.794 22.785l-1.213-1.82a4.812 4.812 0 01-5.349 0l-1.214 1.82a6.99 6.99 0 007.776 0zm-17.5-1.82l-1.213 1.82a6.99 6.99 0 007.776 0l-1.214-1.82a4.812 4.812 0 01-5.349 0zM6.563 53.594H8.75v2.187H6.562v-2.187zm4.375 0h8.75v2.187h-8.75v-2.187zM61.25 39.375h6.563v2.188H61.25v-2.188z"/></symbol><symbol viewBox="0 0 20 18" id="phone" xmlns="http://www.w3.org/2000/svg"><g clip-path="url(#awclip0)"><path d="M8.548 10.546C6.783 8.828 6.384 7.11 6.295 6.422a.607.607 0 01.182-.516l1.428-1.39a.608.608 0 00.09-.768L5.721.31a.648.648 0 00-.826-.226L1.243 1.758a.614.614 0 00-.35.616c.191 1.77.983 6.118 5.374 10.392 4.39 4.274 8.857 5.044 10.676 5.23a.638.638 0 00.633-.34l1.72-3.555a.611.611 0 00-.231-.802l-3.532-2.213a.65.65 0 00-.789.086l-1.428 1.39a.644.644 0 01-.53.178c-.707-.088-2.473-.476-4.238-2.194z"/><path d="M15.557 9.62A.63.63 0 0114.92 9c-.003-2.57-2.143-4.652-4.783-4.655a.63.63 0 01-.638-.62.63.63 0 01.638-.622c3.344.004 6.054 2.642 6.058 5.897a.63.63 0 01-.638.62z"/><path d="M18.746 9.62a.63.63 0 01-.638-.62c-.005-4.283-3.57-7.754-7.971-7.759a.63.63 0 01-.638-.62.63.63 0 01.638-.621c5.104.005 9.24 4.032 9.247 9a.612.612 0 01-.187.439.647.647 0 01-.451.182z"/></g><defs><clipPath id="awclip0"><path transform="translate(.89)" d="M0 0h18.493v18H0z"/></clipPath></defs></symbol><symbol viewBox="0 0 55 55" id="quote" xmlns="http://www.w3.org/2000/svg"><g clip-path="url(#axclip0)"><path d="M41.401 17.137a9.317 9.317 0 00-6.853.537 8.499 8.499 0 01-.32-.548c-.548-1.01-1.456-4.514-1.9-6.485l-.453-2.017-6.013 3.265-.05.868c-.02.344-.433 8.538 4.605 17.817 2.467 4.543 8.17 6.232 12.713 3.765 4.543-2.466 6.232-8.169 3.765-12.712a9.32 9.32 0 00-5.494-4.49zm.238 14.456a6.257 6.257 0 01-8.475-2.51c-3.703-6.82-4.189-13.09-4.236-15.302l.833-.453c.447 1.765 1.126 4.193 1.72 5.289.473.87.917 1.533 1.548 1.945.563.367 1.486.666 2.694.02l.06-.032c3-1.554 6.753-.402 8.366 2.568a6.257 6.257 0 01-2.51 8.475zm-18.912-4.317a9.318 9.318 0 00-6.854.538 8.583 8.583 0 01-.32-.549c-.548-1.01-1.456-4.513-1.899-6.484l-.454-2.017-6.013 3.265-.05.868c-.02.344-.432 8.537 4.606 17.816 2.466 4.543 8.169 6.233 12.712 3.766 4.543-2.467 6.232-8.17 3.765-12.712a9.32 9.32 0 00-5.493-4.491zm.237 14.457a6.257 6.257 0 01-8.475-2.51c-3.703-6.82-4.189-13.091-4.236-15.303l.833-.452c.447 1.765 1.126 4.193 1.72 5.288.473.87.917 1.534 1.549 1.945.562.367 1.485.667 2.693.02l.061-.031c3-1.555 6.752-.403 8.365 2.568a6.257 6.257 0 01-2.51 8.475z"/></g><defs><clipPath id="axclip0"><path transform="rotate(-28.5 37.576 9.543)" d="M0 0h40v40H0z"/></clipPath></defs></symbol><symbol viewBox="0 0 25 25" id="support" xmlns="http://www.w3.org/2000/svg"><path d="M23.797 10.938h-1.922V8.594h1.922a.39.39 0 00.34-.196.408.408 0 000-.39 3.509 3.509 0 00-4.82-1.274l.976-1.629a.396.396 0 00-.059-.476l-2.207-2.207a.396.396 0 00-.476-.059L15.395 3.66a.238.238 0 01-.22 0 .207.207 0 01-.124-.137l-.61-2.445a.39.39 0 00-.379-.297h-3.124a.39.39 0 00-.38.297L9.95 3.523a.207.207 0 01-.125.137.19.19 0 00-.027.012.215.215 0 01-.188-.012L7.45 2.363a.396.396 0 00-.476.059L4.766 4.629a.396.396 0 00-.059.476l.98 1.63A3.515 3.515 0 00.864 8.007a.408.408 0 000 .39.39.39 0 00.34.196h1.922v2.344H1.203a.39.39 0 00-.34.195.408.408 0 000 .39 3.51 3.51 0 004.282 1.532 3.203 3.203 0 00-.067.613c0 .032.004.063.012.094l.785 3.14a7.632 7.632 0 001.938 3.035v3.11a1.175 1.175 0 001.171 1.172h7.032a1.175 1.175 0 001.172-1.172v-2.98a7.285 7.285 0 002.296-3.489.226.226 0 00.012-.055l.57-3.398c.333.104.68.156 1.028.156a3.519 3.519 0 003.043-1.758.407.407 0 000-.39.39.39 0 00-.34-.195zM5.535 4.965L7.31 3.19l1.906 1.141a.98.98 0 00.89.055c.008 0 .012-.004.02-.008a.979.979 0 00.582-.668l.535-2.148h2.516l.535 2.148a.979.979 0 00.582.668c.008.004.012.008.02.008a.99.99 0 00.895-.055l1.901-1.14 1.774 1.773-1.059 1.762a1.15 1.15 0 00-.437-.086h-.782c-.289 0-.567.109-.78.304a1.162 1.162 0 00-.782-.304h-.031a4.682 4.682 0 00-7.356 1.562H7.055a4.067 4.067 0 00-.305-.5.995.995 0 00-.074-.836l-1.14-1.902zM18.36 7.813v3.906a.39.39 0 01-.39.39h-.782a.39.39 0 01-.39-.39V7.813a.39.39 0 01.39-.391h.782a.39.39 0 01.39.39zm-2.343 0v3.906a.39.39 0 01-.391.39h-.781a.391.391 0 01-.39-.39V7.813a.39.39 0 01.39-.391h.781a.39.39 0 01.39.39zM13.28 6.64h-.78c-.29 0-.568.109-.781.304a1.162 1.162 0 00-.781-.304h-.153a3.929 3.929 0 013.598.093 1.2 1.2 0 00-.32.211 1.162 1.162 0 00-.782-.304zm.39 1.171v2.801a1.279 1.279 0 00-.39-.066h-1.17V7.812a.39.39 0 01.391-.39h.781a.39.39 0 01.39.39zm-2.343 0v2.735H9.766V7.812a.39.39 0 01.39-.39h.781a.39.39 0 01.391.39zM3.906 12.5a2.747 2.747 0 01-1.914-.781h1.524a.39.39 0 00.39-.39V8.202a.39.39 0 00-.39-.39H1.992a2.75 2.75 0 011.914-.782 2.718 2.718 0 012.532 1.707.39.39 0 00.363.246h2.183v1.563H6.801a.382.382 0 00-.36.242c-.066.164-.149.32-.246.469-.214.18-.403.39-.562.62a2.72 2.72 0 01-1.727.622zm14.824 3.867a6.668 6.668 0 01-2.19 3.23.382.382 0 00-.134.294v3.156a.39.39 0 01-.39.39H8.984a.39.39 0 01-.39-.39v-3.27a.4.4 0 00-.117-.28c-.438-.427-1.493-1.548-1.848-2.794l-.77-3.082a2.36 2.36 0 011.98-2.293h5.442a.376.376 0 01.39.39 1.953 1.953 0 01-1.952 1.954H8.984v.781h1.246l.122.074c.808.493 1.507.918 1.77 1.973.14.581.14 1.188 0 1.77l.757.18a4.491 4.491 0 000-2.137 3.277 3.277 0 00-1.234-1.86h.074a2.726 2.726 0 002.535-1.726c.177.106.38.163.586.164h.785c.29-.001.568-.11.781-.305.214.195.492.304.782.305h.78a1.168 1.168 0 001.13-.875c.101.144.199.293.285.441l-.652 3.91zm2.364-3.867c-.313 0-.624-.054-.918-.16a.386.386 0 00-.043-.145 3.856 3.856 0 00-.992-1.258V7.86a2.727 2.727 0 013.867-.046h-1.524a.39.39 0 00-.39.39v3.125a.39.39 0 00.39.39h1.524a2.75 2.75 0 01-1.914.782z"/><path d="M22.266 20.703v-3.125a.39.39 0 00-.391-.39h-1.953v.78h1.562v3.126a.39.39 0 00.391.39h2.344v-.78h-1.953zm-2.344.391a.391.391 0 00-.39-.39h-1.563v.78h1.172v2.344a.39.39 0 00.39.39h4.688v-.78h-4.297v-2.344zm-16.406 0v-3.125h1.562v-.782H3.125a.39.39 0 00-.39.391v3.125H.78v.781h2.344a.39.39 0 00.39-.39zm1.562 0v2.343H.781v.782H5.47a.39.39 0 00.39-.39v-2.345h1.172v-.78H5.47a.39.39 0 00-.39.39z"/></symbol><symbol viewBox="0 0 70 70" id="team" xmlns="http://www.w3.org/2000/svg"><g clip-path="url(#azclip0)"><path d="M34.732 8.868a1.38 1.38 0 001.382-1.378V1.346A1.38 1.38 0 0034.732-.03a1.38 1.38 0 00-1.383 1.377V7.49c0 .76.62 1.378 1.383 1.378zm33.796 38.425l-2.442-2.427a4.591 4.591 0 00-3.261-1.34c-.789 0-1.547.195-2.218.561l-4.602-4.58.224-.223a4.768 4.768 0 00-2.407-8.047c.125-.43.19-.88.19-1.34 0-1.28-.498-2.48-1.401-3.376a4.752 4.752 0 00-2.407-1.297c.125-.43.19-.88.19-1.34a4.72 4.72 0 00-1.403-3.377 4.774 4.774 0 00-2.405-1.293 4.777 4.777 0 00-1.21-4.72 4.81 4.81 0 00-3.904-1.364l-9.12-1.72c-1.391-.263-3.128-.437-4.225.56a2.41 2.41 0 00-.21.216 4.821 4.821 0 00-5.044 1.105 4.73 4.73 0 00-1.4 3.377c0 .46.065.91.19 1.34a4.745 4.745 0 00-2.403 1.294 4.724 4.724 0 00-1.405 3.373c0 .462.066.913.191 1.344a4.754 4.754 0 00-2.405 1.293c-.905.9-1.404 2.1-1.404 3.378 0 .98.293 1.912.837 2.7a4.768 4.768 0 00-1.84 7.897l.223.221-4.603 4.578a4.636 4.636 0 00-5.23.903L1.18 47.417a4.552 4.552 0 00-1.348 3.25c0 1.23.478 2.383 1.348 3.248l3.05 3.036c.54.537 1.415.537 1.955-.001.54-.539.539-1.41-.001-1.948l-3.05-3.036a1.82 1.82 0 01-.537-1.3c0-.493.19-.955.536-1.299l2.444-2.428a1.856 1.856 0 012.255-.275 1.393 1.393 0 00.571.487L22.42 61.095a1.374 1.374 0 00.667.67c.296.335.46.761.46 1.216 0 .494-.19.955-.537 1.3l-2.441 2.43a1.862 1.862 0 01-2.615.002l-3.05-3.04a1.386 1.386 0 00-1.955 0c-.54.539-.54 1.41 0 1.949L16 68.663A4.612 4.612 0 0019.26 70c1.18 0 2.362-.446 3.261-1.338l2.444-2.432a4.552 4.552 0 001.348-3.249c0-.878-.245-1.717-.701-2.44l5.18-5.155.017-.017c.593-.61 2.245-.496 3.843-.386 1.135.079 2.4.166 3.637.024l5.673 5.646a4.56 4.56 0 00-.563 2.206 4.55 4.55 0 001.347 3.247l2.444 2.432a4.59 4.59 0 003.26 1.34 4.59 4.59 0 003.261-1.34l14.82-14.746a4.551 4.551 0 001.347-3.25c0-1.23-.479-2.384-1.349-3.25zM31.837 14.117l5.997 1.131-3.59 3.575c-.555-.266-1.316-.762-2.15-1.557-1.144-1.09-1.961-2.347-2.036-3.132v-.001a1.21 1.21 0 01-.006-.136c.18-.044.661-.092 1.785.12zm-7.01 1.123a2.045 2.045 0 012.58-.244c.449 1.874 2.053 3.572 2.775 4.26.535.51 2.25 2.039 3.983 2.459.234.335.362.734.362 1.155a2.016 2.016 0 01-2.026 2.018 2.018 2.018 0 01-1.438-.591l-6.236-6.202a1.998 1.998 0 01-.59-1.427 2 2 0 01.59-1.428zm-3.613 6.011c.38-.38.89-.589 1.434-.589.546 0 1.056.21 1.44.591l5.02 4.992c.79.79.79 2.073.003 2.86a2.03 2.03 0 01-1.44.588 2.028 2.028 0 01-1.439-.587l-3.81-3.794-.018-.018-1.191-1.186a2.002 2.002 0 01-.593-1.43c.001-.541.21-1.046.594-1.427zm-3.62 6.01a2.023 2.023 0 011.438-.587 2.02 2.02 0 011.426.577l3.821 3.805c.381.378.59.885.59 1.426 0 .542-.209 1.048-.591 1.428a2.02 2.02 0 01-1.436.587c-.546 0-1.057-.21-1.438-.587l-1.386-1.378v-.001l-2.423-2.411a2.002 2.002 0 01-.592-1.43c0-.541.21-1.05.592-1.43zm-2.407 7.22c.382-.38.893-.59 1.438-.59.546 0 1.056.21 1.439.59l1.387 1.38c.38.378.59.884.59 1.426a2.017 2.017 0 01-2.03 2.018 2.019 2.019 0 01-1.437-.592l-.174-.172-.006-.007-.008-.007-1.198-1.19a2.018 2.018 0 01-.001-2.856zm28.176 15.655a1.386 1.386 0 00-1.956 0l-1.23 1.223c-1.169 1.165-3.286 1.018-5.335.877-2.224-.154-4.524-.313-6.012 1.209l-5.093 5.068-12.735-12.67 4.507-4.482a4.786 4.786 0 002.504.699c1.284 0 2.49-.496 3.39-1.395a4.725 4.725 0 001.404-3.378v-.035h.035a4.77 4.77 0 003.388-1.391 4.725 4.725 0 001.405-3.378v-.036h.036a4.786 4.786 0 003.394-1.394 4.756 4.756 0 001.4-3.411h.036c1.285 0 2.49-.496 3.391-1.395a4.73 4.73 0 001.4-3.377c0-.895-.243-1.75-.698-2.49l3.95-3.934a2.031 2.031 0 011.038-.551 2.039 2.039 0 011.84.548c.79.789.79 2.073.003 2.859l-1.203 1.194-.013.011-1.385 1.378a1.374 1.374 0 00-.002 1.948c.54.539 1.416.54 1.956.002l1.208-1.202v-.001l.183-.181a2.042 2.042 0 012.87.007c.38.378.59.884.59 1.426 0 .541-.21 1.048-.594 1.429l-1.21 1.208-1.386 1.375a1.374 1.374 0 00-.004 1.948c.54.54 1.415.54 1.956.004l1.392-1.38c.38-.38.89-.59 1.435-.59a2.02 2.02 0 011.436 3.446l-2.412 2.405c-.54.538-.54 1.41 0 1.948.27.269.624.403.978.403s.708-.135.978-.404l1.182-1.178.02-.019c.381-.38.89-.588 1.436-.588a2.017 2.017 0 011.437 3.445l-1.202 1.196-.001.001-.002.002-1.907 1.898a1.375 1.375 0 00.977 2.352c.353 0 .707-.134.977-.403l.933-.928 4.472 4.45-12.734 12.672-4.562-4.54c.318-.204.622-.444.908-.728l1.23-1.224c.54-.537.54-1.41 0-1.948zm23.212 1.706L51.756 66.588c-.347.345-.81.535-1.307.535-.495 0-.96-.19-1.306-.535l-2.444-2.431a1.817 1.817 0 01-.536-1.298c0-.492.19-.953.536-1.298l14.82-14.746c.346-.345.81-.535 1.306-.535s.96.19 1.308.536l2.442 2.426c.346.345.537.806.537 1.3s-.19.956-.537 1.3zM16.372 7.707a1.384 1.384 0 001.956-.002 1.374 1.374 0 00-.002-1.948L13.288.747a1.386 1.386 0 00-1.956.002 1.375 1.375 0 00.002 1.948l5.038 5.01zm35.742.402c.354 0 .708-.134.978-.403l5.034-5.01c.54-.537.54-1.41.001-1.948a1.386 1.386 0 00-1.955 0l-5.035 5.01a1.373 1.373 0 000 1.947c.27.27.623.404.977.404z"/><path d="M8.333 59.222a1.374 1.374 0 00.017 1.948l.004.004a1.383 1.383 0 001.953-.019 1.376 1.376 0 00-.019-1.95 1.386 1.386 0 00-1.955.017zm38.411-11.07c.21 0 .424-.048.624-.148a1.375 1.375 0 00.612-1.85 1.385 1.385 0 00-1.857-.61l-.008.004a1.371 1.371 0 00-.608 1.848c.243.48.731.756 1.237.756z"/></g><defs><clipPath id="azclip0"><path d="M0 0h70v70H0z"/></clipPath></defs></symbol><symbol viewBox="0 0 20 20" id="twitter" xmlns="http://www.w3.org/2000/svg"><path d="M.394 16.33a11.607 11.607 0 006.232 1.795c3.258 0 6.244-1.252 8.408-3.524a11.436 11.436 0 003.153-8.063c.785-.672 1.709-1.955 1.709-3.205a.626.626 0 00-.942-.539c-.737.434-1.41.547-2.102.353-1.412-1.377-3.514-1.667-5.286-.712-1.549.833-2.41 2.358-2.332 4.025a10.356 10.356 0 01-6.717-3.669.626.626 0 00-1.022.083c-.812 1.39-.803 3.001-.098 4.302a.65.65 0 00-.543.647c0 1.308.588 2.51 1.536 3.33a.624.624 0 00-.16.647 4.487 4.487 0 002.54 2.72 7.277 7.277 0 01-3.964.662c-.653-.088-.976.79-.412 1.147zm6.403-1.596c.467-.359.219-1.107-.368-1.12a3.26 3.26 0 01-2.56-1.331c.283-.019.575-.062.853-.137.635-.172.605-1.087-.04-1.216a3.208 3.208 0 01-2.43-2.183c.314.077.634.12.953.126.632.004.872-.807.356-1.146-1.163-.766-1.658-2.119-1.33-3.39a11.62 11.62 0 007.697 3.436.624.624 0 00.64-.765c-.396-1.715.562-2.918 1.591-3.472 1.018-.55 2.653-.722 3.907.593.372.393 1.629.408 2.268.259-.287.54-.727 1.052-1.14 1.34a.625.625 0 00-.266.543c.134 2.737-.886 5.46-2.798 7.467-1.927 2.022-4.59 3.136-7.503 3.136-1.159 0-2.295-.188-3.368-.551a8.44 8.44 0 003.538-1.589z"/></symbol><symbol viewBox="0 0 20 20" id="whatsapp" xmlns="http://www.w3.org/2000/svg"><g clip-path="url(#bbclip0)"><path d="M17.16 2.84A9.635 9.635 0 0010.3 0C9.018 0 7.77.248 6.588.738A9.65 9.65 0 003.443 2.84a9.635 9.635 0 00-2.84 6.858 9.73 9.73 0 001.078 4.448l-1.63 4.657a.891.891 0 00.213.932.891.891 0 00.932.213l4.657-1.63a9.727 9.727 0 004.448 1.079 9.636 9.636 0 006.858-2.841A9.635 9.635 0 0020 9.699a9.635 9.635 0 00-2.84-6.858zm-.83 12.887a8.469 8.469 0 01-6.029 2.498 8.547 8.547 0 01-4.002-.997.903.903 0 00-.72-.056l-4.232 1.481 1.481-4.231a.904.904 0 00-.056-.721 8.547 8.547 0 01-.997-4.002A8.47 8.47 0 014.272 3.67 8.47 8.47 0 0110.3 1.173h.001A8.47 8.47 0 0116.33 3.67a8.469 8.469 0 012.497 6.03 8.47 8.47 0 01-2.497 6.028z"/><path d="M13.906 10.565a1.146 1.146 0 00-1.619 0l-.488.488a7.103 7.103 0 01-2.852-2.852l.488-.488a1.145 1.145 0 000-1.619L8.12 4.78a1.146 1.146 0 00-1.619 0L5.45 5.831c-.602.603-.632 1.639-.084 2.917.475 1.11 1.346 2.33 2.451 3.436 1.106 1.105 2.326 1.976 3.436 2.451.607.26 1.16.39 1.637.39.528 0 .963-.158 1.28-.474l1.052-1.052a1.144 1.144 0 000-1.619l-1.315-1.315zm-.567 3.156c-.172.172-.7.232-1.625-.164-.976-.418-2.066-1.2-3.068-2.203-1.002-1.002-1.785-2.091-2.203-3.068-.396-.924-.336-1.453-.164-1.625L7.31 5.629l1.274 1.275-.61.61a.895.895 0 00-.166 1.043 8.275 8.275 0 003.634 3.635.895.895 0 001.043-.166l.61-.611 1.275 1.275-1.032 1.031z"/></g><defs><clipPath id="bbclip0"><path d="M0 0h20v20H0z"/></clipPath></defs></symbol></svg>