<svg width="27" height="16" fill="none" xmlns="http://www.w3.org/2000/svg"><g clip-path="url(#clip0)"><path d="M28.507.056H1.11v16h27.397v-16z" fill="#F0F0F0"/><path d="M28.507 2.056H1.11v2h27.397v-2zm0 4H1.11v2h27.397v-2zm0 4H1.11v2h27.397v-2zm0 4H1.11v2h27.397v-2z" fill="#D80027"/><path d="M14.808.056H1.11v8.616h13.698V.056z" fill="#2E52B2"/><path d="M6.451 3.586l-.22.594h-.714l.577.367-.22.595.577-.367.577.367-.22-.595.577-.367h-.714l-.22-.594zm.22 2.74l-.22-.595-.22.595h-.714l.577.367-.22.595.577-.368.577.368-.22-.595.577-.367h-.714zm-3.016 0l-.22-.595-.22.595H2.5l.577.367-.22.595.577-.368.577.368-.22-.595.577-.367h-.714zm-.22-2.74l-.22.594H2.5l.577.367-.22.595.577-.367.577.367-.22-.595.577-.367h-.714l-.22-.594zM6.451 1.44l-.22.595h-.714l.577.367-.22.594.577-.367.577.367-.22-.594.577-.367h-.714l-.22-.595zm-3.016 0l-.22.595H2.5l.577.367-.22.594.577-.367.577.367-.22-.594.577-.367h-.714l-.22-.595zm6.032 2.146l-.22.594h-.714l.577.367-.22.595.577-.367.577.367-.22-.595.577-.367h-.714l-.22-.594zm.22 2.74l-.22-.595-.22.595h-.714l.577.367-.22.595.577-.368.577.368-.22-.595.577-.367h-.714zm3.016 0l-.22-.595-.22.595h-.714l.577.367-.22.595.577-.368.577.368-.22-.595.577-.367h-.714zm-.22-2.74l-.22.594h-.714l.577.367-.22.595.577-.367.577.367-.22-.595.577-.367h-.714l-.22-.594zM9.467 1.44l-.22.595h-.714l.577.367-.22.594.577-.367.577.367-.22-.594.577-.367h-.714l-.22-.595zm3.016 0l-.22.595h-.714l.577.367-.22.594.577-.367.577.367-.22-.594.577-.367h-.714l-.22-.595z" fill="#F0F0F0"/></g><defs><clipPath id="clip0"><path fill="#fff" transform="translate(.63)" d="M0 0h25.685v16H0z"/></clipPath></defs></svg>