<svg width="15" height="30" fill="none" xmlns="http://www.w3.org/2000/svg"><g clip-path="url(#clip0)"><path d="M14.421 30a.619.619 0 01-.445-.19L.126 15.465a.669.669 0 010-.922L13.976.2a.614.614 0 01.89-.016.669.669 0 010 .938L1.462 15.004l13.405 13.882a.669.669 0 01.001.922.619.619 0 01-.447.192z" fill="#F44336"/><path d="M14.421 30a.619.619 0 01-.445-.19L.126 15.465a.669.669 0 010-.922L13.976.2a.614.614 0 01.89-.016.669.669 0 010 .938L1.462 15.004l13.405 13.882a.669.669 0 01.001.922.619.619 0 01-.447.192z" fill="#4F4F4F"/></g><defs><clipPath id="clip0"><path fill="#fff" d="M0 0h15v30H0z"/></clipPath></defs></svg>