<svg width="15" height="30" fill="none" xmlns="http://www.w3.org/2000/svg"><g clip-path="url(#clip0)"><path d="M.579 0c.167 0 .327.068.445.19l13.85 14.345a.669.669 0 010 .922L1.024 29.8a.614.614 0 01-.89.016.669.669 0 010-.938l13.404-13.883L.133 1.114A.669.669 0 01.132.192.619.619 0 01.579 0z" fill="#F44336"/><path d="M.579 0c.167 0 .327.068.445.19l13.85 14.345a.669.669 0 010 .922L1.024 29.8a.614.614 0 01-.89.016.669.669 0 010-.938l13.404-13.883L.133 1.114A.669.669 0 01.132.192.619.619 0 01.579 0z" fill="#4F4F4F"/></g><defs><clipPath id="clip0"><path fill="#fff" transform="rotate(180 7.5 15)" d="M0 0h15v30H0z"/></clipPath></defs></svg>