<svg width="100" height="100" fill="none" xmlns="http://www.w3.org/2000/svg"><path d="M100 50a49.77 49.77 0 01-9.63 29.504c-9.097 12.426-23.792 7.72-40.37 7.72-16.578 0-31.273 4.706-40.37-7.72A49.77 49.77 0 010 50C0 22.387 22.387 0 50 0s50 22.387 50 50z" fill="#EF9B14"/><path d="M50 87.223c16.578 0 31.273 4.707 40.37-7.72A49.77 49.77 0 00100 50a50.48 50.48 0 00-.416-6.474L69.17 13.113l-39.066 29.44 8.697 8.62c.837 3.081 5.152 7.258 7.423 9.309l-7.167 10.221-29.426 8.8v.001c9.096 12.426 23.79 7.72 40.369 7.72z" fill="#DB8200"/><path d="M39.057 53.295h21.886v23.21H39.057v-23.21z" fill="#F7A969"/><path d="M50 53.295h10.943v23.211H50v-23.21z" fill="#EA8D4E"/><path d="M90.37 79.504C81.272 91.93 66.577 100 50 100c-16.578 0-31.273-8.07-40.37-20.496.25-8.108 6.903-14.604 15.071-14.604h12.115v1.994c0 7.282 5.903 13.184 13.184 13.184s13.184-5.902 13.184-13.184V64.9H75.3c8.17 0 14.82 6.494 15.068 14.604z" fill="#584B66"/><path d="M90.37 79.504C81.272 91.93 66.577 100 50 100V80.078c7.281 0 13.184-5.902 13.184-13.184V64.9H75.3c8.17 0 14.82 6.494 15.068 14.604z" fill="#3D3449"/><path d="M68.35 64.9v.084c0 10.118-8.23 18.35-18.35 18.35-10.12 0-18.35-8.232-18.35-18.35V64.9h7.407c.642 3.672 3.14 10.832 10.943 10.832 7.803 0 10.3-7.16 10.943-10.832h7.407z" fill="#D6CFBD"/><path d="M68.35 64.9v.084c0 10.118-8.23 18.35-18.35 18.35v-7.602c7.803 0 10.3-7.16 10.943-10.832h7.407z" fill="#BAB3A2"/><path d="M68.285 29.521C67.513 17.794 58.027 13.461 50 13.461c-8.027 0-17.513 4.333-18.285 16.06-2.076.402-3.55 3.124-3.318 5.325l.356 5.01c.243 2.311 2.275 4 4.514 3.748l.386-.042C38.24 55.88 45.434 57.163 50 57.884c4.566-.72 11.76-2.005 16.347-14.322l.386.042c2.239.251 4.27-1.436 4.514-3.748l.356-5.01c.232-2.2-1.242-4.923-3.318-5.325z" fill="#FFBF85"/><path d="M71.603 34.846l-.355 5.01c-.244 2.311-2.276 4-4.515 3.748l-.386-.042c-1.568 4.205-3.438 7.125-5.403 9.174-3.79 3.954-7.936 4.673-10.944 5.148V13.46c8.027 0 17.513 4.334 18.285 16.061 2.076.402 3.55 3.124 3.318 5.325z" fill="#F7A969"/><path d="M53.872 39.946a5.978 5.978 0 00-7.744 0 14.626 14.626 0 01-8.883 3.47l-3.592.146.241 1.448A16.327 16.327 0 0050 58.66a17.463 17.463 0 0016.259-14.572l.087-.525-3.592-.145a14.626 14.626 0 01-8.882-3.471z" fill="#EFEBDC"/><path d="M66.346 43.563l-.086.525c-.67 4.033-2.44 7.781-5.317 10.36-2.877 2.578-6.861 3.986-10.943 4.21V38.522c1.379 0 2.758.474 3.873 1.423a14.607 14.607 0 008.88 3.471l3.593.147z" fill="#D6CFBD"/><path d="M49.121 4.102c-7.727-.305-11.305 2.117-11.296 5.36-16.817 5.176-8.707 22.174-8.707 22.174 7.84.16 12.199-6.983 14.06-11.112a52.333 52.333 0 003.341 3.895c7.068 5.888 15.687 4.206 15.687 4.206 5.175 5.677 14.16 3.574 14.16 3.574C74.609 4.076 49.12 4.102 49.12 4.102z" fill="#FFEA92"/><path d="M76.365 32.2s-8.984 2.103-14.16-3.575c0 0-6.074 1.186-12.205-1.918V4.14c4.434.297 24.803 3.025 26.365 28.06z" fill="#F7D854"/></svg>