<svg width="100" height="100" fill="none" xmlns="http://www.w3.org/2000/svg"><path d="M100 50c0 11.33-3.77 21.78-10.121 30.164C80.75 92.214 66.283 78.711 50 78.711c-16.283 0-30.75 13.504-39.879 1.453A49.782 49.782 0 010 50C0 22.387 22.387 0 50 0s50 22.387 50 50z" fill="#EF9B14"/><path d="M50 78.711c16.283 0 30.75 13.504 39.879 1.453A49.781 49.781 0 00100 50c0-2.166-.138-4.3-.406-6.394L65.626 9.637l-36.665 17.8 3.563 3.565-2.545 9.43 7.117 7.091c.834 3.01 5.436 3.095 7.644 5.118l-2.455 20.812-32.164 6.711C19.25 92.214 33.717 78.711 50 78.711z" fill="#DB8200"/><path d="M39.057 50.242h21.886v23.21H39.057v-23.21z" fill="#FFBB7D"/><path d="M50 50.242h10.943v23.211H50v-23.21z" fill="#EFA36A"/><path d="M50 70.838H35.286v-8.2h10.228A4.486 4.486 0 0150 67.124v3.714z" fill="#FFEA92"/><path d="M50 70.838h14.713v-8.2H54.486A4.486 4.486 0 0050 67.124v3.714z" fill="#F7D854"/><path d="M89.879 80.164C80.75 92.214 66.283 100 50 100c-16.283 0-30.75-7.785-39.879-19.836 1.705-6.457 7.588-11.219 14.58-11.219h50.6c6.994 0 12.875 4.76 14.578 11.22z" fill="#4779F4"/><path d="M89.879 80.164C80.75 92.214 66.283 100 50 100V68.945h25.3c6.995 0 12.876 4.76 14.579 11.22z" fill="#2357CC"/><path d="M59.796 77.485h15.27v6.931h-15.27v-6.93z" fill="#D6CFBD"/><path d="M68.285 27.52C67.513 15.791 58.027 11.457 50 11.457c-8.027 0-17.513 4.334-18.285 16.061-2.076.402-3.55 3.124-3.318 5.326l.356 5.009c.243 2.312 2.275 4 4.514 3.748l.386-.042C38.24 53.877 45.434 55.161 50 55.882c4.566-.72 11.76-2.005 16.347-14.322l.386.042c2.239.251 4.27-1.436 4.514-3.748l.356-5.01c.232-2.2-1.242-4.923-3.318-5.325z" fill="#FFD4A6"/><path d="M71.603 32.845l-.355 5.009c-.244 2.312-2.276 4-4.515 3.748l-.386-.042c-1.568 4.205-3.438 7.125-5.403 9.174-3.79 3.954-7.936 4.673-10.944 5.148V11.458c8.027 0 17.513 4.334 18.285 16.061 2.076.402 3.55 3.124 3.318 5.326z" fill="#FFBB7D"/><path d="M53.395 7.091L50 6.917l-3.395.174c-6.35.326-12.037 4.231-14.401 10.134a16.218 16.218 0 00-.49 10.685l1.94 7.262 3-6.64h26.692l3 6.64 1.94-7.262c1.09-3.68.822-7.412-.49-10.685-2.364-5.903-8.05-9.808-14.401-10.134z" fill="#D36C18"/><path d="M68.963 23.26a16.33 16.33 0 01-.678 4.65l-1.94 7.262-3-6.64H50V6.917l3.395.174c6.351.324 12.037 4.23 14.402 10.133a16.225 16.225 0 011.166 6.035z" fill="#AD4B07"/><path d="M61.423 6.67l-7.341-2.924a11.028 11.028 0 00-8.164 0L38.577 6.67a11.028 11.028 0 00-6.862 8.882l-1.107 8.893L50 23.404l19.391 1.044-1.106-8.894a11.028 11.028 0 00-6.862-8.882z" fill="#FF4571"/><path d="M69.39 24.447L50 23.402V2.962c1.387 0 2.772.263 4.082.784l7.342 2.924a11.03 11.03 0 016.861 8.883l1.06 8.54h.003l.043.354z" fill="#E52541"/><path d="M53.872 37.944a5.978 5.978 0 00-7.744 0 14.626 14.626 0 01-8.883 3.47l-3.592.146.241 1.448A16.327 16.327 0 0050 56.657a17.463 17.463 0 0016.259-14.571l.087-.526-3.592-.145a14.626 14.626 0 01-8.882-3.471z" fill="#EFEBDC"/><path d="M66.346 41.56l-.086.526c-.67 4.033-2.44 7.781-5.317 10.36-2.877 2.577-6.861 3.986-10.943 4.21V36.52c1.379 0 2.758.474 3.873 1.423a14.608 14.608 0 008.88 3.471l3.593.146z" fill="#D6CFBD"/><path d="M50 17.464c-9.84 0-16.81 3.824-20.745 6.8-1.577 1.193-.842 3.703 1.128 3.872l18.57 1.588c.697.06 1.397.06 2.094 0l18.57-1.588c1.97-.168 2.705-2.68 1.128-3.872-3.935-2.977-10.905-6.8-20.745-6.8z" fill="#7B7284"/><path d="M69.617 28.137l-18.57 1.588c-.348.029-.697.044-1.047.044V17.465c8.764 0 15.252 3.031 19.346 5.799h.002c.502.34.968.675 1.398 1 1.576 1.193.84 3.703-1.129 3.873z" fill="#635A6D"/></svg>