<svg width="100" height="100" fill="none" xmlns="http://www.w3.org/2000/svg"><path d="M100 50a49.77 49.77 0 01-9.63 29.504c-9.097 12.426-23.792 7.72-40.37 7.72-16.578 0-31.273 4.706-40.37-7.72A49.77 49.77 0 010 50C0 22.387 22.387 0 50 0s50 22.387 50 50z" fill="#EF9B14"/><path d="M50 87.223c16.578 0 31.273 4.707 40.37-7.72A49.77 49.77 0 00100 50c0-.293-.006-.584-.011-.876L65.177 14.312 30.661 42.983l7.068 7.114c.837 3.084 4.228 11.462 4.228 11.462L9.631 79.504c9.096 12.426 23.79 7.72 40.369 7.72z" fill="#DB8200"/><path d="M33.642 58.658h32.716v8.53H33.642v-8.53z" fill="#584B66"/><path d="M50 58.658h16.357v8.53H50v-8.53z" fill="#4A3E56"/><path d="M39.057 50.877h21.886v23.21H39.057v-23.21z" fill="#FFBB7D"/><path d="M50 50.877h10.943v23.211H50v-23.21z" fill="#EFA36A"/><path d="M26.282 64.9h47.436v22.324H26.282V64.9z" fill="#FFD4A6"/><path d="M50 64.9h23.719v22.323H50V64.901z" fill="#FFBB7D"/><path d="M90.37 79.504C81.272 91.93 66.577 100 50 100c-16.578 0-31.273-8.07-40.37-20.496.25-8.108 6.903-14.604 15.071-14.604h14.356L50 75.39 60.943 64.9h14.358c8.17 0 14.82 6.494 15.068 14.604z" fill="#7B7284"/><path d="M90.37 79.504C81.272 91.93 66.577 100 50 100V75.39l8.557-8.203 2.386-2.287h14.358c8.17 0 14.82 6.494 15.068 14.604z" fill="#635A6D"/><path d="M68.285 29.521C67.513 17.794 58.027 13.461 50 13.461c-8.027 0-17.513 4.333-18.285 16.06-2.076.402-3.55 3.124-3.318 5.325l.356 5.01c.243 2.311 2.275 4 4.514 3.748l.386-.042C38.24 55.88 45.434 57.163 50 57.884c4.566-.72 11.76-2.005 16.347-14.322l.386.042c2.239.251 4.27-1.436 4.514-3.748l.356-5.01c.232-2.2-1.242-4.923-3.318-5.325z" fill="#FFD4A6"/><path d="M71.603 34.846l-.355 5.01c-.244 2.311-2.276 4-4.515 3.748l-.386-.042c-1.568 4.205-3.438 7.125-5.403 9.174-3.79 3.954-7.936 4.673-10.944 5.148V13.46c8.027 0 17.513 4.334 18.285 16.061 2.076.402 3.55 3.124 3.318 5.325z" fill="#FFBB7D"/><path d="M53.872 39.946a5.978 5.978 0 00-7.744 0 14.626 14.626 0 01-8.883 3.47l-3.592.146.241 1.448A16.327 16.327 0 0050 58.66a17.463 17.463 0 0016.259-14.572l.087-.525-3.592-.145a14.626 14.626 0 01-8.882-3.471z" fill="#EFEBDC"/><path d="M66.346 43.563l-.086.525a17.428 17.428 0 01-5.573 10.14A17.42 17.42 0 0150 58.658V38.522c1.379 0 2.758.474 3.873 1.423a14.607 14.607 0 008.88 3.471l3.593.147z" fill="#D6CFBD"/><path d="M33.642 58.658L50 75.391l-8.18 8.789L27.833 64.9l5.81-6.242z" fill="#9D97A5"/><path d="M66.358 58.658L50 75.391l8.18 8.789L72.167 64.9l-5.81-6.242z" fill="#7F7887"/><path d="M38.916 5.762S28.34 16.07 30.531 26.242l1.526 10.135h4.2l2.007-7.473c.714-2.659 3.455-4.271 6.106-3.53.255.072.51.152.761.242l.734.26c2.689.955 5.62.86 8.28-.176.535-.208 1.08-.375 1.63-.502a4.989 4.989 0 015.925 3.575l2.043 7.604h4.2l1.522-10.552c.327-9.044-6.944-20.063-30.549-20.063z" fill="#494949"/><path d="M69.465 25.826l-1.522 10.551h-4.199l-2.043-7.604a4.99 4.99 0 00-5.926-3.574c-.55.125-1.095.293-1.63.502-1.336.52-2.739.803-4.145.834V6.732C64.865 9.615 69.732 18.39 69.465 25.826z" fill="#333"/></svg>