<svg width="15" height="15" fill="none" xmlns="http://www.w3.org/2000/svg"><path d="M7.5 15a7.5 7.5 0 110-15 7.5 7.5 0 010 15z" fill="#EAB14D"/><path d="M7.5 0c.134 0 .267.004.4.01a7.5 7.5 0 000 14.98A7.5 7.5 0 117.5 0z" fill="#E49542"/><path d="M7.5 13.345a5.844 5.844 0 110-11.69 5.844 5.844 0 010 11.69z" fill="#F4FBFF"/><path d="M7.5 1.656c.162 0 .322.007.48.02a5.845 5.845 0 000 11.649A5.844 5.844 0 117.5 1.656z" fill="#DAF1F4"/><path d="M7.5 3.454a.226.226 0 00.226-.226v-.332a.226.226 0 10-.452 0v.332c0 .125.101.226.226.226zM4.492 4.71a.226.226 0 00.16-.386l-.235-.235a.226.226 0 10-.32.32l.235.235a.226.226 0 00.16.067zM2.92 7.726h.333a.226.226 0 100-.452H2.92a.226.226 0 100 .452zm1.354 3.244a.226.226 0 00.16-.067l.235-.235a.226.226 0 00-.32-.32l-.235.235a.226.226 0 00.16.387zm3.251 1.336a.226.226 0 00.226-.226v-.333a.226.226 0 00-.453 0v.333c0 .125.102.226.227.226zm3.243-1.354a.226.226 0 00.16-.386l-.235-.235a.226.226 0 00-.32.32l.235.235a.225.225 0 00.16.066zm1.004-3.25h.332a.226.226 0 100-.453h-.332a.226.226 0 100 .453zm-1.256-3.009a.226.226 0 00.16-.066l.235-.235a.226.226 0 00-.32-.32l-.235.235a.226.226 0 00.16.386zM7.5 7.726h1.922a.226.226 0 000-.452H7.726v-2.88a.226.226 0 10-.452 0V7.5c0 .125.101.226.226.226z" fill="#2B4D66"/><path d="M5.178 8.92c.035 0 .07-.007.103-.024L7.604 7.7a.226.226 0 10-.208-.402L5.074 8.493a.226.226 0 00.104.428z" fill="#DA4A54"/><path d="M7.5 8.104a.604.604 0 110-1.208.604.604 0 010 1.208z" fill="#365E7D"/></svg>