<svg width="30" height="30" fill="none" xmlns="http://www.w3.org/2000/svg"><g clip-path="url(#clip0)"><path d="M29.953 15.232a.625.625 0 00-.137-.681L18.566 3.3a.625.625 0 00-.883.883l10.183 10.184H.625a.625.625 0 000 1.25h27.241L17.684 25.801a.625.625 0 10.883.883l11.25-11.25a.626.626 0 00.136-.202z" fill="#2196F3"/><path d="M18.125 26.868a.625.625 0 01-.442-1.067L28.49 14.992 17.683 4.186a.625.625 0 01.883-.884l11.25 11.25a.625.625 0 010 .884l-11.25 11.25a.625.625 0 01-.441.182z" fill="#4F4F4F"/><path d="M29.375 15.618H.625a.625.625 0 110-1.25h28.75a.625.625 0 010 1.25z" fill="#4F4F4F"/></g><defs><clipPath id="clip0"><path fill="#fff" d="M0 0h30v30H0z"/></clipPath></defs></svg>