<svg width="30" height="30" fill="none" xmlns="http://www.w3.org/2000/svg"><g clip-path="url(#clip0)"><path d="M.048 14.768a.625.625 0 00.136.682l11.25 11.25a.625.625 0 00.884-.884L2.134 15.632h27.241a.625.625 0 000-1.25H2.134L12.316 4.2a.625.625 0 10-.884-.884L.182 14.566a.626.626 0 00-.134.202z" fill="#2196F3"/><path d="M11.875 3.132a.625.625 0 01.443 1.068L1.508 15.007l10.81 10.807a.625.625 0 01-.884.884L.184 15.448a.625.625 0 010-.883l11.25-11.25a.624.624 0 01.441-.183z" fill="#4F4F4F"/><path d="M.625 14.382h28.75a.625.625 0 110 1.25H.625a.625.625 0 010-1.25z" fill="#4F4F4F"/></g><defs><clipPath id="clip0"><path fill="#fff" transform="rotate(180 15 15)" d="M0 0h30v30H0z"/></clipPath></defs></svg>